999
dxflib 2.2.0.0
  0
SECTION
  2
HEADER
  9
$ACADVER
  1
AC1015
  9
$HANDSEED
  5
FFFF
  9
$SPLINESEGS
 70
8
  9
$DIMEXE
 40
25.0
  9
$PSVPSCALE
 40
0.0408839779005525
  9
$DIMAZIN
 70
8
  9
$DIMZIN
 70
8
  9
$DIMLUNIT
 70
2
  9
$GRIDMODE
 70
1
  9
$INSUNITS
 70
4
  9
$DIMADEC
 70
2
  9
$DIMASZ
 40
50.0
  9
$DIMGAP
 40
12.5
  9
$DIMTXT
 40
50.0
  9
$GRIDUNIT
 10
0.0
 20
0.0
  9
$DIMEXO
 40
12.5
  9
$LUPREC
 70
4
  9
$CLAYER
  8
notes
  9
$PINSBASE
 10
53.8389252248411907
 20
87.1132596685082916
 30
0.0
  9
$DIMAUNIT
 70
0
  9
$AUPREC
 70
2
  9
$PLIMMIN
 10
0.0
 20
0.0
  9
$LUNITS
 70
2
  9
$PLIMMAX
 10
297.0
 20
210.0
  9
$DIMSTYLE
  2
Standard
  9
$AUNITS
 70
0
  9
$CLAYER
  8
notes
  0
ENDSEC
  0
SECTION
  2
TABLES
  0
TABLE
  2
VPORT
  5
8
100
AcDbSymbolTable
 70
1
  0
VPORT
  5
30
100
AcDbSymbolTableRecord
100
AcDbViewportTableRecord
  2
*Active
 70
0
 10
0.0
 20
0.0
 11
1.0
 21
1.0
 12
286.3055555555554861
 22
148.5
 13
0.0
 23
0.0
 14
10.0
 24
10.0
 15
10.0
 25
10.0
 16
0.0
 26
0.0
 36
1.0
 17
0.0
 27
0.0
 37
0.0
 40
297.0
 41
1.92798353909465
 42
50.0
 43
0.0
 44
0.0
 50
0.0
 51
0.0
 71
0
 72
100
 73
1
 74
3
 75
1
 76
1
 77
0
 78
0
281
0
 65
1
110
0.0
120
0.0
130
0.0
111
1.0
121
0.0
131
0.0
112
0.0
122
1.0
132
0.0
 79
0
146
0.0
  0
ENDTAB
  0
TABLE
  2
LTYPE
  5
5
100
AcDbSymbolTable
 70
21
  0
LTYPE
  5
14
100
AcDbSymbolTableRecord
100
AcDbLinetypeTableRecord
  2
ByBlock
 70
0
  3

 72
65
 73
0
 40
0.0
  0
LTYPE
  5
15
100
AcDbSymbolTableRecord
100
AcDbLinetypeTableRecord
  2
ByLayer
 70
0
  3

 72
65
 73
0
 40
0.0
  0
LTYPE
  5
16
100
AcDbSymbolTableRecord
100
AcDbLinetypeTableRecord
  2
CONTINUOUS
 70
0
  3
Solid line
 72
65
 73
0
 40
0.0
  0
LTYPE
  5
31
100
AcDbSymbolTableRecord
100
AcDbLinetypeTableRecord
  2
DOT
 70
0
  3
Dot . . . . . . . . . . . . . . . . . . . . . .
 72
65
 73
2
 40
6.3499999999999996
 49
0.0
 74
0
 49
-6.3499999999999996
 74
0
  0
LTYPE
  5
32
100
AcDbSymbolTableRecord
100
AcDbLinetypeTableRecord
  2
DOT2
 70
0
  3
Dot (.5x) .....................................
 72
65
 73
2
 40
3.1749999999999998
 49
0.0
 74
0
 49
-3.1749999999999998
 74
0
  0
LTYPE
  5
33
100
AcDbSymbolTableRecord
100
AcDbLinetypeTableRecord
  2
DOTX2
 70
0
  3
Dot (2x) .  .  .  .  .  .  .  .  .  .  .  .  .
 72
65
 73
2
 40
12.6999999999999993
 49
0.0
 74
0
 49
-12.6999999999999993
 74
0
  0
LTYPE
  5
34
100
AcDbSymbolTableRecord
100
AcDbLinetypeTableRecord
  2
DASHED
 70
0
  3
Dashed __ __ __ __ __ __ __ __ __ __ __ __ __ _
 72
65
 73
2
 40
19.0500000000000007
 49
12.6999999999999993
 74
0
 49
-6.3499999999999996
 74
0
  0
LTYPE
  5
35
100
AcDbSymbolTableRecord
100
AcDbLinetypeTableRecord
  2
DASHED2
 70
0
  3
Dashed (.5x) _ _ _ _ _ _ _ _ _ _ _ _ _ _ _ _ _
 72
65
 73
2
 40
9.5250000000000004
 49
6.3499999999999996
 74
0
 49
-3.1749999999999998
 74
0
  0
LTYPE
  5
36
100
AcDbSymbolTableRecord
100
AcDbLinetypeTableRecord
  2
DASHEDX2
 70
0
  3
Dashed (2x) ____  ____  ____  ____  ____  ___
 72
65
 73
2
 40
38.1000000000000014
 49
25.3999999999999986
 74
0
 49
-12.6999999999999993
 74
0
  0
LTYPE
  5
37
100
AcDbSymbolTableRecord
100
AcDbLinetypeTableRecord
  2
DASHDOT
 70
0
  3
Dash dot __ . __ . __ . __ . __ . __ . __ . __
 72
65
 73
4
 40
25.3999999999999986
 49
12.6999999999999993
 74
0
 49
-6.3499999999999996
 74
0
 49
0.0
 74
0
 49
-6.3499999999999996
 74
0
  0
LTYPE
  5
38
100
AcDbSymbolTableRecord
100
AcDbLinetypeTableRecord
  2
DASHDOT2
 70
0
  3
Dash dot (.5x) _._._._._._._._._._._._._._._.
 72
65
 73
4
 40
12.6999999999999993
 49
6.3499999999999996
 74
0
 49
-3.1749999999999998
 74
0
 49
0.0
 74
0
 49
-3.1749999999999998
 74
0
  0
LTYPE
  5
39
100
AcDbSymbolTableRecord
100
AcDbLinetypeTableRecord
  2
DASHDOTX2
 70
0
  3
Dash dot (2x) ____  .  ____  .  ____  .  ___
 72
65
 73
4
 40
50.7999999999999972
 49
25.3999999999999986
 74
0
 49
-12.6999999999999993
 74
0
 49
0.0
 74
0
 49
-12.6999999999999993
 74
0
  0
LTYPE
  5
3A
100
AcDbSymbolTableRecord
100
AcDbLinetypeTableRecord
  2
DIVIDE
 70
0
  3
Divide ____ . . ____ . . ____ . . ____ . . ____
 72
65
 73
6
 40
31.75
 49
12.6999999999999993
 74
0
 49
-6.3499999999999996
 74
0
 49
0.0
 74
0
 49
-6.3499999999999996
 74
0
 49
0.0
 74
0
 49
-6.3499999999999996
 74
0
  0
LTYPE
  5
3B
100
AcDbSymbolTableRecord
100
AcDbLinetypeTableRecord
  2
DIVIDE2
 70
0
  3
Divide (.5x) __..__..__..__..__..__..__..__.._
 72
65
 73
6
 40
15.875
 49
6.3499999999999996
 74
0
 49
-3.1749999999999998
 74
0
 49
0.0
 74
0
 49
-3.1749999999999998
 74
0
 49
0.0
 74
0
 49
-3.1749999999999998
 74
0
  0
LTYPE
  5
3C
100
AcDbSymbolTableRecord
100
AcDbLinetypeTableRecord
  2
DIVIDEX2
 70
0
  3
Divide (2x) ________  .  .  ________  .  .  _
 72
65
 73
6
 40
63.5
 49
25.3999999999999986
 74
0
 49
-12.6999999999999993
 74
0
 49
0.0
 74
0
 49
-12.6999999999999993
 74
0
 49
0.0
 74
0
 49
-12.6999999999999993
 74
0
  0
LTYPE
  5
3D
100
AcDbSymbolTableRecord
100
AcDbLinetypeTableRecord
  2
CENTER
 70
0
  3
Center ____ _ ____ _ ____ _ ____ _ ____ _ ____
 72
65
 73
4
 40
50.7999999999999972
 49
31.75
 74
0
 49
-6.3499999999999996
 74
0
 49
6.3499999999999996
 74
0
 49
-6.3499999999999996
 74
0
  0
LTYPE
  5
3E
100
AcDbSymbolTableRecord
100
AcDbLinetypeTableRecord
  2
CENTER2
 70
0
  3
Center (.5x) ___ _ ___ _ ___ _ ___ _ ___ _ ___
 72
65
 73
4
 40
28.5749999999999993
 49
19.0500000000000007
 74
0
 49
-3.1749999999999998
 74
0
 49
3.1749999999999998
 74
0
 49
-3.1749999999999998
 74
0
  0
LTYPE
  5
3F
100
AcDbSymbolTableRecord
100
AcDbLinetypeTableRecord
  2
CENTERX2
 70
0
  3
Center (2x) ________  __  ________  __  _____
 72
65
 73
4
 40
101.5999999999999943
 49
63.5
 74
0
 49
-12.6999999999999993
 74
0
 49
12.6999999999999993
 74
0
 49
-12.6999999999999993
 74
0
  0
LTYPE
  5
40
100
AcDbSymbolTableRecord
100
AcDbLinetypeTableRecord
  2
BORDER
 70
0
  3
Border __ __ . __ __ . __ __ . __ __ . __ __ .
 72
65
 73
6
 40
44.4500000000000028
 49
12.6999999999999993
 74
0
 49
-6.3499999999999996
 74
0
 49
12.6999999999999993
 74
0
 49
-6.3499999999999996
 74
0
 49
0.0
 74
0
 49
-6.3499999999999996
 74
0
  0
LTYPE
  5
41
100
AcDbSymbolTableRecord
100
AcDbLinetypeTableRecord
  2
BORDER2
 70
0
  3
Border (.5x) __.__.__.__.__.__.__.__.__.__.__.
 72
65
 73
6
 40
22.2250000000000014
 49
6.3499999999999996
 74
0
 49
-3.1749999999999998
 74
0
 49
6.3499999999999996
 74
0
 49
-3.1749999999999998
 74
0
 49
0.0
 74
0
 49
-3.1749999999999998
 74
0
  0
LTYPE
  5
42
100
AcDbSymbolTableRecord
100
AcDbLinetypeTableRecord
  2
BORDERX2
 70
0
  3
Border (2x) ____  ____  .  ____  ____  .  ___
 72
65
 73
6
 40
88.9000000000000057
 49
25.3999999999999986
 74
0
 49
-12.6999999999999993
 74
0
 49
25.3999999999999986
 74
0
 49
-12.6999999999999993
 74
0
 49
0.0
 74
0
 49
-12.6999999999999993
 74
0
  0
ENDTAB
  0
TABLE
  2
LAYER
  5
2
100
AcDbSymbolTable
 70
3
  0
LAYER
  5
10
100
AcDbSymbolTableRecord
100
AcDbLayerTableRecord
  2
0
 70
0
 62
7
420
0
  6
CONTINUOUS
370
25
390
F
  0
LAYER
  5
43
100
AcDbSymbolTableRecord
100
AcDbLayerTableRecord
  2
dimensions
 70
0
 62
7
420
0
  6
CONTINUOUS
370
0
390
F
  0
LAYER
  5
44
100
AcDbSymbolTableRecord
100
AcDbLayerTableRecord
  2
notes
 70
0
 62
7
420
0
  6
CONTINUOUS
370
0
390
F
  0
ENDTAB
  0
TABLE
  2
STYLE
  5
3
100
AcDbSymbolTable
 70
1
  0
STYLE
  5
11
100
AcDbSymbolTableRecord
100
AcDbTextStyleTableRecord
  2
Standard
 70
0
 40
0.0
 41
0.75
 50
0.0
 71
0
 42
2.5
  3
txt
  4

  0
ENDTAB
  0
TABLE
  2
VIEW
  5
6
100
AcDbSymbolTable
 70
0
  0
ENDTAB
  0
TABLE
  2
UCS
  5
7
100
AcDbSymbolTable
 70
0
  0
ENDTAB
  0
TABLE
  2
APPID
  5
9
100
AcDbSymbolTable
 70
1
  0
APPID
  5
12
100
AcDbSymbolTableRecord
100
AcDbRegAppTableRecord
  2
ACAD
 70
0
  0
ENDTAB
  0
TABLE
  2
DIMSTYLE
  5
A
100
AcDbSymbolTable
 70
1
100
AcDbDimStyleTable
 71
0
  0
DIMSTYLE
105
27
100
AcDbSymbolTableRecord
100
AcDbDimStyleTableRecord
  2
Standard
 41
50.0
 42
12.5
 43
3.75
 44
25.0
 70
0
 73
0
 74
0
 77
1
 78
8
140
50.0
141
2.5
143
0.03937007874016
147
12.5
171
3
172
1
271
2
272
2
274
3
278
44
283
0
284
8
340
11
  0
ENDTAB
  0
TABLE
  2
BLOCK_RECORD
  5
1
100
AcDbSymbolTable
 70
1
  0
BLOCK_RECORD
  5
1F
100
AcDbSymbolTableRecord
100
AcDbBlockTableRecord
  2
*Model_Space
340
22
  0
BLOCK_RECORD
  5
1B
100
AcDbSymbolTableRecord
100
AcDbBlockTableRecord
  2
*Paper_Space
340
1E
  0
BLOCK_RECORD
  5
23
100
AcDbSymbolTableRecord
100
AcDbBlockTableRecord
  2
*Paper_Space0
340
26
  0
ENDTAB
  0
ENDSEC
  0
SECTION
  2
BLOCKS
  0
BLOCK
  5
20
100
AcDbEntity
  8
0
100
AcDbBlockBegin
  2
*Model_Space
 70
0
 10
0.0
 20
0.0
 30
0.0
  3
*Model_Space
  1

  0
ENDBLK
  5
21
100
AcDbEntity
  8
0
100
AcDbBlockEnd
  0
BLOCK
  5
1C
100
AcDbEntity
 67
1
  8
0
100
AcDbBlockBegin
  2
*Paper_Space
 70
0
 10
0.0
 20
0.0
 30
0.0
  3
*Paper_Space
  1

  0
ENDBLK
  5
1D
100
AcDbEntity
 67
1
  8
0
100
AcDbBlockEnd
  0
BLOCK
  5
24
100
AcDbEntity
  8
0
100
AcDbBlockBegin
  2
*Paper_Space0
 70
0
 10
0.0
 20
0.0
 30
0.0
  3
*Paper_Space0
  1

  0
ENDBLK
  5
25
100
AcDbEntity
  8
0
100
AcDbBlockEnd
  0
ENDSEC
  0
SECTION
  2
ENTITIES
  0
LINE
  5
45
100
AcDbEntity
100
AcDbLine
  8
0
 62
256
370
-1
  6
ByLayer
 10
650.0
 20
37.9999999999997371
 30
0.0
 11
650.0
 21
-0.0000000000002629
 31
0.0
  0
LINE
  5
46
100
AcDbEntity
100
AcDbLine
  8
0
 62
256
370
-1
  6
ByLayer
 10
5450.0
 20
-0.0000000000002629
 30
0.0
 11
5450.0
 21
37.9999999999997371
 31
0.0
  0
LINE
  5
47
100
AcDbEntity
100
AcDbLine
  8
0
 62
256
370
-1
  6
ByLayer
 10
650.0
 20
-0.0000000000002629
 30
0.0
 11
5450.0
 21
-0.0000000000002629
 31
0.0
  0
LINE
  5
48
100
AcDbEntity
100
AcDbLine
  8
0
 62
256
370
-1
  6
ByLayer
 10
5450.0
 20
37.9999999999997371
 30
0.0
 11
650.0
 21
37.9999999999997371
 31
0.0
  0
LINE
  5
49
100
AcDbEntity
100
AcDbLine
  8
0
 62
256
370
-1
  6
ByLayer
 10
650.0
 20
37.9999999999997371
 30
0.0
 11
688.0
 21
37.9999999999997371
 31
0.0
  0
LINE
  5
4A
100
AcDbEntity
100
AcDbLine
  8
0
 62
256
370
-1
  6
ByLayer
 10
688.0
 20
37.9999999999997371
 30
0.0
 11
688.0
 21
2661.9999999999995453
 31
0.0
  0
LINE
  5
4B
100
AcDbEntity
100
AcDbLine
  8
0
 62
256
370
-1
  6
ByLayer
 10
688.0
 20
2661.9999999999995453
 30
0.0
 11
650.0
 21
2661.9999999999995453
 31
0.0
  0
LINE
  5
4C
100
AcDbEntity
100
AcDbLine
  8
0
 62
256
370
-1
  6
ByLayer
 10
650.0
 20
2661.9999999999995453
 30
0.0
 11
650.0
 21
37.9999999999997371
 31
0.0
  0
LINE
  5
4D
100
AcDbEntity
100
AcDbLine
  8
0
 62
256
370
-1
  6
ByLayer
 10
5412.0000000000009095
 20
37.9999999999997371
 30
0.0
 11
5450.0
 21
37.9999999999997371
 31
0.0
  0
LINE
  5
4E
100
AcDbEntity
100
AcDbLine
  8
0
 62
256
370
-1
  6
ByLayer
 10
1831.0
 20
37.9999999999997371
 30
0.0
 11
1868.9999999999990905
 21
37.9999999999997371
 31
0.0
  0
LINE
  5
4F
100
AcDbEntity
100
AcDbLine
  8
0
 62
256
370
-1
  6
ByLayer
 10
1868.9999999999990905
 20
37.9999999999997371
 30
0.0
 11
1869.0
 21
2661.9999999999995453
 31
0.0
  0
LINE
  5
50
100
AcDbEntity
100
AcDbLine
  8
0
 62
256
370
-1
  6
ByLayer
 10
1869.0
 20
2661.9999999999995453
 30
0.0
 11
1831.0
 21
2661.9999999999995453
 31
0.0
  0
LINE
  5
51
100
AcDbEntity
100
AcDbLine
  8
0
 62
256
370
-1
  6
ByLayer
 10
1831.0
 20
2661.9999999999995453
 30
0.0
 11
1831.0
 21
37.9999999999997371
 31
0.0
  0
LINE
  5
52
100
AcDbEntity
100
AcDbLine
  8
0
 62
256
370
-1
  6
ByLayer
 10
1431.0000000000004547
 20
37.9999999999997371
 30
0.0
 11
1468.9999999999995453
 21
37.9999999999997371
 31
0.0
  0
LINE
  5
53
100
AcDbEntity
100
AcDbLine
  8
0
 62
256
370
-1
  6
ByLayer
 10
1468.9999999999995453
 20
37.9999999999997371
 30
0.0
 11
1469.0
 21
2661.9999999999995453
 31
0.0
  0
LINE
  5
54
100
AcDbEntity
100
AcDbLine
  8
0
 62
256
370
-1
  6
ByLayer
 10
1469.0
 20
2661.9999999999995453
 30
0.0
 11
1431.0
 21
2661.9999999999995453
 31
0.0
  0
LINE
  5
55
100
AcDbEntity
100
AcDbLine
  8
0
 62
256
370
-1
  6
ByLayer
 10
1431.0
 20
2661.9999999999995453
 30
0.0
 11
1431.0000000000004547
 21
37.9999999999997371
 31
0.0
  0
LINE
  5
56
100
AcDbEntity
100
AcDbLine
  8
0
 62
256
370
-1
  6
ByLayer
 10
2231.0
 20
37.9999999999997371
 30
0.0
 11
2268.9999999999990905
 21
37.9999999999997371
 31
0.0
  0
LINE
  5
57
100
AcDbEntity
100
AcDbLine
  8
0
 62
256
370
-1
  6
ByLayer
 10
2268.9999999999990905
 20
37.9999999999997371
 30
0.0
 11
2269.0
 21
2661.9999999999995453
 31
0.0
  0
LINE
  5
58
100
AcDbEntity
100
AcDbLine
  8
0
 62
256
370
-1
  6
ByLayer
 10
2269.0
 20
2661.9999999999995453
 30
0.0
 11
2231.0
 21
2661.9999999999995453
 31
0.0
  0
LINE
  5
59
100
AcDbEntity
100
AcDbLine
  8
0
 62
256
370
-1
  6
ByLayer
 10
2231.0
 20
2661.9999999999995453
 30
0.0
 11
2231.0
 21
37.9999999999997371
 31
0.0
  0
LINE
  5
5A
100
AcDbEntity
100
AcDbLine
  8
0
 62
256
370
-1
  6
ByLayer
 10
2631.0
 20
37.9999999999997371
 30
0.0
 11
2668.9999999999990905
 21
37.9999999999997371
 31
0.0
  0
LINE
  5
5B
100
AcDbEntity
100
AcDbLine
  8
0
 62
256
370
-1
  6
ByLayer
 10
2668.9999999999990905
 20
37.9999999999997371
 30
0.0
 11
2669.0
 21
2661.9999999999995453
 31
0.0
  0
LINE
  5
5C
100
AcDbEntity
100
AcDbLine
  8
0
 62
256
370
-1
  6
ByLayer
 10
2669.0
 20
2661.9999999999995453
 30
0.0
 11
2631.0
 21
2661.9999999999995453
 31
0.0
  0
LINE
  5
5D
100
AcDbEntity
100
AcDbLine
  8
0
 62
256
370
-1
  6
ByLayer
 10
2631.0
 20
2661.9999999999995453
 30
0.0
 11
2631.0
 21
37.9999999999997371
 31
0.0
  0
LINE
  5
5E
100
AcDbEntity
100
AcDbLine
  8
0
 62
256
370
-1
  6
ByLayer
 10
3031.0
 20
37.9999999999997371
 30
0.0
 11
3069.0
 21
37.9999999999997371
 31
0.0
  0
LINE
  5
5F
100
AcDbEntity
100
AcDbLine
  8
0
 62
256
370
-1
  6
ByLayer
 10
3069.0
 20
37.9999999999997371
 30
0.0
 11
3069.0
 21
2661.9999999999995453
 31
0.0
  0
LINE
  5
60
100
AcDbEntity
100
AcDbLine
  8
0
 62
256
370
-1
  6
ByLayer
 10
3069.0
 20
2661.9999999999995453
 30
0.0
 11
3031.0
 21
2661.9999999999995453
 31
0.0
  0
LINE
  5
61
100
AcDbEntity
100
AcDbLine
  8
0
 62
256
370
-1
  6
ByLayer
 10
3031.0
 20
2661.9999999999995453
 30
0.0
 11
3031.0
 21
37.9999999999997371
 31
0.0
  0
LINE
  5
62
100
AcDbEntity
100
AcDbLine
  8
0
 62
256
370
-1
  6
ByLayer
 10
3431.0
 20
37.9999999999997371
 30
0.0
 11
3468.9999999999990905
 21
37.9999999999997371
 31
0.0
  0
LINE
  5
63
100
AcDbEntity
100
AcDbLine
  8
0
 62
256
370
-1
  6
ByLayer
 10
3468.9999999999990905
 20
37.9999999999997371
 30
0.0
 11
3469.0
 21
2661.9999999999995453
 31
0.0
  0
LINE
  5
64
100
AcDbEntity
100
AcDbLine
  8
0
 62
256
370
-1
  6
ByLayer
 10
3469.0
 20
2661.9999999999995453
 30
0.0
 11
3431.0
 21
2661.9999999999995453
 31
0.0
  0
LINE
  5
65
100
AcDbEntity
100
AcDbLine
  8
0
 62
256
370
-1
  6
ByLayer
 10
3431.0
 20
2661.9999999999995453
 30
0.0
 11
3431.0
 21
37.9999999999997371
 31
0.0
  0
LINE
  5
66
100
AcDbEntity
100
AcDbLine
  8
0
 62
256
370
-1
  6
ByLayer
 10
3831.0
 20
37.9999999999997371
 30
0.0
 11
3868.9999999999990905
 21
37.9999999999997371
 31
0.0
  0
LINE
  5
67
100
AcDbEntity
100
AcDbLine
  8
0
 62
256
370
-1
  6
ByLayer
 10
3868.9999999999990905
 20
37.9999999999997371
 30
0.0
 11
3869.0
 21
2661.9999999999995453
 31
0.0
  0
LINE
  5
68
100
AcDbEntity
100
AcDbLine
  8
0
 62
256
370
-1
  6
ByLayer
 10
3869.0
 20
2661.9999999999995453
 30
0.0
 11
3831.0
 21
2661.9999999999995453
 31
0.0
  0
LINE
  5
69
100
AcDbEntity
100
AcDbLine
  8
0
 62
256
370
-1
  6
ByLayer
 10
3831.0
 20
2661.9999999999995453
 30
0.0
 11
3831.0
 21
37.9999999999997371
 31
0.0
  0
LINE
  5
6A
100
AcDbEntity
100
AcDbLine
  8
0
 62
256
370
-1
  6
ByLayer
 10
4231.0
 20
37.9999999999997371
 30
0.0
 11
4268.9999999999990905
 21
37.9999999999997371
 31
0.0
  0
LINE
  5
6B
100
AcDbEntity
100
AcDbLine
  8
0
 62
256
370
-1
  6
ByLayer
 10
4268.9999999999990905
 20
37.9999999999997371
 30
0.0
 11
4269.0
 21
2661.9999999999995453
 31
0.0
  0
LINE
  5
6C
100
AcDbEntity
100
AcDbLine
  8
0
 62
256
370
-1
  6
ByLayer
 10
4269.0
 20
2661.9999999999995453
 30
0.0
 11
4231.0
 21
2661.9999999999995453
 31
0.0
  0
LINE
  5
6D
100
AcDbEntity
100
AcDbLine
  8
0
 62
256
370
-1
  6
ByLayer
 10
4231.0
 20
2661.9999999999995453
 30
0.0
 11
4231.0
 21
37.9999999999997371
 31
0.0
  0
LINE
  5
6E
100
AcDbEntity
100
AcDbLine
  8
0
 62
256
370
-1
  6
ByLayer
 10
4631.0
 20
37.9999999999997371
 30
0.0
 11
4668.9999999999990905
 21
37.9999999999997371
 31
0.0
  0
LINE
  5
6F
100
AcDbEntity
100
AcDbLine
  8
0
 62
256
370
-1
  6
ByLayer
 10
4668.9999999999990905
 20
37.9999999999997371
 30
0.0
 11
4669.0
 21
2661.9999999999995453
 31
0.0
  0
LINE
  5
70
100
AcDbEntity
100
AcDbLine
  8
0
 62
256
370
-1
  6
ByLayer
 10
4669.0
 20
2661.9999999999995453
 30
0.0
 11
4631.0
 21
2661.9999999999995453
 31
0.0
  0
LINE
  5
71
100
AcDbEntity
100
AcDbLine
  8
0
 62
256
370
-1
  6
ByLayer
 10
4631.0
 20
2661.9999999999995453
 30
0.0
 11
4631.0
 21
37.9999999999997371
 31
0.0
  0
LINE
  5
72
100
AcDbEntity
100
AcDbLine
  8
0
 62
256
370
-1
  6
ByLayer
 10
5031.0
 20
37.9999999999997371
 30
0.0
 11
5068.9999999999990905
 21
37.9999999999997371
 31
0.0
  0
LINE
  5
73
100
AcDbEntity
100
AcDbLine
  8
0
 62
256
370
-1
  6
ByLayer
 10
5068.9999999999990905
 20
37.9999999999997371
 30
0.0
 11
5069.0
 21
2661.9999999999995453
 31
0.0
  0
LINE
  5
74
100
AcDbEntity
100
AcDbLine
  8
0
 62
256
370
-1
  6
ByLayer
 10
5069.0
 20
2661.9999999999995453
 30
0.0
 11
5031.0
 21
2661.9999999999995453
 31
0.0
  0
LINE
  5
75
100
AcDbEntity
100
AcDbLine
  8
0
 62
256
370
-1
  6
ByLayer
 10
5031.0
 20
2661.9999999999995453
 30
0.0
 11
5031.0
 21
37.9999999999997371
 31
0.0
  0
LINE
  5
76
100
AcDbEntity
100
AcDbLine
  8
0
 62
256
370
-1
  6
ByLayer
 10
688.0
 20
580.9999999999997726
 30
0.0
 11
688.0
 21
618.9999999999997726
 31
0.0
  0
LINE
  5
77
100
AcDbEntity
100
AcDbLine
  8
0
 62
256
370
-1
  6
ByLayer
 10
1469.0
 20
580.9999999999997726
 30
0.0
 11
1469.0
 21
618.9999999999997726
 31
0.0
  0
LINE
  5
78
100
AcDbEntity
100
AcDbLine
  8
0
 62
256
370
-1
  6
ByLayer
 10
1831.0
 20
580.9999999999997726
 30
0.0
 11
1831.0
 21
618.9999999999997726
 31
0.0
  0
LINE
  5
79
100
AcDbEntity
100
AcDbLine
  8
0
 62
256
370
-1
  6
ByLayer
 10
1469.0
 20
618.9999999999997726
 30
0.0
 11
1831.0
 21
618.9999999999997726
 31
0.0
  0
LINE
  5
7A
100
AcDbEntity
100
AcDbLine
  8
0
 62
256
370
-1
  6
ByLayer
 10
1469.0
 20
580.9999999999997726
 30
0.0
 11
1831.0
 21
580.9999999999997726
 31
0.0
  0
LINE
  5
7B
100
AcDbEntity
100
AcDbLine
  8
0
 62
256
370
-1
  6
ByLayer
 10
1469.0
 20
1180.9999999999997726
 30
0.0
 11
1469.0
 21
1218.9999999999997726
 31
0.0
  0
LINE
  5
7C
100
AcDbEntity
100
AcDbLine
  8
0
 62
256
370
-1
  6
ByLayer
 10
1831.0
 20
1180.9999999999997726
 30
0.0
 11
1831.0
 21
1218.9999999999997726
 31
0.0
  0
LINE
  5
7D
100
AcDbEntity
100
AcDbLine
  8
0
 62
256
370
-1
  6
ByLayer
 10
1469.0
 20
1218.9999999999997726
 30
0.0
 11
1831.0
 21
1218.9999999999997726
 31
0.0
  0
LINE
  5
7E
100
AcDbEntity
100
AcDbLine
  8
0
 62
256
370
-1
  6
ByLayer
 10
1469.0
 20
1180.9999999999997726
 30
0.0
 11
1831.0
 21
1180.9999999999997726
 31
0.0
  0
LINE
  5
7F
100
AcDbEntity
100
AcDbLine
  8
0
 62
256
370
-1
  6
ByLayer
 10
1469.0
 20
1780.9999999999997726
 30
0.0
 11
1469.0
 21
1818.9999999999997726
 31
0.0
  0
LINE
  5
80
100
AcDbEntity
100
AcDbLine
  8
0
 62
256
370
-1
  6
ByLayer
 10
1831.0
 20
1780.9999999999997726
 30
0.0
 11
1831.0
 21
1818.9999999999997726
 31
0.0
  0
LINE
  5
81
100
AcDbEntity
100
AcDbLine
  8
0
 62
256
370
-1
  6
ByLayer
 10
1469.0
 20
1818.9999999999997726
 30
0.0
 11
1831.0
 21
1818.9999999999997726
 31
0.0
  0
LINE
  5
82
100
AcDbEntity
100
AcDbLine
  8
0
 62
256
370
-1
  6
ByLayer
 10
1469.0
 20
1780.9999999999997726
 30
0.0
 11
1831.0
 21
1780.9999999999997726
 31
0.0
  0
LINE
  5
83
100
AcDbEntity
100
AcDbLine
  8
0
 62
256
370
-1
  6
ByLayer
 10
1469.0
 20
2380.9999999999995453
 30
0.0
 11
1469.0
 21
2418.9999999999995453
 31
0.0
  0
LINE
  5
84
100
AcDbEntity
100
AcDbLine
  8
0
 62
256
370
-1
  6
ByLayer
 10
1831.0
 20
2380.9999999999995453
 30
0.0
 11
1831.0
 21
2418.9999999999995453
 31
0.0
  0
LINE
  5
85
100
AcDbEntity
100
AcDbLine
  8
0
 62
256
370
-1
  6
ByLayer
 10
1469.0
 20
2418.9999999999995453
 30
0.0
 11
1831.0
 21
2418.9999999999995453
 31
0.0
  0
LINE
  5
86
100
AcDbEntity
100
AcDbLine
  8
0
 62
256
370
-1
  6
ByLayer
 10
1469.0
 20
2380.9999999999995453
 30
0.0
 11
1831.0
 21
2380.9999999999995453
 31
0.0
  0
LINE
  5
87
100
AcDbEntity
100
AcDbLine
  8
0
 62
256
370
-1
  6
ByLayer
 10
1869.0
 20
580.9999999999998863
 30
0.0
 11
1869.0
 21
618.9999999999997726
 31
0.0
  0
LINE
  5
88
100
AcDbEntity
100
AcDbLine
  8
0
 62
256
370
-1
  6
ByLayer
 10
2231.0
 20
580.9999999999996589
 30
0.0
 11
2231.0
 21
618.9999999999997726
 31
0.0
  0
LINE
  5
89
100
AcDbEntity
100
AcDbLine
  8
0
 62
256
370
-1
  6
ByLayer
 10
1869.0
 20
618.9999999999997726
 30
0.0
 11
2231.0
 21
618.9999999999997726
 31
0.0
  0
LINE
  5
8A
100
AcDbEntity
100
AcDbLine
  8
0
 62
256
370
-1
  6
ByLayer
 10
1869.0
 20
580.9999999999998863
 30
0.0
 11
2231.0
 21
580.9999999999996589
 31
0.0
  0
LINE
  5
8B
100
AcDbEntity
100
AcDbLine
  8
0
 62
256
370
-1
  6
ByLayer
 10
1869.0
 20
1180.9999999999997726
 30
0.0
 11
1869.0
 21
1218.9999999999997726
 31
0.0
  0
LINE
  5
8C
100
AcDbEntity
100
AcDbLine
  8
0
 62
256
370
-1
  6
ByLayer
 10
2231.0
 20
1180.9999999999997726
 30
0.0
 11
2231.0
 21
1218.9999999999997726
 31
0.0
  0
LINE
  5
8D
100
AcDbEntity
100
AcDbLine
  8
0
 62
256
370
-1
  6
ByLayer
 10
1869.0
 20
1218.9999999999997726
 30
0.0
 11
2231.0
 21
1218.9999999999997726
 31
0.0
  0
LINE
  5
8E
100
AcDbEntity
100
AcDbLine
  8
0
 62
256
370
-1
  6
ByLayer
 10
1869.0
 20
1180.9999999999997726
 30
0.0
 11
2231.0
 21
1180.9999999999997726
 31
0.0
  0
LINE
  5
8F
100
AcDbEntity
100
AcDbLine
  8
0
 62
256
370
-1
  6
ByLayer
 10
1869.0
 20
1780.9999999999997726
 30
0.0
 11
1869.0
 21
1818.9999999999997726
 31
0.0
  0
LINE
  5
90
100
AcDbEntity
100
AcDbLine
  8
0
 62
256
370
-1
  6
ByLayer
 10
2231.0
 20
1780.9999999999997726
 30
0.0
 11
2231.0
 21
1818.9999999999997726
 31
0.0
  0
LINE
  5
91
100
AcDbEntity
100
AcDbLine
  8
0
 62
256
370
-1
  6
ByLayer
 10
1869.0
 20
1818.9999999999997726
 30
0.0
 11
2231.0
 21
1818.9999999999997726
 31
0.0
  0
LINE
  5
92
100
AcDbEntity
100
AcDbLine
  8
0
 62
256
370
-1
  6
ByLayer
 10
1869.0
 20
1780.9999999999997726
 30
0.0
 11
2231.0
 21
1780.9999999999997726
 31
0.0
  0
LINE
  5
93
100
AcDbEntity
100
AcDbLine
  8
0
 62
256
370
-1
  6
ByLayer
 10
1869.0
 20
2380.9999999999995453
 30
0.0
 11
1869.0
 21
2418.9999999999995453
 31
0.0
  0
LINE
  5
94
100
AcDbEntity
100
AcDbLine
  8
0
 62
256
370
-1
  6
ByLayer
 10
2231.0
 20
2380.9999999999995453
 30
0.0
 11
2231.0
 21
2418.9999999999995453
 31
0.0
  0
LINE
  5
95
100
AcDbEntity
100
AcDbLine
  8
0
 62
256
370
-1
  6
ByLayer
 10
1869.0
 20
2418.9999999999995453
 30
0.0
 11
2231.0
 21
2418.9999999999995453
 31
0.0
  0
LINE
  5
96
100
AcDbEntity
100
AcDbLine
  8
0
 62
256
370
-1
  6
ByLayer
 10
1869.0
 20
2380.9999999999995453
 30
0.0
 11
2231.0
 21
2380.9999999999995453
 31
0.0
  0
LINE
  5
97
100
AcDbEntity
100
AcDbLine
  8
0
 62
256
370
-1
  6
ByLayer
 10
2269.0
 20
580.9999999999998863
 30
0.0
 11
2269.0
 21
618.9999999999997726
 31
0.0
  0
LINE
  5
98
100
AcDbEntity
100
AcDbLine
  8
0
 62
256
370
-1
  6
ByLayer
 10
2631.0
 20
580.9999999999996589
 30
0.0
 11
2631.0
 21
618.9999999999997726
 31
0.0
  0
LINE
  5
99
100
AcDbEntity
100
AcDbLine
  8
0
 62
256
370
-1
  6
ByLayer
 10
2269.0
 20
618.9999999999997726
 30
0.0
 11
2631.0
 21
618.9999999999997726
 31
0.0
  0
LINE
  5
9A
100
AcDbEntity
100
AcDbLine
  8
0
 62
256
370
-1
  6
ByLayer
 10
2269.0
 20
580.9999999999998863
 30
0.0
 11
2631.0
 21
580.9999999999996589
 31
0.0
  0
LINE
  5
9B
100
AcDbEntity
100
AcDbLine
  8
0
 62
256
370
-1
  6
ByLayer
 10
2269.0
 20
1180.9999999999997726
 30
0.0
 11
2269.0
 21
1218.9999999999997726
 31
0.0
  0
LINE
  5
9C
100
AcDbEntity
100
AcDbLine
  8
0
 62
256
370
-1
  6
ByLayer
 10
2631.0
 20
1180.9999999999997726
 30
0.0
 11
2631.0
 21
1218.9999999999997726
 31
0.0
  0
LINE
  5
9D
100
AcDbEntity
100
AcDbLine
  8
0
 62
256
370
-1
  6
ByLayer
 10
2269.0
 20
1218.9999999999997726
 30
0.0
 11
2631.0
 21
1218.9999999999997726
 31
0.0
  0
LINE
  5
9E
100
AcDbEntity
100
AcDbLine
  8
0
 62
256
370
-1
  6
ByLayer
 10
2269.0
 20
1180.9999999999997726
 30
0.0
 11
2631.0
 21
1180.9999999999997726
 31
0.0
  0
LINE
  5
9F
100
AcDbEntity
100
AcDbLine
  8
0
 62
256
370
-1
  6
ByLayer
 10
2269.0
 20
1780.9999999999997726
 30
0.0
 11
2269.0
 21
1818.9999999999997726
 31
0.0
  0
LINE
  5
A0
100
AcDbEntity
100
AcDbLine
  8
0
 62
256
370
-1
  6
ByLayer
 10
2631.0
 20
1780.9999999999997726
 30
0.0
 11
2631.0
 21
1818.9999999999997726
 31
0.0
  0
LINE
  5
A1
100
AcDbEntity
100
AcDbLine
  8
0
 62
256
370
-1
  6
ByLayer
 10
2269.0
 20
1818.9999999999997726
 30
0.0
 11
2631.0
 21
1818.9999999999997726
 31
0.0
  0
LINE
  5
A2
100
AcDbEntity
100
AcDbLine
  8
0
 62
256
370
-1
  6
ByLayer
 10
2269.0
 20
1780.9999999999997726
 30
0.0
 11
2631.0
 21
1780.9999999999997726
 31
0.0
  0
LINE
  5
A3
100
AcDbEntity
100
AcDbLine
  8
0
 62
256
370
-1
  6
ByLayer
 10
2269.0
 20
2380.9999999999995453
 30
0.0
 11
2269.0
 21
2418.9999999999995453
 31
0.0
  0
LINE
  5
A4
100
AcDbEntity
100
AcDbLine
  8
0
 62
256
370
-1
  6
ByLayer
 10
2631.0
 20
2380.9999999999995453
 30
0.0
 11
2631.0
 21
2418.9999999999995453
 31
0.0
  0
LINE
  5
A5
100
AcDbEntity
100
AcDbLine
  8
0
 62
256
370
-1
  6
ByLayer
 10
2269.0
 20
2418.9999999999995453
 30
0.0
 11
2631.0
 21
2418.9999999999995453
 31
0.0
  0
LINE
  5
A6
100
AcDbEntity
100
AcDbLine
  8
0
 62
256
370
-1
  6
ByLayer
 10
2269.0
 20
2380.9999999999995453
 30
0.0
 11
2631.0
 21
2380.9999999999995453
 31
0.0
  0
LINE
  5
A7
100
AcDbEntity
100
AcDbLine
  8
0
 62
256
370
-1
  6
ByLayer
 10
2669.0
 20
580.9999999999998863
 30
0.0
 11
2669.0
 21
618.9999999999997726
 31
0.0
  0
LINE
  5
A8
100
AcDbEntity
100
AcDbLine
  8
0
 62
256
370
-1
  6
ByLayer
 10
3031.0
 20
580.9999999999996589
 30
0.0
 11
3031.0
 21
618.9999999999997726
 31
0.0
  0
LINE
  5
A9
100
AcDbEntity
100
AcDbLine
  8
0
 62
256
370
-1
  6
ByLayer
 10
2669.0
 20
618.9999999999997726
 30
0.0
 11
3031.0
 21
618.9999999999997726
 31
0.0
  0
LINE
  5
AA
100
AcDbEntity
100
AcDbLine
  8
0
 62
256
370
-1
  6
ByLayer
 10
2669.0
 20
580.9999999999998863
 30
0.0
 11
3031.0
 21
580.9999999999996589
 31
0.0
  0
LINE
  5
AB
100
AcDbEntity
100
AcDbLine
  8
0
 62
256
370
-1
  6
ByLayer
 10
2669.0
 20
1180.9999999999997726
 30
0.0
 11
2669.0
 21
1218.9999999999997726
 31
0.0
  0
LINE
  5
AC
100
AcDbEntity
100
AcDbLine
  8
0
 62
256
370
-1
  6
ByLayer
 10
3031.0
 20
1180.9999999999997726
 30
0.0
 11
3031.0
 21
1218.9999999999997726
 31
0.0
  0
LINE
  5
AD
100
AcDbEntity
100
AcDbLine
  8
0
 62
256
370
-1
  6
ByLayer
 10
2669.0
 20
1218.9999999999997726
 30
0.0
 11
3031.0
 21
1218.9999999999997726
 31
0.0
  0
LINE
  5
AE
100
AcDbEntity
100
AcDbLine
  8
0
 62
256
370
-1
  6
ByLayer
 10
2669.0
 20
1180.9999999999997726
 30
0.0
 11
3031.0
 21
1180.9999999999997726
 31
0.0
  0
LINE
  5
AF
100
AcDbEntity
100
AcDbLine
  8
0
 62
256
370
-1
  6
ByLayer
 10
2669.0
 20
1780.9999999999997726
 30
0.0
 11
2669.0
 21
1818.9999999999997726
 31
0.0
  0
LINE
  5
B0
100
AcDbEntity
100
AcDbLine
  8
0
 62
256
370
-1
  6
ByLayer
 10
3031.0
 20
1780.9999999999997726
 30
0.0
 11
3031.0
 21
1818.9999999999997726
 31
0.0
  0
LINE
  5
B1
100
AcDbEntity
100
AcDbLine
  8
0
 62
256
370
-1
  6
ByLayer
 10
2669.0
 20
1818.9999999999997726
 30
0.0
 11
3031.0
 21
1818.9999999999997726
 31
0.0
  0
LINE
  5
B2
100
AcDbEntity
100
AcDbLine
  8
0
 62
256
370
-1
  6
ByLayer
 10
2669.0
 20
1780.9999999999997726
 30
0.0
 11
3031.0
 21
1780.9999999999997726
 31
0.0
  0
LINE
  5
B3
100
AcDbEntity
100
AcDbLine
  8
0
 62
256
370
-1
  6
ByLayer
 10
2669.0
 20
2380.9999999999995453
 30
0.0
 11
2669.0
 21
2418.9999999999995453
 31
0.0
  0
LINE
  5
B4
100
AcDbEntity
100
AcDbLine
  8
0
 62
256
370
-1
  6
ByLayer
 10
3031.0
 20
2380.9999999999995453
 30
0.0
 11
3031.0
 21
2418.9999999999995453
 31
0.0
  0
LINE
  5
B5
100
AcDbEntity
100
AcDbLine
  8
0
 62
256
370
-1
  6
ByLayer
 10
2669.0
 20
2418.9999999999995453
 30
0.0
 11
3031.0
 21
2418.9999999999995453
 31
0.0
  0
LINE
  5
B6
100
AcDbEntity
100
AcDbLine
  8
0
 62
256
370
-1
  6
ByLayer
 10
2669.0
 20
2380.9999999999995453
 30
0.0
 11
3031.0
 21
2380.9999999999995453
 31
0.0
  0
LINE
  5
B7
100
AcDbEntity
100
AcDbLine
  8
0
 62
256
370
-1
  6
ByLayer
 10
3069.0
 20
580.9999999999998863
 30
0.0
 11
3069.0
 21
618.9999999999997726
 31
0.0
  0
LINE
  5
B8
100
AcDbEntity
100
AcDbLine
  8
0
 62
256
370
-1
  6
ByLayer
 10
3431.0
 20
580.9999999999996589
 30
0.0
 11
3431.0
 21
618.9999999999997726
 31
0.0
  0
LINE
  5
B9
100
AcDbEntity
100
AcDbLine
  8
0
 62
256
370
-1
  6
ByLayer
 10
3069.0
 20
618.9999999999997726
 30
0.0
 11
3431.0
 21
618.9999999999997726
 31
0.0
  0
LINE
  5
BA
100
AcDbEntity
100
AcDbLine
  8
0
 62
256
370
-1
  6
ByLayer
 10
3069.0
 20
580.9999999999998863
 30
0.0
 11
3431.0
 21
580.9999999999996589
 31
0.0
  0
LINE
  5
BB
100
AcDbEntity
100
AcDbLine
  8
0
 62
256
370
-1
  6
ByLayer
 10
3069.0
 20
1180.9999999999997726
 30
0.0
 11
3069.0
 21
1218.9999999999997726
 31
0.0
  0
LINE
  5
BC
100
AcDbEntity
100
AcDbLine
  8
0
 62
256
370
-1
  6
ByLayer
 10
3431.0
 20
1180.9999999999997726
 30
0.0
 11
3431.0
 21
1218.9999999999997726
 31
0.0
  0
LINE
  5
BD
100
AcDbEntity
100
AcDbLine
  8
0
 62
256
370
-1
  6
ByLayer
 10
3069.0
 20
1218.9999999999997726
 30
0.0
 11
3431.0
 21
1218.9999999999997726
 31
0.0
  0
LINE
  5
BE
100
AcDbEntity
100
AcDbLine
  8
0
 62
256
370
-1
  6
ByLayer
 10
3069.0
 20
1180.9999999999997726
 30
0.0
 11
3431.0
 21
1180.9999999999997726
 31
0.0
  0
LINE
  5
BF
100
AcDbEntity
100
AcDbLine
  8
0
 62
256
370
-1
  6
ByLayer
 10
3069.0
 20
1780.9999999999997726
 30
0.0
 11
3069.0
 21
1818.9999999999997726
 31
0.0
  0
LINE
  5
C0
100
AcDbEntity
100
AcDbLine
  8
0
 62
256
370
-1
  6
ByLayer
 10
3431.0
 20
1780.9999999999997726
 30
0.0
 11
3431.0
 21
1818.9999999999997726
 31
0.0
  0
LINE
  5
C1
100
AcDbEntity
100
AcDbLine
  8
0
 62
256
370
-1
  6
ByLayer
 10
3069.0
 20
1818.9999999999997726
 30
0.0
 11
3431.0
 21
1818.9999999999997726
 31
0.0
  0
LINE
  5
C2
100
AcDbEntity
100
AcDbLine
  8
0
 62
256
370
-1
  6
ByLayer
 10
3069.0
 20
1780.9999999999997726
 30
0.0
 11
3431.0
 21
1780.9999999999997726
 31
0.0
  0
LINE
  5
C3
100
AcDbEntity
100
AcDbLine
  8
0
 62
256
370
-1
  6
ByLayer
 10
3069.0
 20
2380.9999999999995453
 30
0.0
 11
3069.0
 21
2418.9999999999995453
 31
0.0
  0
LINE
  5
C4
100
AcDbEntity
100
AcDbLine
  8
0
 62
256
370
-1
  6
ByLayer
 10
3431.0
 20
2380.9999999999995453
 30
0.0
 11
3431.0
 21
2418.9999999999995453
 31
0.0
  0
LINE
  5
C5
100
AcDbEntity
100
AcDbLine
  8
0
 62
256
370
-1
  6
ByLayer
 10
3069.0
 20
2418.9999999999995453
 30
0.0
 11
3431.0
 21
2418.9999999999995453
 31
0.0
  0
LINE
  5
C6
100
AcDbEntity
100
AcDbLine
  8
0
 62
256
370
-1
  6
ByLayer
 10
3069.0
 20
2380.9999999999995453
 30
0.0
 11
3431.0
 21
2380.9999999999995453
 31
0.0
  0
LINE
  5
C7
100
AcDbEntity
100
AcDbLine
  8
0
 62
256
370
-1
  6
ByLayer
 10
3469.0
 20
580.9999999999998863
 30
0.0
 11
3469.0
 21
618.9999999999997726
 31
0.0
  0
LINE
  5
C8
100
AcDbEntity
100
AcDbLine
  8
0
 62
256
370
-1
  6
ByLayer
 10
3831.0
 20
580.9999999999996589
 30
0.0
 11
3831.0
 21
618.9999999999997726
 31
0.0
  0
LINE
  5
C9
100
AcDbEntity
100
AcDbLine
  8
0
 62
256
370
-1
  6
ByLayer
 10
3469.0
 20
618.9999999999997726
 30
0.0
 11
3831.0
 21
618.9999999999997726
 31
0.0
  0
LINE
  5
CA
100
AcDbEntity
100
AcDbLine
  8
0
 62
256
370
-1
  6
ByLayer
 10
3469.0
 20
580.9999999999998863
 30
0.0
 11
3831.0
 21
580.9999999999996589
 31
0.0
  0
LINE
  5
CB
100
AcDbEntity
100
AcDbLine
  8
0
 62
256
370
-1
  6
ByLayer
 10
3469.0
 20
1180.9999999999997726
 30
0.0
 11
3469.0
 21
1218.9999999999997726
 31
0.0
  0
LINE
  5
CC
100
AcDbEntity
100
AcDbLine
  8
0
 62
256
370
-1
  6
ByLayer
 10
3831.0
 20
1180.9999999999997726
 30
0.0
 11
3831.0
 21
1218.9999999999997726
 31
0.0
  0
LINE
  5
CD
100
AcDbEntity
100
AcDbLine
  8
0
 62
256
370
-1
  6
ByLayer
 10
3469.0
 20
1218.9999999999997726
 30
0.0
 11
3831.0
 21
1218.9999999999997726
 31
0.0
  0
LINE
  5
CE
100
AcDbEntity
100
AcDbLine
  8
0
 62
256
370
-1
  6
ByLayer
 10
3469.0
 20
1180.9999999999997726
 30
0.0
 11
3831.0
 21
1180.9999999999997726
 31
0.0
  0
LINE
  5
CF
100
AcDbEntity
100
AcDbLine
  8
0
 62
256
370
-1
  6
ByLayer
 10
3469.0
 20
1780.9999999999997726
 30
0.0
 11
3469.0
 21
1818.9999999999997726
 31
0.0
  0
LINE
  5
D0
100
AcDbEntity
100
AcDbLine
  8
0
 62
256
370
-1
  6
ByLayer
 10
3831.0
 20
1780.9999999999997726
 30
0.0
 11
3831.0
 21
1818.9999999999997726
 31
0.0
  0
LINE
  5
D1
100
AcDbEntity
100
AcDbLine
  8
0
 62
256
370
-1
  6
ByLayer
 10
3469.0
 20
1818.9999999999997726
 30
0.0
 11
3831.0
 21
1818.9999999999997726
 31
0.0
  0
LINE
  5
D2
100
AcDbEntity
100
AcDbLine
  8
0
 62
256
370
-1
  6
ByLayer
 10
3469.0
 20
1780.9999999999997726
 30
0.0
 11
3831.0
 21
1780.9999999999997726
 31
0.0
  0
LINE
  5
D3
100
AcDbEntity
100
AcDbLine
  8
0
 62
256
370
-1
  6
ByLayer
 10
3469.0
 20
2380.9999999999995453
 30
0.0
 11
3469.0
 21
2418.9999999999995453
 31
0.0
  0
LINE
  5
D4
100
AcDbEntity
100
AcDbLine
  8
0
 62
256
370
-1
  6
ByLayer
 10
3831.0
 20
2380.9999999999995453
 30
0.0
 11
3831.0
 21
2418.9999999999995453
 31
0.0
  0
LINE
  5
D5
100
AcDbEntity
100
AcDbLine
  8
0
 62
256
370
-1
  6
ByLayer
 10
3469.0
 20
2418.9999999999995453
 30
0.0
 11
3831.0
 21
2418.9999999999995453
 31
0.0
  0
LINE
  5
D6
100
AcDbEntity
100
AcDbLine
  8
0
 62
256
370
-1
  6
ByLayer
 10
3469.0
 20
2380.9999999999995453
 30
0.0
 11
3831.0
 21
2380.9999999999995453
 31
0.0
  0
LINE
  5
D7
100
AcDbEntity
100
AcDbLine
  8
0
 62
256
370
-1
  6
ByLayer
 10
3869.0
 20
580.9999999999998863
 30
0.0
 11
3869.0
 21
618.9999999999997726
 31
0.0
  0
LINE
  5
D8
100
AcDbEntity
100
AcDbLine
  8
0
 62
256
370
-1
  6
ByLayer
 10
4231.0
 20
580.9999999999996589
 30
0.0
 11
4231.0
 21
618.9999999999997726
 31
0.0
  0
LINE
  5
D9
100
AcDbEntity
100
AcDbLine
  8
0
 62
256
370
-1
  6
ByLayer
 10
3869.0
 20
618.9999999999997726
 30
0.0
 11
4231.0
 21
618.9999999999997726
 31
0.0
  0
LINE
  5
DA
100
AcDbEntity
100
AcDbLine
  8
0
 62
256
370
-1
  6
ByLayer
 10
3869.0
 20
580.9999999999998863
 30
0.0
 11
4231.0
 21
580.9999999999996589
 31
0.0
  0
LINE
  5
DB
100
AcDbEntity
100
AcDbLine
  8
0
 62
256
370
-1
  6
ByLayer
 10
3869.0
 20
1180.9999999999997726
 30
0.0
 11
3869.0
 21
1218.9999999999997726
 31
0.0
  0
LINE
  5
DC
100
AcDbEntity
100
AcDbLine
  8
0
 62
256
370
-1
  6
ByLayer
 10
4231.0
 20
1180.9999999999997726
 30
0.0
 11
4231.0
 21
1218.9999999999997726
 31
0.0
  0
LINE
  5
DD
100
AcDbEntity
100
AcDbLine
  8
0
 62
256
370
-1
  6
ByLayer
 10
3869.0
 20
1218.9999999999997726
 30
0.0
 11
4231.0
 21
1218.9999999999997726
 31
0.0
  0
LINE
  5
DE
100
AcDbEntity
100
AcDbLine
  8
0
 62
256
370
-1
  6
ByLayer
 10
3869.0
 20
1180.9999999999997726
 30
0.0
 11
4231.0
 21
1180.9999999999997726
 31
0.0
  0
LINE
  5
DF
100
AcDbEntity
100
AcDbLine
  8
0
 62
256
370
-1
  6
ByLayer
 10
3869.0
 20
1780.9999999999997726
 30
0.0
 11
3869.0
 21
1818.9999999999997726
 31
0.0
  0
LINE
  5
E0
100
AcDbEntity
100
AcDbLine
  8
0
 62
256
370
-1
  6
ByLayer
 10
4231.0
 20
1780.9999999999997726
 30
0.0
 11
4231.0
 21
1818.9999999999997726
 31
0.0
  0
LINE
  5
E1
100
AcDbEntity
100
AcDbLine
  8
0
 62
256
370
-1
  6
ByLayer
 10
3869.0
 20
1818.9999999999997726
 30
0.0
 11
4231.0
 21
1818.9999999999997726
 31
0.0
  0
LINE
  5
E2
100
AcDbEntity
100
AcDbLine
  8
0
 62
256
370
-1
  6
ByLayer
 10
3869.0
 20
1780.9999999999997726
 30
0.0
 11
4231.0
 21
1780.9999999999997726
 31
0.0
  0
LINE
  5
E3
100
AcDbEntity
100
AcDbLine
  8
0
 62
256
370
-1
  6
ByLayer
 10
3869.0
 20
2380.9999999999995453
 30
0.0
 11
3869.0
 21
2418.9999999999995453
 31
0.0
  0
LINE
  5
E4
100
AcDbEntity
100
AcDbLine
  8
0
 62
256
370
-1
  6
ByLayer
 10
4231.0
 20
2380.9999999999995453
 30
0.0
 11
4231.0
 21
2418.9999999999995453
 31
0.0
  0
LINE
  5
E5
100
AcDbEntity
100
AcDbLine
  8
0
 62
256
370
-1
  6
ByLayer
 10
3869.0
 20
2418.9999999999995453
 30
0.0
 11
4231.0
 21
2418.9999999999995453
 31
0.0
  0
LINE
  5
E6
100
AcDbEntity
100
AcDbLine
  8
0
 62
256
370
-1
  6
ByLayer
 10
3869.0
 20
2380.9999999999995453
 30
0.0
 11
4231.0
 21
2380.9999999999995453
 31
0.0
  0
LINE
  5
E7
100
AcDbEntity
100
AcDbLine
  8
0
 62
256
370
-1
  6
ByLayer
 10
4269.0
 20
2380.9999999999995453
 30
0.0
 11
4269.0
 21
2418.9999999999995453
 31
0.0
  0
LINE
  5
E8
100
AcDbEntity
100
AcDbLine
  8
0
 62
256
370
-1
  6
ByLayer
 10
4631.0
 20
2380.9999999999995453
 30
0.0
 11
4631.0
 21
2418.9999999999995453
 31
0.0
  0
LINE
  5
E9
100
AcDbEntity
100
AcDbLine
  8
0
 62
256
370
-1
  6
ByLayer
 10
4269.0
 20
2418.9999999999995453
 30
0.0
 11
4631.0
 21
2418.9999999999995453
 31
0.0
  0
LINE
  5
EA
100
AcDbEntity
100
AcDbLine
  8
0
 62
256
370
-1
  6
ByLayer
 10
4269.0
 20
2380.9999999999995453
 30
0.0
 11
4631.0
 21
2380.9999999999995453
 31
0.0
  0
LINE
  5
EB
100
AcDbEntity
100
AcDbLine
  8
0
 62
256
370
-1
  6
ByLayer
 10
4269.0
 20
1780.9999999999997726
 30
0.0
 11
4269.0
 21
1818.9999999999997726
 31
0.0
  0
LINE
  5
EC
100
AcDbEntity
100
AcDbLine
  8
0
 62
256
370
-1
  6
ByLayer
 10
4631.0
 20
1780.9999999999997726
 30
0.0
 11
4631.0
 21
1818.9999999999997726
 31
0.0
  0
LINE
  5
ED
100
AcDbEntity
100
AcDbLine
  8
0
 62
256
370
-1
  6
ByLayer
 10
4269.0
 20
1818.9999999999997726
 30
0.0
 11
4631.0
 21
1818.9999999999997726
 31
0.0
  0
LINE
  5
EE
100
AcDbEntity
100
AcDbLine
  8
0
 62
256
370
-1
  6
ByLayer
 10
4269.0
 20
1780.9999999999997726
 30
0.0
 11
4631.0
 21
1780.9999999999997726
 31
0.0
  0
LINE
  5
EF
100
AcDbEntity
100
AcDbLine
  8
0
 62
256
370
-1
  6
ByLayer
 10
4269.0
 20
1180.9999999999997726
 30
0.0
 11
4269.0
 21
1218.9999999999997726
 31
0.0
  0
LINE
  5
F0
100
AcDbEntity
100
AcDbLine
  8
0
 62
256
370
-1
  6
ByLayer
 10
4631.0
 20
1180.9999999999997726
 30
0.0
 11
4631.0
 21
1218.9999999999997726
 31
0.0
  0
LINE
  5
F1
100
AcDbEntity
100
AcDbLine
  8
0
 62
256
370
-1
  6
ByLayer
 10
4269.0
 20
1218.9999999999997726
 30
0.0
 11
4631.0
 21
1218.9999999999997726
 31
0.0
  0
LINE
  5
F2
100
AcDbEntity
100
AcDbLine
  8
0
 62
256
370
-1
  6
ByLayer
 10
4269.0
 20
1180.9999999999997726
 30
0.0
 11
4631.0
 21
1180.9999999999997726
 31
0.0
  0
LINE
  5
F3
100
AcDbEntity
100
AcDbLine
  8
0
 62
256
370
-1
  6
ByLayer
 10
4269.0
 20
580.9999999999998863
 30
0.0
 11
4269.0
 21
618.9999999999997726
 31
0.0
  0
LINE
  5
F4
100
AcDbEntity
100
AcDbLine
  8
0
 62
256
370
-1
  6
ByLayer
 10
4631.0
 20
580.9999999999996589
 30
0.0
 11
4631.0
 21
618.9999999999997726
 31
0.0
  0
LINE
  5
F5
100
AcDbEntity
100
AcDbLine
  8
0
 62
256
370
-1
  6
ByLayer
 10
4269.0
 20
618.9999999999997726
 30
0.0
 11
4631.0
 21
618.9999999999997726
 31
0.0
  0
LINE
  5
F6
100
AcDbEntity
100
AcDbLine
  8
0
 62
256
370
-1
  6
ByLayer
 10
4269.0
 20
580.9999999999998863
 30
0.0
 11
4631.0
 21
580.9999999999996589
 31
0.0
  0
LINE
  5
F7
100
AcDbEntity
100
AcDbLine
  8
0
 62
256
370
-1
  6
ByLayer
 10
4669.0
 20
580.9999999999998863
 30
0.0
 11
4669.0
 21
618.9999999999997726
 31
0.0
  0
LINE
  5
F8
100
AcDbEntity
100
AcDbLine
  8
0
 62
256
370
-1
  6
ByLayer
 10
5031.0
 20
580.9999999999996589
 30
0.0
 11
5031.0
 21
618.9999999999997726
 31
0.0
  0
LINE
  5
F9
100
AcDbEntity
100
AcDbLine
  8
0
 62
256
370
-1
  6
ByLayer
 10
4669.0
 20
618.9999999999997726
 30
0.0
 11
5031.0
 21
618.9999999999997726
 31
0.0
  0
LINE
  5
FA
100
AcDbEntity
100
AcDbLine
  8
0
 62
256
370
-1
  6
ByLayer
 10
4669.0
 20
580.9999999999998863
 30
0.0
 11
5031.0
 21
580.9999999999996589
 31
0.0
  0
LINE
  5
FB
100
AcDbEntity
100
AcDbLine
  8
0
 62
256
370
-1
  6
ByLayer
 10
4669.0
 20
1180.9999999999997726
 30
0.0
 11
4669.0
 21
1218.9999999999997726
 31
0.0
  0
LINE
  5
FC
100
AcDbEntity
100
AcDbLine
  8
0
 62
256
370
-1
  6
ByLayer
 10
5031.0
 20
1180.9999999999997726
 30
0.0
 11
5031.0
 21
1218.9999999999997726
 31
0.0
  0
LINE
  5
FD
100
AcDbEntity
100
AcDbLine
  8
0
 62
256
370
-1
  6
ByLayer
 10
4669.0
 20
1218.9999999999997726
 30
0.0
 11
5031.0
 21
1218.9999999999997726
 31
0.0
  0
LINE
  5
FE
100
AcDbEntity
100
AcDbLine
  8
0
 62
256
370
-1
  6
ByLayer
 10
4669.0
 20
1180.9999999999997726
 30
0.0
 11
5031.0
 21
1180.9999999999997726
 31
0.0
  0
LINE
  5
FF
100
AcDbEntity
100
AcDbLine
  8
0
 62
256
370
-1
  6
ByLayer
 10
4669.0
 20
1780.9999999999997726
 30
0.0
 11
4669.0
 21
1818.9999999999997726
 31
0.0
  0
LINE
  5
100
100
AcDbEntity
100
AcDbLine
  8
0
 62
256
370
-1
  6
ByLayer
 10
5031.0
 20
1780.9999999999997726
 30
0.0
 11
5031.0
 21
1818.9999999999997726
 31
0.0
  0
LINE
  5
101
100
AcDbEntity
100
AcDbLine
  8
0
 62
256
370
-1
  6
ByLayer
 10
4669.0
 20
1818.9999999999997726
 30
0.0
 11
5031.0
 21
1818.9999999999997726
 31
0.0
  0
LINE
  5
102
100
AcDbEntity
100
AcDbLine
  8
0
 62
256
370
-1
  6
ByLayer
 10
4669.0
 20
1780.9999999999997726
 30
0.0
 11
5031.0
 21
1780.9999999999997726
 31
0.0
  0
LINE
  5
103
100
AcDbEntity
100
AcDbLine
  8
0
 62
256
370
-1
  6
ByLayer
 10
1031.0000000000004547
 20
37.9999999999997371
 30
0.0
 11
1068.9999999999995453
 21
37.9999999999997371
 31
0.0
  0
LINE
  5
104
100
AcDbEntity
100
AcDbLine
  8
0
 62
256
370
-1
  6
ByLayer
 10
1068.9999999999995453
 20
37.9999999999997371
 30
0.0
 11
1069.0000000000004547
 21
2661.9999999999995453
 31
0.0
  0
LINE
  5
105
100
AcDbEntity
100
AcDbLine
  8
0
 62
256
370
-1
  6
ByLayer
 10
1069.0000000000004547
 20
2661.9999999999995453
 30
0.0
 11
1031.0000000000004547
 21
2661.9999999999995453
 31
0.0
  0
LINE
  5
106
100
AcDbEntity
100
AcDbLine
  8
0
 62
256
370
-1
  6
ByLayer
 10
1031.0000000000004547
 20
2661.9999999999995453
 30
0.0
 11
1031.0000000000004547
 21
37.9999999999997371
 31
0.0
  0
LINE
  5
107
100
AcDbEntity
100
AcDbLine
  8
0
 62
256
370
-1
  6
ByLayer
 10
1031.0
 20
580.9999999999997726
 30
0.0
 11
1031.0
 21
618.9999999999997726
 31
0.0
  0
LINE
  5
108
100
AcDbEntity
100
AcDbLine
  8
0
 62
256
370
-1
  6
ByLayer
 10
1031.0
 20
618.9999999999997726
 30
0.0
 11
688.0
 21
618.9999999999997726
 31
0.0
  0
LINE
  5
109
100
AcDbEntity
100
AcDbLine
  8
0
 62
256
370
-1
  6
ByLayer
 10
688.0
 20
580.9999999999997726
 30
0.0
 11
1031.0
 21
580.9999999999997726
 31
0.0
  0
LINE
  5
10A
100
AcDbEntity
100
AcDbLine
  8
0
 62
256
370
-1
  6
ByLayer
 10
688.0
 20
1180.9999999999997726
 30
0.0
 11
688.0
 21
1218.9999999999997726
 31
0.0
  0
LINE
  5
10B
100
AcDbEntity
100
AcDbLine
  8
0
 62
256
370
-1
  6
ByLayer
 10
1031.0
 20
1180.9999999999997726
 30
0.0
 11
1031.0
 21
1218.9999999999997726
 31
0.0
  0
LINE
  5
10C
100
AcDbEntity
100
AcDbLine
  8
0
 62
256
370
-1
  6
ByLayer
 10
1031.0
 20
1218.9999999999997726
 30
0.0
 11
688.0
 21
1218.9999999999997726
 31
0.0
  0
LINE
  5
10D
100
AcDbEntity
100
AcDbLine
  8
0
 62
256
370
-1
  6
ByLayer
 10
688.0
 20
1180.9999999999997726
 30
0.0
 11
1031.0
 21
1180.9999999999997726
 31
0.0
  0
LINE
  5
10E
100
AcDbEntity
100
AcDbLine
  8
0
 62
256
370
-1
  6
ByLayer
 10
688.0
 20
1780.9999999999997726
 30
0.0
 11
688.0
 21
1818.9999999999997726
 31
0.0
  0
LINE
  5
10F
100
AcDbEntity
100
AcDbLine
  8
0
 62
256
370
-1
  6
ByLayer
 10
1031.0
 20
1780.9999999999997726
 30
0.0
 11
1031.0
 21
1818.9999999999997726
 31
0.0
  0
LINE
  5
110
100
AcDbEntity
100
AcDbLine
  8
0
 62
256
370
-1
  6
ByLayer
 10
1031.0
 20
1818.9999999999997726
 30
0.0
 11
688.0
 21
1818.9999999999997726
 31
0.0
  0
LINE
  5
111
100
AcDbEntity
100
AcDbLine
  8
0
 62
256
370
-1
  6
ByLayer
 10
688.0
 20
1780.9999999999997726
 30
0.0
 11
1031.0
 21
1780.9999999999997726
 31
0.0
  0
LINE
  5
112
100
AcDbEntity
100
AcDbLine
  8
0
 62
256
370
-1
  6
ByLayer
 10
688.0
 20
2380.9999999999995453
 30
0.0
 11
688.0
 21
2418.9999999999995453
 31
0.0
  0
LINE
  5
113
100
AcDbEntity
100
AcDbLine
  8
0
 62
256
370
-1
  6
ByLayer
 10
1031.0
 20
2380.9999999999995453
 30
0.0
 11
1031.0
 21
2418.9999999999995453
 31
0.0
  0
LINE
  5
114
100
AcDbEntity
100
AcDbLine
  8
0
 62
256
370
-1
  6
ByLayer
 10
1031.0
 20
2418.9999999999995453
 30
0.0
 11
688.0
 21
2418.9999999999995453
 31
0.0
  0
LINE
  5
115
100
AcDbEntity
100
AcDbLine
  8
0
 62
256
370
-1
  6
ByLayer
 10
688.0
 20
2380.9999999999995453
 30
0.0
 11
1031.0
 21
2380.9999999999995453
 31
0.0
  0
LINE
  5
116
100
AcDbEntity
100
AcDbLine
  8
0
 62
256
370
-1
  6
ByLayer
 10
1069.0
 20
580.9999999999998863
 30
0.0
 11
1069.0
 21
618.9999999999997726
 31
0.0
  0
LINE
  5
117
100
AcDbEntity
100
AcDbLine
  8
0
 62
256
370
-1
  6
ByLayer
 10
1431.0
 20
580.9999999999996589
 30
0.0
 11
1431.0
 21
618.9999999999997726
 31
0.0
  0
LINE
  5
118
100
AcDbEntity
100
AcDbLine
  8
0
 62
256
370
-1
  6
ByLayer
 10
1069.0
 20
618.9999999999997726
 30
0.0
 11
1431.0
 21
618.9999999999997726
 31
0.0
  0
LINE
  5
119
100
AcDbEntity
100
AcDbLine
  8
0
 62
256
370
-1
  6
ByLayer
 10
1069.0
 20
580.9999999999998863
 30
0.0
 11
1431.0
 21
580.9999999999996589
 31
0.0
  0
LINE
  5
11A
100
AcDbEntity
100
AcDbLine
  8
0
 62
256
370
-1
  6
ByLayer
 10
1069.0
 20
1180.9999999999997726
 30
0.0
 11
1069.0
 21
1218.9999999999997726
 31
0.0
  0
LINE
  5
11B
100
AcDbEntity
100
AcDbLine
  8
0
 62
256
370
-1
  6
ByLayer
 10
1431.0
 20
1180.9999999999997726
 30
0.0
 11
1431.0
 21
1218.9999999999997726
 31
0.0
  0
LINE
  5
11C
100
AcDbEntity
100
AcDbLine
  8
0
 62
256
370
-1
  6
ByLayer
 10
1069.0
 20
1218.9999999999997726
 30
0.0
 11
1431.0
 21
1218.9999999999997726
 31
0.0
  0
LINE
  5
11D
100
AcDbEntity
100
AcDbLine
  8
0
 62
256
370
-1
  6
ByLayer
 10
1069.0
 20
1180.9999999999997726
 30
0.0
 11
1431.0
 21
1180.9999999999997726
 31
0.0
  0
LINE
  5
11E
100
AcDbEntity
100
AcDbLine
  8
0
 62
256
370
-1
  6
ByLayer
 10
1069.0
 20
1780.9999999999997726
 30
0.0
 11
1069.0
 21
1818.9999999999997726
 31
0.0
  0
LINE
  5
11F
100
AcDbEntity
100
AcDbLine
  8
0
 62
256
370
-1
  6
ByLayer
 10
1431.0
 20
1780.9999999999997726
 30
0.0
 11
1431.0
 21
1818.9999999999997726
 31
0.0
  0
LINE
  5
120
100
AcDbEntity
100
AcDbLine
  8
0
 62
256
370
-1
  6
ByLayer
 10
1069.0
 20
1818.9999999999997726
 30
0.0
 11
1431.0
 21
1818.9999999999997726
 31
0.0
  0
LINE
  5
121
100
AcDbEntity
100
AcDbLine
  8
0
 62
256
370
-1
  6
ByLayer
 10
1069.0
 20
1780.9999999999997726
 30
0.0
 11
1431.0
 21
1780.9999999999997726
 31
0.0
  0
LINE
  5
122
100
AcDbEntity
100
AcDbLine
  8
0
 62
256
370
-1
  6
ByLayer
 10
1069.0
 20
2380.9999999999995453
 30
0.0
 11
1069.0
 21
2418.9999999999995453
 31
0.0
  0
LINE
  5
123
100
AcDbEntity
100
AcDbLine
  8
0
 62
256
370
-1
  6
ByLayer
 10
1431.0
 20
2380.9999999999995453
 30
0.0
 11
1431.0
 21
2418.9999999999995453
 31
0.0
  0
LINE
  5
124
100
AcDbEntity
100
AcDbLine
  8
0
 62
256
370
-1
  6
ByLayer
 10
1069.0
 20
2418.9999999999995453
 30
0.0
 11
1431.0
 21
2418.9999999999995453
 31
0.0
  0
LINE
  5
125
100
AcDbEntity
100
AcDbLine
  8
0
 62
256
370
-1
  6
ByLayer
 10
1069.0
 20
2380.9999999999995453
 30
0.0
 11
1431.0
 21
2380.9999999999995453
 31
0.0
  0
LINE
  5
126
100
AcDbEntity
100
AcDbLine
  8
0
 62
256
370
-1
  6
ByLayer
 10
4669.0
 20
2380.9999999999995453
 30
0.0
 11
4669.0
 21
2418.9999999999995453
 31
0.0
  0
LINE
  5
127
100
AcDbEntity
100
AcDbLine
  8
0
 62
256
370
-1
  6
ByLayer
 10
5031.0
 20
2380.9999999999995453
 30
0.0
 11
5031.0
 21
2418.9999999999995453
 31
0.0
  0
LINE
  5
128
100
AcDbEntity
100
AcDbLine
  8
0
 62
256
370
-1
  6
ByLayer
 10
4669.0
 20
2418.9999999999995453
 30
0.0
 11
5031.0
 21
2418.9999999999995453
 31
0.0
  0
LINE
  5
129
100
AcDbEntity
100
AcDbLine
  8
0
 62
256
370
-1
  6
ByLayer
 10
4669.0
 20
2380.9999999999995453
 30
0.0
 11
5031.0
 21
2380.9999999999995453
 31
0.0
  0
LINE
  5
12A
100
AcDbEntity
100
AcDbLine
  8
0
 62
256
370
-1
  6
ByLayer
 10
650.0
 20
38.0000000000007105
 30
0.0
 11
0.0
 21
38.0000000000006679
 31
0.0
  0
LINE
  5
12B
100
AcDbEntity
100
AcDbLine
  8
0
 62
256
370
-1
  6
ByLayer
 10
650.0
 20
-0.0000000000002629
 30
0.0
 11
650.0
 21
38.0000000000007105
 31
0.0
  0
LINE
  5
12C
100
AcDbEntity
100
AcDbLine
  8
0
 62
256
370
-1
  6
ByLayer
 10
650.0
 20
-0.0000000000002629
 30
0.0
 11
0.0
 21
0.0
 31
0.0
  0
LINE
  5
12D
100
AcDbEntity
100
AcDbLine
  8
0
 62
256
370
-1
  6
ByLayer
 10
0.0
 20
0.0
 30
0.0
 11
0.0
 21
38.0000000000006679
 31
0.0
  0
LINE
  5
12E
100
AcDbEntity
100
AcDbLine
  8
0
 62
256
370
-1
  6
ByLayer
 10
38.0
 20
38.0000000000006679
 30
0.0
 11
0.0
 21
38.0000000000006679
 31
0.0
  0
LINE
  5
12F
100
AcDbEntity
100
AcDbLine
  8
0
 62
256
370
-1
  6
ByLayer
 10
0.0
 20
38.0000000000006679
 30
0.0
 11
0.0
 21
2271.9999999999995453
 31
0.0
  0
LINE
  5
130
100
AcDbEntity
100
AcDbLine
  8
0
 62
256
370
-1
  6
ByLayer
 10
38.0
 20
2271.9999999999995453
 30
0.0
 11
38.0
 21
38.0000000000006679
 31
0.0
  0
LINE
  5
131
100
AcDbEntity
100
AcDbLine
  8
0
 62
256
370
-1
  6
ByLayer
 10
650.0
 20
38.0000000000007603
 30
0.0
 11
612.0000000000004547
 21
38.0000000000007603
 31
0.0
  0
LINE
  5
132
100
AcDbEntity
100
AcDbLine
  8
0
 62
256
370
-1
  6
ByLayer
 10
612.0000000000004547
 20
38.0000000000007603
 30
0.0
 11
612.0000000000004547
 21
2271.9999999999995453
 31
0.0
  0
LINE
  5
133
100
AcDbEntity
100
AcDbLine
  8
0
 62
256
370
-1
  6
ByLayer
 10
650.0000000000004547
 20
2271.9999999999995453
 30
0.0
 11
650.0
 21
38.0000000000007603
 31
0.0
  0
LINE
  5
134
100
AcDbEntity
100
AcDbLine
  8
0
 62
256
370
-1
  6
ByLayer
 10
269.0
 20
37.9999999999997371
 30
0.0
 11
231.0
 21
37.9999999999997371
 31
0.0
  0
LINE
  5
135
100
AcDbEntity
100
AcDbLine
  8
0
 62
256
370
-1
  6
ByLayer
 10
231.0
 20
37.9999999999997371
 30
0.0
 11
231.0000000000002274
 21
2271.9999999999986358
 31
0.0
  0
LINE
  5
136
100
AcDbEntity
100
AcDbLine
  8
0
 62
256
370
-1
  6
ByLayer
 10
269.0
 20
2271.9999999999986358
 30
0.0
 11
269.0
 21
37.9999999999997371
 31
0.0
  0
LINE
  5
137
100
AcDbEntity
100
AcDbLine
  8
0
 62
256
370
-1
  6
ByLayer
 10
269.0
 20
580.9999999999998863
 30
0.0
 11
269.0
 21
618.9999999999997726
 31
0.0
  0
LINE
  5
138
100
AcDbEntity
100
AcDbLine
  8
0
 62
256
370
-1
  6
ByLayer
 10
612.0
 20
580.9999999999997726
 30
0.0
 11
612.0
 21
618.9999999999996589
 31
0.0
  0
LINE
  5
139
100
AcDbEntity
100
AcDbLine
  8
0
 62
256
370
-1
  6
ByLayer
 10
612.0
 20
618.9999999999996589
 30
0.0
 11
269.0
 21
618.9999999999997726
 31
0.0
  0
LINE
  5
13A
100
AcDbEntity
100
AcDbLine
  8
0
 62
256
370
-1
  6
ByLayer
 10
269.0
 20
580.9999999999998863
 30
0.0
 11
612.0
 21
580.9999999999997726
 31
0.0
  0
LINE
  5
13B
100
AcDbEntity
100
AcDbLine
  8
0
 62
256
370
-1
  6
ByLayer
 10
269.0
 20
1180.9999999999997726
 30
0.0
 11
269.0
 21
1218.9999999999997726
 31
0.0
  0
LINE
  5
13C
100
AcDbEntity
100
AcDbLine
  8
0
 62
256
370
-1
  6
ByLayer
 10
612.0
 20
1180.9999999999997726
 30
0.0
 11
612.0
 21
1218.9999999999997726
 31
0.0
  0
LINE
  5
13D
100
AcDbEntity
100
AcDbLine
  8
0
 62
256
370
-1
  6
ByLayer
 10
612.0
 20
1218.9999999999997726
 30
0.0
 11
269.0
 21
1218.9999999999997726
 31
0.0
  0
LINE
  5
13E
100
AcDbEntity
100
AcDbLine
  8
0
 62
256
370
-1
  6
ByLayer
 10
269.0
 20
1180.9999999999997726
 30
0.0
 11
612.0
 21
1180.9999999999997726
 31
0.0
  0
LINE
  5
13F
100
AcDbEntity
100
AcDbLine
  8
0
 62
256
370
-1
  6
ByLayer
 10
269.0
 20
1780.9999999999997726
 30
0.0
 11
269.0
 21
1818.9999999999997726
 31
0.0
  0
LINE
  5
140
100
AcDbEntity
100
AcDbLine
  8
0
 62
256
370
-1
  6
ByLayer
 10
612.0
 20
1780.9999999999997726
 30
0.0
 11
612.0
 21
1818.9999999999997726
 31
0.0
  0
LINE
  5
141
100
AcDbEntity
100
AcDbLine
  8
0
 62
256
370
-1
  6
ByLayer
 10
612.0
 20
1818.9999999999997726
 30
0.0
 11
269.0
 21
1818.9999999999997726
 31
0.0
  0
LINE
  5
142
100
AcDbEntity
100
AcDbLine
  8
0
 62
256
370
-1
  6
ByLayer
 10
269.0
 20
1780.9999999999997726
 30
0.0
 11
612.0
 21
1780.9999999999997726
 31
0.0
  0
LINE
  5
143
100
AcDbEntity
100
AcDbLine
  8
0
 62
256
370
-1
  6
ByLayer
 10
231.0
 20
1780.9999999999997726
 30
0.0
 11
231.0
 21
1818.9999999999997726
 31
0.0
  0
LINE
  5
144
100
AcDbEntity
100
AcDbLine
  8
0
 62
256
370
-1
  6
ByLayer
 10
38.0
 20
1780.9999999999997726
 30
0.0
 11
38.0
 21
1818.9999999999997726
 31
0.0
  0
LINE
  5
145
100
AcDbEntity
100
AcDbLine
  8
0
 62
256
370
-1
  6
ByLayer
 10
38.0
 20
1780.9999999999997726
 30
0.0
 11
231.0
 21
1780.9999999999997726
 31
0.0
  0
LINE
  5
146
100
AcDbEntity
100
AcDbLine
  8
0
 62
256
370
-1
  6
ByLayer
 10
38.0
 20
1818.9999999999997726
 30
0.0
 11
231.0
 21
1818.9999999999997726
 31
0.0
  0
LINE
  5
147
100
AcDbEntity
100
AcDbLine
  8
0
 62
256
370
-1
  6
ByLayer
 10
231.0
 20
580.9999999999996589
 30
0.0
 11
231.0
 21
618.9999999999997726
 31
0.0
  0
LINE
  5
148
100
AcDbEntity
100
AcDbLine
  8
0
 62
256
370
-1
  6
ByLayer
 10
38.0
 20
580.9999999999997726
 30
0.0
 11
38.0
 21
618.9999999999997726
 31
0.0
  0
LINE
  5
149
100
AcDbEntity
100
AcDbLine
  8
0
 62
256
370
-1
  6
ByLayer
 10
38.0
 20
580.9999999999997726
 30
0.0
 11
231.0
 21
580.9999999999996589
 31
0.0
  0
LINE
  5
14A
100
AcDbEntity
100
AcDbLine
  8
0
 62
256
370
-1
  6
ByLayer
 10
38.0
 20
618.9999999999997726
 30
0.0
 11
231.0
 21
618.9999999999997726
 31
0.0
  0
LINE
  5
14B
100
AcDbEntity
100
AcDbLine
  8
0
 62
256
370
-1
  6
ByLayer
 10
231.0
 20
1180.9999999999997726
 30
0.0
 11
231.0
 21
1218.9999999999997726
 31
0.0
  0
LINE
  5
14C
100
AcDbEntity
100
AcDbLine
  8
0
 62
256
370
-1
  6
ByLayer
 10
38.0
 20
1180.9999999999997726
 30
0.0
 11
38.0
 21
1218.9999999999997726
 31
0.0
  0
LINE
  5
14D
100
AcDbEntity
100
AcDbLine
  8
0
 62
256
370
-1
  6
ByLayer
 10
38.0
 20
1180.9999999999997726
 30
0.0
 11
231.0
 21
1180.9999999999997726
 31
0.0
  0
LINE
  5
14E
100
AcDbEntity
100
AcDbLine
  8
0
 62
256
370
-1
  6
ByLayer
 10
38.0
 20
1218.9999999999997726
 30
0.0
 11
231.0
 21
1218.9999999999997726
 31
0.0
  0
LINE
  5
14F
100
AcDbEntity
100
AcDbLine
  8
0
 62
256
370
-1
  6
ByLayer
 10
650.0
 20
2309.9999999999995453
 30
0.0
 11
0.0
 21
2309.9999999999995453
 31
0.0
  0
LINE
  5
150
100
AcDbEntity
100
AcDbLine
  8
0
 62
256
370
-1
  6
ByLayer
 10
650.0
 20
2271.9999999999995453
 30
0.0
 11
650.0
 21
2309.9999999999995453
 31
0.0
  0
LINE
  5
151
100
AcDbEntity
100
AcDbLine
  8
0
 62
256
370
-1
  6
ByLayer
 10
650.0
 20
2271.9999999999995453
 30
0.0
 11
0.0
 21
2271.9999999999995453
 31
0.0
  0
LINE
  5
152
100
AcDbEntity
100
AcDbLine
  8
0
 62
256
370
-1
  6
ByLayer
 10
0.0
 20
2271.9999999999995453
 30
0.0
 11
0.0
 21
2309.9999999999995453
 31
0.0
  0
LINE
  5
153
100
AcDbEntity
100
AcDbLine
  8
0
 62
256
370
-1
  6
ByLayer
 10
38.0
 20
2271.9999999999995453
 30
0.0
 11
0.0
 21
2271.9999999999995453
 31
0.0
  0
LINE
  5
154
100
AcDbEntity
100
AcDbLine
  8
0
 62
256
370
-1
  6
ByLayer
 10
650.0000000000004547
 20
2271.9999999999995453
 30
0.0
 11
612.0000000000004547
 21
2271.9999999999995453
 31
0.0
  0
LINE
  5
155
100
AcDbEntity
100
AcDbLine
  8
0
 62
256
370
-1
  6
ByLayer
 10
269.0
 20
2271.9999999999986358
 30
0.0
 11
231.0000000000002274
 21
2271.9999999999986358
 31
0.0
  0
LINE
  5
156
100
AcDbEntity
100
AcDbLine
  8
0
 62
256
370
-1
  6
ByLayer
 10
5360.0
 20
2661.9999999999818101
 30
0.0
 11
5360.0
 21
2700.0
 31
0.0
  0
LINE
  5
157
100
AcDbEntity
100
AcDbLine
  8
0
 62
256
370
-1
  6
ByLayer
 10
5322.0
 20
37.9999999999818101
 30
0.0
 11
5359.9999999999990905
 21
37.9999999999818101
 31
0.0
  0
LINE
  5
158
100
AcDbEntity
100
AcDbLine
  8
0
 62
256
370
-1
  6
ByLayer
 10
5360.0
 20
2661.9999999999818101
 30
0.0
 11
5322.0
 21
2661.9999999999818101
 31
0.0
  0
LINE
  5
159
100
AcDbEntity
100
AcDbLine
  8
0
 62
256
370
-1
  6
ByLayer
 10
5450.0000000000009095
 20
2412.0000000000004547
 30
0.0
 11
5450.0000000000009095
 21
2450.0000000000004547
 31
0.0
  0
LINE
  5
15A
100
AcDbEntity
100
AcDbLine
  8
0
 62
256
370
-1
  6
ByLayer
 10
5450.0
 20
2412.0
 30
0.0
 11
5412.0000000000009095
 21
2412.0000000000004547
 31
0.0
  0
LINE
  5
15B
100
AcDbEntity
100
AcDbLine
  8
0
 62
256
370
-1
  6
ByLayer
 10
5412.000000000001819
 20
2412.0000000000004547
 30
0.0
 11
5412.0000000000009095
 21
37.9999999999997371
 31
0.0
  0
LINE
  5
15C
100
AcDbEntity
100
AcDbLine
  8
0
 62
256
370
-1
  6
ByLayer
 10
5450.0
 20
37.9999999999997371
 30
0.0
 11
5450.0000000000009095
 21
2412.0000000000004547
 31
0.0
  0
LINE
  5
15D
100
AcDbEntity
100
AcDbLine
  8
0
 62
256
370
-1
  6
ByLayer
 10
5360.0
 20
2412.0000000000004547
 30
0.0
 11
5360.0
 21
2450.0000000000004547
 31
0.0
  0
LINE
  5
15E
100
AcDbEntity
100
AcDbLine
  8
0
 62
256
370
-1
  6
ByLayer
 10
5360.0
 20
2450.0000000000004547
 30
0.0
 11
5450.0000000000009095
 21
2450.0000000000004547
 31
0.0
  0
LINE
  5
15F
100
AcDbEntity
100
AcDbLine
  8
0
 62
256
370
-1
  6
ByLayer
 10
5360.0
 20
2412.0000000000004547
 30
0.0
 11
5450.0000000000009095
 21
2412.0000000000004547
 31
0.0
  0
LINE
  5
160
100
AcDbEntity
100
AcDbLine
  8
0
 62
256
370
-1
  6
ByLayer
 10
5069.0
 20
2381.0
 30
0.0
 11
5069.0
 21
2419.0
 31
0.0
  0
LINE
  5
161
100
AcDbEntity
100
AcDbLine
  8
0
 62
256
370
-1
  6
ByLayer
 10
5322.0
 20
2381.0
 30
0.0
 11
5322.0
 21
2419.0
 31
0.0
  0
LINE
  5
162
100
AcDbEntity
100
AcDbLine
  8
0
 62
256
370
-1
  6
ByLayer
 10
5069.0
 20
2419.0
 30
0.0
 11
5322.0
 21
2419.0
 31
0.0
  0
LINE
  5
163
100
AcDbEntity
100
AcDbLine
  8
0
 62
256
370
-1
  6
ByLayer
 10
5069.0
 20
2381.0
 30
0.0
 11
5322.0
 21
2381.0
 31
0.0
  0
LINE
  5
164
100
AcDbEntity
100
AcDbLine
  8
0
 62
256
370
-1
  6
ByLayer
 10
5069.0
 20
1781.0
 30
0.0
 11
5069.0
 21
1819.0
 31
0.0
  0
LINE
  5
165
100
AcDbEntity
100
AcDbLine
  8
0
 62
256
370
-1
  6
ByLayer
 10
5322.0
 20
1781.0
 30
0.0
 11
5322.0
 21
1819.0
 31
0.0
  0
LINE
  5
166
100
AcDbEntity
100
AcDbLine
  8
0
 62
256
370
-1
  6
ByLayer
 10
5069.0
 20
1819.0
 30
0.0
 11
5322.0
 21
1819.0
 31
0.0
  0
LINE
  5
167
100
AcDbEntity
100
AcDbLine
  8
0
 62
256
370
-1
  6
ByLayer
 10
5069.0
 20
1781.0
 30
0.0
 11
5322.0
 21
1781.0
 31
0.0
  0
LINE
  5
168
100
AcDbEntity
100
AcDbLine
  8
0
 62
256
370
-1
  6
ByLayer
 10
5069.0
 20
1181.0
 30
0.0
 11
5069.0
 21
1219.0
 31
0.0
  0
LINE
  5
169
100
AcDbEntity
100
AcDbLine
  8
0
 62
256
370
-1
  6
ByLayer
 10
5322.0
 20
1181.0
 30
0.0
 11
5322.0
 21
1219.0
 31
0.0
  0
LINE
  5
16A
100
AcDbEntity
100
AcDbLine
  8
0
 62
256
370
-1
  6
ByLayer
 10
5069.0
 20
1219.0
 30
0.0
 11
5322.0
 21
1219.0
 31
0.0
  0
LINE
  5
16B
100
AcDbEntity
100
AcDbLine
  8
0
 62
256
370
-1
  6
ByLayer
 10
5069.0
 20
1181.0
 30
0.0
 11
5322.0
 21
1181.0
 31
0.0
  0
LINE
  5
16C
100
AcDbEntity
100
AcDbLine
  8
0
 62
256
370
-1
  6
ByLayer
 10
5069.0
 20
581.0000000000001137
 30
0.0
 11
5069.0
 21
619.0
 31
0.0
  0
LINE
  5
16D
100
AcDbEntity
100
AcDbLine
  8
0
 62
256
370
-1
  6
ByLayer
 10
5322.0
 20
581.0
 30
0.0
 11
5322.0
 21
619.0
 31
0.0
  0
LINE
  5
16E
100
AcDbEntity
100
AcDbLine
  8
0
 62
256
370
-1
  6
ByLayer
 10
5069.0
 20
619.0
 30
0.0
 11
5322.0
 21
619.0
 31
0.0
  0
LINE
  5
16F
100
AcDbEntity
100
AcDbLine
  8
0
 62
256
370
-1
  6
ByLayer
 10
5069.0
 20
581.0000000000001137
 30
0.0
 11
5322.0
 21
581.0
 31
0.0
  0
LINE
  5
170
100
AcDbEntity
100
AcDbLine
  8
0
 62
256
370
-1
  6
ByLayer
 10
5360.0
 20
2374.0000000000004547
 30
0.0
 11
5360.0
 21
2412.0000000000004547
 31
0.0
  0
LINE
  5
171
100
AcDbEntity
100
AcDbLine
  8
0
 62
256
370
-1
  6
ByLayer
 10
5412.000000000001819
 20
2374.0000000000004547
 30
0.0
 11
5412.000000000001819
 21
2412.0000000000004547
 31
0.0
  0
LINE
  5
172
100
AcDbEntity
100
AcDbLine
  8
0
 62
256
370
-1
  6
ByLayer
 10
5360.0
 20
2412.0000000000004547
 30
0.0
 11
5412.000000000001819
 21
2412.0000000000004547
 31
0.0
  0
LINE
  5
173
100
AcDbEntity
100
AcDbLine
  8
0
 62
256
370
-1
  6
ByLayer
 10
5360.0
 20
2374.0000000000004547
 30
0.0
 11
5412.000000000001819
 21
2374.0000000000004547
 31
0.0
  0
LINE
  5
174
100
AcDbEntity
100
AcDbLine
  8
0
 62
256
370
-1
  6
ByLayer
 10
5359.9999999999990905
 20
581.0
 30
0.0
 11
5359.9999999999990905
 21
619.0
 31
0.0
  0
LINE
  5
175
100
AcDbEntity
100
AcDbLine
  8
0
 62
256
370
-1
  6
ByLayer
 10
5412.0000000000009095
 20
581.0
 30
0.0
 11
5412.0000000000009095
 21
619.0
 31
0.0
  0
LINE
  5
176
100
AcDbEntity
100
AcDbLine
  8
0
 62
256
370
-1
  6
ByLayer
 10
5359.9999999999990905
 20
619.0
 30
0.0
 11
5412.0000000000009095
 21
619.0
 31
0.0
  0
LINE
  5
177
100
AcDbEntity
100
AcDbLine
  8
0
 62
256
370
-1
  6
ByLayer
 10
5359.9999999999990905
 20
581.0
 30
0.0
 11
5412.0000000000009095
 21
581.0
 31
0.0
  0
LINE
  5
178
100
AcDbEntity
100
AcDbLine
  8
0
 62
256
370
-1
  6
ByLayer
 10
5359.9999999999990905
 20
1180.9999999999997726
 30
0.0
 11
5359.9999999999990905
 21
1218.9999999999997726
 31
0.0
  0
LINE
  5
179
100
AcDbEntity
100
AcDbLine
  8
0
 62
256
370
-1
  6
ByLayer
 10
5412.0000000000009095
 20
1180.9999999999997726
 30
0.0
 11
5412.0000000000009095
 21
1218.9999999999997726
 31
0.0
  0
LINE
  5
17A
100
AcDbEntity
100
AcDbLine
  8
0
 62
256
370
-1
  6
ByLayer
 10
5359.9999999999990905
 20
1218.9999999999997726
 30
0.0
 11
5412.0000000000009095
 21
1218.9999999999997726
 31
0.0
  0
LINE
  5
17B
100
AcDbEntity
100
AcDbLine
  8
0
 62
256
370
-1
  6
ByLayer
 10
5359.9999999999990905
 20
1180.9999999999997726
 30
0.0
 11
5412.0000000000009095
 21
1180.9999999999997726
 31
0.0
  0
LINE
  5
17C
100
AcDbEntity
100
AcDbLine
  8
0
 62
256
370
-1
  6
ByLayer
 10
5360.0
 20
1781.0
 30
0.0
 11
5360.0
 21
1819.0
 31
0.0
  0
LINE
  5
17D
100
AcDbEntity
100
AcDbLine
  8
0
 62
256
370
-1
  6
ByLayer
 10
5412.000000000001819
 20
1781.0
 30
0.0
 11
5412.000000000001819
 21
1819.0
 31
0.0
  0
LINE
  5
17E
100
AcDbEntity
100
AcDbLine
  8
0
 62
256
370
-1
  6
ByLayer
 10
5360.0
 20
1819.0
 30
0.0
 11
5412.000000000001819
 21
1819.0
 31
0.0
  0
LINE
  5
17F
100
AcDbEntity
100
AcDbLine
  8
0
 62
256
370
-1
  6
ByLayer
 10
5360.0
 20
1781.0
 30
0.0
 11
5412.000000000001819
 21
1781.0
 31
0.0
  0
LINE
  5
180
100
AcDbEntity
100
AcDbLine
  8
0
 62
256
370
-1
  6
ByLayer
 10
5359.9999999999990905
 20
37.9999999999996589
 30
0.0
 11
5360.0
 21
2661.9999999999995453
 31
0.0
  0
LINE
  5
181
100
AcDbEntity
100
AcDbLine
  8
0
 62
256
370
-1
  6
ByLayer
 10
5322.0
 20
2661.9999999999995453
 30
0.0
 11
5322.0
 21
37.9999999999996589
 31
0.0
  0
LINE
  5
182
100
AcDbEntity
100
AcDbLine
  8
0
 62
256
370
-1
  6
ByLayer
 10
4800.0
 20
-419.0000000000100044
 30
0.0
 11
4800.0
 21
-380.9999999999918145
 31
0.0
  0
LINE
  5
183
100
AcDbEntity
100
AcDbLine
  8
0
 62
256
370
-1
  6
ByLayer
 10
0.0
 20
-419.0000000000080718
 30
0.0
 11
4800.0
 21
-419.0000000000100044
 31
0.0
  0
LINE
  5
184
100
AcDbEntity
100
AcDbLine
  8
0
 62
256
370
-1
  6
ByLayer
 10
4800.0
 20
-380.9999999999918145
 30
0.0
 11
0.0
 21
-380.9999999999919282
 31
0.0
  0
LINE
  5
185
100
AcDbEntity
100
AcDbLine
  8
0
 62
256
370
-1
  6
ByLayer
 10
0.0
 20
-419.0000000000080718
 30
0.0
 11
0.0
 21
-380.9999999999919282
 31
0.0
  0
DIMENSION
  5
186
100
AcDbEntity
  8
dimensions
 62
256
370
-1
  6
ByLayer
100
AcDbDimension
 10
4800.0
 20
-351.3001680501278088
 30
0.0
 11
2400.0
 21
-313.8001680501278088
 31
0.0
 70
0
 71
5
 72
0
 41
1.0
 42
0.0
  1

  3
Standard
100
AcDbAlignedDimension
 13
0.0
 23
-380.9999999999919282
 33
0.0
 14
4800.0
 24
-380.9999999999918145
 34
0.0
 50
0.0
100
AcDbRotatedDimension
  0
LINE
  5
187
100
AcDbEntity
100
AcDbLine
  8
0
 62
256
370
-1
  6
ByLayer
 10
-281.0000000000001137
 20
0.0
 30
0.0
 11
-318.9999999999998863
 21
0.0
 31
0.0
  0
LINE
  5
188
100
AcDbEntity
100
AcDbLine
  8
0
 62
256
370
-1
  6
ByLayer
 10
-318.9999999999998863
 20
0.0
 30
0.0
 11
-318.9999999999998295
 21
2233.9999999999990905
 31
0.0
  0
LINE
  5
189
100
AcDbEntity
100
AcDbLine
  8
0
 62
256
370
-1
  6
ByLayer
 10
-280.9999999999998863
 20
2233.9999999999990905
 30
0.0
 11
-281.0000000000001137
 21
0.0
 31
0.0
  0
LINE
  5
18A
100
AcDbEntity
100
AcDbLine
  8
0
 62
256
370
-1
  6
ByLayer
 10
-280.9999999999998863
 20
2233.9999999999990905
 30
0.0
 11
-318.9999999999998295
 21
2233.9999999999990905
 31
0.0
  0
LINE
  5
18B
100
AcDbEntity
100
AcDbLine
  8
0
 62
256
370
-1
  6
ByLayer
 10
-518.9999999999995453
 20
0.0
 30
0.0
 11
-481.0000000000004547
 21
0.0
 31
0.0
  0
LINE
  5
18C
100
AcDbEntity
100
AcDbLine
  8
0
 62
256
370
-1
  6
ByLayer
 10
-480.9999999999996589
 20
2374.0
 30
0.0
 11
-518.9999999999987494
 21
2374.0000000000009095
 31
0.0
  0
LINE
  5
18D
100
AcDbEntity
100
AcDbLine
  8
0
 62
256
370
-1
  6
ByLayer
 10
-518.9999999999979536
 20
2374.0000000000009095
 30
0.0
 11
-518.9999999999995453
 21
0.0
 31
0.0
  0
LINE
  5
18E
100
AcDbEntity
100
AcDbLine
  8
0
 62
256
370
-1
  6
ByLayer
 10
-481.0000000000004547
 20
0.0
 30
0.0
 11
-480.9999999999986358
 21
2374.0000000000009095
 31
0.0
  0
LINE
  5
18F
100
AcDbEntity
100
AcDbLine
  8
0
 62
256
370
-1
  6
ByLayer
 10
-518.9999999999977263
 20
2336.0000000000009095
 30
0.0
 11
-518.9999999999979536
 21
2374.0000000000009095
 31
0.0
  0
LINE
  5
190
100
AcDbEntity
100
AcDbLine
  8
0
 62
256
370
-1
  6
ByLayer
 10
-718.9999999999990905
 20
0.0
 30
0.0
 11
-681.0000000000009095
 21
0.0
 31
0.0
  0
LINE
  5
191
100
AcDbEntity
100
AcDbLine
  8
0
 62
256
370
-1
  6
ByLayer
 10
-680.9999999999990905
 20
2624.0
 30
0.0
 11
-718.9999999999990905
 21
2624.0
 31
0.0
  0
LINE
  5
192
100
AcDbEntity
100
AcDbLine
  8
0
 62
256
370
-1
  6
ByLayer
 10
-681.0
 20
0.0000000000179625
 30
0.0
 11
-680.9999999999992042
 21
2624.0000000000181899
 31
0.0
  0
LINE
  5
193
100
AcDbEntity
100
AcDbLine
  8
0
 62
256
370
-1
  6
ByLayer
 10
-718.9999999999990905
 20
2624.0000000000181899
 30
0.0
 11
-719.0
 21
0.0000000000179625
 31
0.0
  0
DIMENSION
  5
194
100
AcDbEntity
  8
dimensions
 62
256
370
-1
  6
ByLayer
100
AcDbDimension
 10
-360.0
 20
0.000000000000005
 30
0.0
 11
-397.5
 21
1116.9999999999995453
 31
0.0
 70
1
 71
5
 72
0
 41
1.0
 42
0.0
  1

  3
Standard
100
AcDbAlignedDimension
 13
-318.9999999999998863
 23
0.0
 33
0.0
 14
-318.9999999999998295
 24
2233.9999999999990905
 34
0.0
  0
DIMENSION
  5
195
100
AcDbEntity
  8
dimensions
 62
256
370
-1
  6
ByLayer
100
AcDbDimension
 10
-559.7766237563505456
 20
0.0000000000000412
 30
0.0
 11
-597.2766237563497498
 21
1187.0000000000004547
 31
0.0
 70
1
 71
5
 72
0
 41
1.0
 42
0.0
  1

  3
Standard
100
AcDbAlignedDimension
 13
-518.9999999999995453
 23
0.0
 33
0.0
 14
-518.9999999999979536
 24
2374.0000000000009095
 34
0.0
  0
DIMENSION
  5
196
100
AcDbEntity
  8
dimensions
 62
256
370
-1
  6
ByLayer
100
AcDbDimension
 10
-756.7817115034712288
 20
0.000000000000196
 30
0.0
 11
-794.281711503470774
 21
1312.0
 31
0.0
 70
1
 71
5
 72
0
 41
1.0
 42
0.0
  1

  3
Standard
100
AcDbAlignedDimension
 13
-719.0
 23
0.0000000000001914
 33
0.0
 14
-718.9999999999990905
 24
2624.0
 34
0.0
  0
MTEXT
  5
197
100
AcDbEntity
100
AcDbMText
  8
dimensions
 62
256
370
-1
  6
ByLayer
 10
-300.0
 20
-200.0
 30
0.0
 40
50.0
 41
100.0
 71
5
 72
2
  1
3
  7
standard
 50
0.0
 73
0
 44
1.0
  0
MTEXT
  5
198
100
AcDbEntity
100
AcDbMText
  8
dimensions
 62
256
370
-1
  6
ByLayer
 10
-500.0
 20
-200.0
 30
0.0
 40
50.0
 41
100.0
 71
5
 72
2
  1
1
  7
standard
 50
0.0
 73
0
 44
1.0
  0
MTEXT
  5
199
100
AcDbEntity
100
AcDbMText
  8
dimensions
 62
256
370
-1
  6
ByLayer
 10
-700.0
 20
-200.0
 30
0.0
 40
50.0
 41
100.0
 71
5
 72
2
  1
13
  7
standard
 50
0.0
 73
0
 44
1.0
  0
LINE
  5
19A
100
AcDbEntity
100
AcDbLine
  8
0
 62
256
370
-1
  6
ByLayer
 10
598.0
 20
2661.9999999999968168
 30
0.0
 11
560.0
 21
2662.0000000000009095
 31
0.0
  0
LINE
  5
19B
100
AcDbEntity
100
AcDbLine
  8
0
 62
256
370
-1
  6
ByLayer
 10
560.0
 20
2662.0000000000009095
 30
0.0
 11
560.0
 21
2699.9999999999995453
 31
0.0
  0
LINE
  5
19C
100
AcDbEntity
100
AcDbLine
  8
0
 62
256
370
-1
  6
ByLayer
 10
560.0
 20
2662.0000000000009095
 30
0.0
 11
5360.0
 21
2661.9999999999804459
 31
0.0
  0
LINE
  5
19D
100
AcDbEntity
100
AcDbLine
  8
0
 62
256
370
-1
  6
ByLayer
 10
5360.0
 20
2700.0
 30
0.0
 11
560.0
 21
2699.9999999999995453
 31
0.0
  0
LINE
  5
19E
100
AcDbEntity
100
AcDbLine
  8
0
 62
256
370
-1
  6
ByLayer
 10
598.0
 20
2309.9999999999986358
 30
0.0
 11
560.0
 21
2309.9999999999972715
 31
0.0
  0
LINE
  5
19F
100
AcDbEntity
100
AcDbLine
  8
0
 62
256
370
-1
  6
ByLayer
 10
598.0
 20
2309.9999999999986358
 30
0.0
 11
598.0
 21
2661.9999999999968168
 31
0.0
  0
LINE
  5
1A0
100
AcDbEntity
100
AcDbLine
  8
0
 62
256
370
-1
  6
ByLayer
 10
560.0
 20
2309.9999999999972715
 30
0.0
 11
560.0
 21
2662.0000000000009095
 31
0.0
  0
MTEXT
  5
1A1
100
AcDbEntity
100
AcDbMText
  8
notes
 62
256
370
-1
  6
ByLayer
 10
-200.0
 20
-400.0
 30
0.0
 40
50.0
 41
100.0
 71
5
 72
2
  1
2
  7
standard
 50
0.0
 73
0
 44
1.0
  0
LINE
  5
1A2
100
AcDbEntity
100
AcDbLine
  8
0
 62
256
370
-1
  6
ByLayer
 10
650.0
 20
-580.9999999999995453
 30
0.0
 11
0.0
 21
-580.9999999999995453
 31
0.0
  0
LINE
  5
1A3
100
AcDbEntity
100
AcDbLine
  8
0
 62
256
370
-1
  6
ByLayer
 10
650.0
 20
-619.0000000000005684
 30
0.0
 11
650.0
 21
-580.9999999999995453
 31
0.0
  0
LINE
  5
1A4
100
AcDbEntity
100
AcDbLine
  8
0
 62
256
370
-1
  6
ByLayer
 10
650.0
 20
-619.0000000000005684
 30
0.0
 11
0.0
 21
-619.0000000000003411
 31
0.0
  0
LINE
  5
1A5
100
AcDbEntity
100
AcDbLine
  8
0
 62
256
370
-1
  6
ByLayer
 10
0.0
 20
-619.0000000000003411
 30
0.0
 11
0.0
 21
-580.9999999999995453
 31
0.0
  0
LINE
  5
1A6
100
AcDbEntity
100
AcDbLine
  8
0
 62
256
370
-1
  6
ByLayer
 10
-0.0000000000000071
 20
-818.9999999999998863
 30
0.0
 11
0.0000000000000071
 21
-781.0
 31
0.0
  0
LINE
  5
1A7
100
AcDbEntity
100
AcDbLine
  8
0
 62
256
370
-1
  6
ByLayer
 10
253.0
 20
-819.0
 30
0.0
 11
253.0
 21
-781.0
 31
0.0
  0
LINE
  5
1A8
100
AcDbEntity
100
AcDbLine
  8
0
 62
256
370
-1
  6
ByLayer
 10
0.0000000000000071
 20
-781.0
 30
0.0
 11
253.0
 21
-781.0
 31
0.0
  0
LINE
  5
1A9
100
AcDbEntity
100
AcDbLine
  8
0
 62
256
370
-1
  6
ByLayer
 10
-0.0000000000000071
 20
-818.9999999999998863
 30
0.0
 11
253.0
 21
-819.0
 31
0.0
  0
LINE
  5
1AA
100
AcDbEntity
100
AcDbLine
  8
0
 62
256
370
-1
  6
ByLayer
 10
0.0
 20
-1019.0
 30
0.0
 11
0.0
 21
-981.0
 31
0.0
  0
LINE
  5
1AB
100
AcDbEntity
100
AcDbLine
  8
0
 62
256
370
-1
  6
ByLayer
 10
362.0
 20
-1019.0000000000002274
 30
0.0
 11
362.0
 21
-981.0
 31
0.0
  0
LINE
  5
1AC
100
AcDbEntity
100
AcDbLine
  8
0
 62
256
370
-1
  6
ByLayer
 10
0.0
 20
-981.0
 30
0.0
 11
362.0
 21
-981.0
 31
0.0
  0
LINE
  5
1AD
100
AcDbEntity
100
AcDbLine
  8
0
 62
256
370
-1
  6
ByLayer
 10
0.0
 20
-1019.0
 30
0.0
 11
362.0
 21
-1019.0000000000002274
 31
0.0
  0
LINE
  5
1AE
100
AcDbEntity
100
AcDbLine
  8
0
 62
256
370
-1
  6
ByLayer
 10
193.0
 20
-1219.0
 30
0.0
 11
193.0
 21
-1181.0
 31
0.0
  0
LINE
  5
1AF
100
AcDbEntity
100
AcDbLine
  8
0
 62
256
370
-1
  6
ByLayer
 10
0.0
 20
-1219.0
 30
0.0
 11
0.0
 21
-1181.0
 31
0.0
  0
LINE
  5
1B0
100
AcDbEntity
100
AcDbLine
  8
0
 62
256
370
-1
  6
ByLayer
 10
0.0
 20
-1219.0
 30
0.0
 11
193.0
 21
-1219.0
 31
0.0
  0
LINE
  5
1B1
100
AcDbEntity
100
AcDbLine
  8
0
 62
256
370
-1
  6
ByLayer
 10
0.0
 20
-1181.0
 30
0.0
 11
193.0
 21
-1181.0
 31
0.0
  0
LINE
  5
1B2
100
AcDbEntity
100
AcDbLine
  8
0
 62
256
370
-1
  6
ByLayer
 10
-0.0000000000000036
 20
-1419.0
 30
0.0
 11
0.0000000000000036
 21
-1381.0
 31
0.0
  0
LINE
  5
1B3
100
AcDbEntity
100
AcDbLine
  8
0
 62
256
370
-1
  6
ByLayer
 10
52.000000000001819
 20
-1419.0
 30
0.0
 11
52.000000000001819
 21
-1381.0
 31
0.0
  0
LINE
  5
1B4
100
AcDbEntity
100
AcDbLine
  8
0
 62
256
370
-1
  6
ByLayer
 10
0.0000000000000036
 20
-1381.0
 30
0.0
 11
52.000000000001819
 21
-1381.0
 31
0.0
  0
LINE
  5
1B5
100
AcDbEntity
100
AcDbLine
  8
0
 62
256
370
-1
  6
ByLayer
 10
-0.0000000000000036
 20
-1419.0
 30
0.0
 11
52.000000000001819
 21
-1419.0
 31
0.0
  0
LINE
  5
1B6
100
AcDbEntity
100
AcDbLine
  8
0
 62
256
370
-1
  6
ByLayer
 10
90.0000000000009237
 20
-1619.0
 30
0.0
 11
90.0000000000009095
 21
-1581.0
 31
0.0
  0
LINE
  5
1B7
100
AcDbEntity
100
AcDbLine
  8
0
 62
256
370
-1
  6
ByLayer
 10
-0.0000000000000036
 20
-1619.0
 30
0.0
 11
0.0000000000000036
 21
-1581.0
 31
0.0
  0
LINE
  5
1B8
100
AcDbEntity
100
AcDbLine
  8
0
 62
256
370
-1
  6
ByLayer
 10
0.0000000000000036
 20
-1581.0
 30
0.0
 11
90.0000000000009095
 21
-1581.0
 31
0.0
  0
DIMENSION
  5
1B9
100
AcDbEntity
  8
dimensions
 62
256
370
-1
  6
ByLayer
100
AcDbDimension
 10
0.0000000000000027
 20
-537.3639290152284502
 30
0.0
 11
325.0
 21
-499.8639290152284502
 31
0.0
 70
1
 71
5
 72
0
 41
1.0
 42
0.0
  1

  3
Standard
100
AcDbAlignedDimension
 13
0.0
 23
-580.9999999999995453
 33
0.0
 14
650.0
 24
-580.9999999999995453
 34
0.0
  0
DIMENSION
  5
1BA
100
AcDbEntity
  8
dimensions
 62
256
370
-1
  6
ByLayer
100
AcDbDimension
 10
0.0000000000000096
 20
-740.3507106374178193
 30
0.0
 11
126.5
 21
-702.8507106374178193
 31
0.0
 70
1
 71
5
 72
0
 41
1.0
 42
0.0
  1

  3
Standard
100
AcDbAlignedDimension
 13
0.0000000000000071
 23
-781.0
 33
0.0
 14
253.0
 24
-781.0
 34
0.0
  0
DIMENSION
  5
1BB
100
AcDbEntity
  8
dimensions
 62
256
370
-1
  6
ByLayer
100
AcDbDimension
 10
0.0000000000000018
 20
-951.9215218251388251
 30
0.0
 11
181.0
 21
-914.4215218251388251
 31
0.0
 70
1
 71
5
 72
0
 41
1.0
 42
0.0
  1

  3
Standard
100
AcDbAlignedDimension
 13
0.0
 23
-981.0
 33
0.0
 14
362.0
 24
-981.0
 34
0.0
  0
DIMENSION
  5
1BC
100
AcDbEntity
  8
dimensions
 62
256
370
-1
  6
ByLayer
100
AcDbDimension
 10
0.0000000000000022
 20
-1144.6598825037990537
 30
0.0
 11
96.5
 21
-1107.1598825037990537
 31
0.0
 70
1
 71
5
 72
0
 41
1.0
 42
0.0
  1

  3
Standard
100
AcDbAlignedDimension
 13
0.0
 23
-1181.0
 33
0.0
 14
193.0
 24
-1181.0
 34
0.0
  0
DIMENSION
  5
1BD
100
AcDbEntity
  8
dimensions
 62
256
370
-1
  6
ByLayer
100
AcDbDimension
 10
0.0000000000000057
 20
-1346.2259543585826123
 30
0.0
 11
95.0555555555573761
 21
-1308.7259543585826123
 31
0.0
 70
1
 71
5
 72
0
 41
1.0
 42
0.0
  1

  3
Standard
100
AcDbAlignedDimension
 13
0.0000000000000036
 23
-1381.0
 33
0.0
 14
52.000000000001819
 24
-1381.0
 34
0.0
  0
DIMENSION
  5
1BE
100
AcDbEntity
  8
dimensions
 62
256
370
-1
  6
ByLayer
100
AcDbDimension
 10
0.0000000000000056
 20
-1548.5276688113751788
 30
0.0
 11
45.0000000000004547
 21
-1511.0276688113751788
 31
0.0
 70
1
 71
5
 72
0
 41
1.0
 42
0.0
  1

  3
Standard
100
AcDbAlignedDimension
 13
0.0000000000000036
 23
-1581.0
 33
0.0
 14
90.0000000000009095
 24
-1581.0
 34
0.0
  0
MTEXT
  5
1BF
100
AcDbEntity
100
AcDbMText
  8
dimensions
 62
256
370
-1
  6
ByLayer
 10
-200.0
 20
-1600.0
 30
0.0
 40
50.0
 41
100.0
 71
5
 72
2
  1
1
  7
standard
 50
0.0
 73
0
 44
1.0
  0
MTEXT
  5
1C0
100
AcDbEntity
100
AcDbMText
  8
dimensions
 62
256
370
-1
  6
ByLayer
 10
-200.0
 20
-1400.0
 30
0.0
 40
50.0
 41
100.0
 71
5
 72
2
  1
4
  7
standard
 50
0.0
 73
0
 44
1.0
  0
MTEXT
  5
1C1
100
AcDbEntity
100
AcDbMText
  8
dimensions
 62
256
370
-1
  6
ByLayer
 10
-200.0
 20
-1200.0
 30
0.0
 40
50.0
 41
100.0
 71
5
 72
2
  1
3
  7
standard
 50
0.0
 73
0
 44
1.0
  0
MTEXT
  5
1C2
100
AcDbEntity
100
AcDbMText
  8
dimensions
 62
256
370
-1
  6
ByLayer
 10
-200.0
 20
-600.0
 30
0.0
 40
50.0
 41
100.0
 71
5
 72
2
  1
2
  7
standard
 50
0.0
 73
0
 44
1.0
  0
MTEXT
  5
1C3
100
AcDbEntity
100
AcDbMText
  8
dimensions
 62
256
370
-1
  6
ByLayer
 10
-200.0
 20
-800.0
 30
0.0
 40
50.0
 41
100.0
 71
5
 72
2
  1
4
  7
standard
 50
0.0
 73
0
 44
1.0
  0
MTEXT
  5
1C4
100
AcDbEntity
100
AcDbMText
  8
dimensions
 62
256
370
-1
  6
ByLayer
 10
-200.0
 20
-1000.0
 30
0.0
 40
50.0
 41
100.0
 71
5
 72
2
  1
48
  7
standard
 50
0.0
 73
0
 44
1.0
  0
LINE
  5
1C5
100
AcDbEntity
100
AcDbLine
  8
0
 62
256
370
-1
  6
ByLayer
 10
-0.0000000000000036
 20
-1619.0
 30
0.0
 11
90.0000000000009237
 21
-1619.0
 31
0.0
  0
MTEXT
  5
1C6
100
AcDbEntity
100
AcDbMText
  8
notes
 62
256
370
-1
  6
ByLayer
 10
2400.0
 20
-800.0
 30
0.0
 40
80.0
 41
100.0
 71
5
 72
0
  1
Wall\~B
  7
standard
 50
0.0
 73
1
 44
1.0
  0
ENDSEC
  0
SECTION
  2
OBJECTS
  0
DICTIONARY
  5
C
100
AcDbDictionary
280
0
281
1
  3
ACAD_GROUP
350
D
  3
ACAD_LAYOUT
350
1A
  3
ACAD_MLINESTYLE
350
17
  3
ACAD_PLOTSETTINGS
350
19
  3
ACAD_PLOTSTYLENAME
350
E
  3
AcDbVariableDictionary
350
1C7
  0
DICTIONARY
  5
D
100
AcDbDictionary
280
0
281
1
  0
ACDBDICTIONARYWDFLT
  5
E
100
AcDbDictionary
281
1
  3
Normal
350
F
100
AcDbDictionaryWithDefault
340
F
  0
ACDBPLACEHOLDER
  5
F
  0
DICTIONARY
  5
17
100
AcDbDictionary
280
0
281
1
  3
Standard
350
18
  0
MLINESTYLE
  5
18
100
AcDbMlineStyle
  2
STANDARD
 70
0
  3

 62
256
 51
90.0
 52
90.0
 71
2
 49
0.5
 62
256
  6
BYLAYER
 49
-0.5
 62
256
  6
BYLAYER
  0
DICTIONARY
  5
19
100
AcDbDictionary
280
0
281
1
  0
DICTIONARY
  5
1A
100
AcDbDictionary
281
1
  3
Layout1
350
1E
  3
Layout2
350
26
  3
Model
350
22
  0
LAYOUT
  5
1E
100
AcDbPlotSettings
  1

  2
C:\Program Files\AutoCAD 2002\plotters\DWF ePlot (optimized for plotting).pc3
  4

  6

 40
0.0
 41
0.0
 42
0.0
 43
0.0
 44
0.0
 45
0.0
 46
0.0
 47
0.0
 48
0.0
 49
0.0
140
0.0
141
0.0
142
1.0
143
1.0
 70
688
 72
0
 73
0
 74
5
  7

 75
16
147
1.0
148
0.0
149
0.0
100
AcDbLayout
  1
Layout1
 70
1
 71
1
 10
0.0
 20
0.0
 11
420.0
 21
297.0
 12
0.0
 22
0.0
 32
0.0
 14
100000000000000000000.0
 24
100000000000000000000.0
 34
100000000000000000000.0
 15
-100000000000000000000.0
 25
-100000000000000000000.0
 35
-100000000000000000000.0
146
0.0
 13
0.0
 23
0.0
 33
0.0
 16
1.0
 26
0.0
 36
0.0
 17
0.0
 27
1.0
 37
0.0
 76
0
330
1B
  0
LAYOUT
  5
22
100
AcDbPlotSettings
  1

  2
C:\Program Files\AutoCAD 2002\plotters\DWF ePlot (optimized for plotting).pc3
  4

  6

 40
0.0
 41
0.0
 42
0.0
 43
0.0
 44
0.0
 45
0.0
 46
0.0
 47
0.0
 48
0.0
 49
0.0
140
0.0
141
0.0
142
1.0
143
1.0
 70
1712
 72
0
 73
0
 74
0
  7

 75
0
147
1.0
148
0.0
149
0.0
100
AcDbLayout
  1
Model
 70
1
 71
0
 10
0.0
 20
0.0
 11
12.0
 21
9.0
 12
0.0
 22
0.0
 32
0.0
 14
0.0
 24
0.0
 34
0.0
 15
0.0
 25
0.0
 35
0.0
146
0.0
 13
0.0
 23
0.0
 33
0.0
 16
1.0
 26
0.0
 36
0.0
 17
0.0
 27
1.0
 37
0.0
 76
0
330
1F
  0
LAYOUT
  5
26
100
AcDbPlotSettings
  1

  2
C:\Program Files\AutoCAD 2002\plotters\DWF ePlot (optimized for plotting).pc3
  4

  6

 40
0.0
 41
0.0
 42
0.0
 43
0.0
 44
0.0
 45
0.0
 46
0.0
 47
0.0
 48
0.0
 49
0.0
140
0.0
141
0.0
142
1.0
143
1.0
 70
688
 72
0
 73
0
 74
5
  7

 75
16
147
1.0
148
0.0
149
0.0
100
AcDbLayout
  1
Layout2
 70
1
 71
2
 10
0.0
 20
0.0
 11
12.0
 21
9.0
 12
0.0
 22
0.0
 32
0.0
 14
0.0
 24
0.0
 34
0.0
 15
0.0
 25
0.0
 35
0.0
146
0.0
 13
0.0
 23
0.0
 33
0.0
 16
1.0
 26
0.0
 36
0.0
 17
0.0
 27
1.0
 37
0.0
 76
0
330
23
  0
DICTIONARY
  5
1C7
100
AcDbDictionary
281
1
  3
DIMASSOC
350
1C9
  3
HIDETEXT
350
1C8
  0
DICTIONARYVAR
  5
1C8
100
DictionaryVariables
280
0
  1
2
  0
DICTIONARYVAR
  5
1C9
100
DictionaryVariables
280
0
  1
1
  0
ENDSEC
  0
EOF
