999
dxflib 2.2.0.0
  0
SECTION
  2
HEADER
  9
$ACADVER
  1
AC1015
  9
$HANDSEED
  5
FFFF
  9
$DIMASZ
 40
2.5
  9
$PLIMMIN
 10
0.0
 20
0.0
  9
$DIMEXE
 40
1.25
  9
$DIMGAP
 40
0.625
  9
$PLIMMAX
 10
210.0
 20
297.0
  9
$INSUNITS
 70
4
  9
$DIMEXO
 40
0.625
  9
$DIMTXT
 40
2.5
  0
ENDSEC
  0
SECTION
  2
TABLES
  0
TABLE
  2
VPORT
  5
8
100
AcDbSymbolTable
 70
1
  0
VPORT
  5
30
100
AcDbSymbolTableRecord
100
AcDbViewportTableRecord
  2
*Active
 70
0
 10
0.0
 20
0.0
 11
1.0
 21
1.0
 12
286.3055555555554861
 22
148.5
 13
0.0
 23
0.0
 14
10.0
 24
10.0
 15
10.0
 25
10.0
 16
0.0
 26
0.0
 36
1.0
 17
0.0
 27
0.0
 37
0.0
 40
297.0
 41
1.92798353909465
 42
50.0
 43
0.0
 44
0.0
 50
0.0
 51
0.0
 71
0
 72
100
 73
1
 74
3
 75
1
 76
1
 77
0
 78
0
281
0
 65
1
110
0.0
120
0.0
130
0.0
111
1.0
121
0.0
131
0.0
112
0.0
122
1.0
132
0.0
 79
0
146
0.0
  0
ENDTAB
  0
TABLE
  2
LTYPE
  5
5
100
AcDbSymbolTable
 70
21
  0
LTYPE
  5
14
100
AcDbSymbolTableRecord
100
AcDbLinetypeTableRecord
  2
ByBlock
 70
0
  3

 72
65
 73
0
 40
0.0
  0
LTYPE
  5
15
100
AcDbSymbolTableRecord
100
AcDbLinetypeTableRecord
  2
ByLayer
 70
0
  3

 72
65
 73
0
 40
0.0
  0
LTYPE
  5
16
100
AcDbSymbolTableRecord
100
AcDbLinetypeTableRecord
  2
CONTINUOUS
 70
0
  3
Solid line
 72
65
 73
0
 40
0.0
  0
LTYPE
  5
31
100
AcDbSymbolTableRecord
100
AcDbLinetypeTableRecord
  2
DOT
 70
0
  3
Dot . . . . . . . . . . . . . . . . . . . . . .
 72
65
 73
2
 40
6.3499999999999996
 49
0.0
 74
0
 49
-6.3499999999999996
 74
0
  0
LTYPE
  5
32
100
AcDbSymbolTableRecord
100
AcDbLinetypeTableRecord
  2
DOT2
 70
0
  3
Dot (.5x) .....................................
 72
65
 73
2
 40
3.1749999999999998
 49
0.0
 74
0
 49
-3.1749999999999998
 74
0
  0
LTYPE
  5
33
100
AcDbSymbolTableRecord
100
AcDbLinetypeTableRecord
  2
DOTX2
 70
0
  3
Dot (2x) .  .  .  .  .  .  .  .  .  .  .  .  .
 72
65
 73
2
 40
12.6999999999999993
 49
0.0
 74
0
 49
-12.6999999999999993
 74
0
  0
LTYPE
  5
34
100
AcDbSymbolTableRecord
100
AcDbLinetypeTableRecord
  2
DASHED
 70
0
  3
Dashed __ __ __ __ __ __ __ __ __ __ __ __ __ _
 72
65
 73
2
 40
19.0500000000000007
 49
12.6999999999999993
 74
0
 49
-6.3499999999999996
 74
0
  0
LTYPE
  5
35
100
AcDbSymbolTableRecord
100
AcDbLinetypeTableRecord
  2
DASHED2
 70
0
  3
Dashed (.5x) _ _ _ _ _ _ _ _ _ _ _ _ _ _ _ _ _
 72
65
 73
2
 40
9.5250000000000004
 49
6.3499999999999996
 74
0
 49
-3.1749999999999998
 74
0
  0
LTYPE
  5
36
100
AcDbSymbolTableRecord
100
AcDbLinetypeTableRecord
  2
DASHEDX2
 70
0
  3
Dashed (2x) ____  ____  ____  ____  ____  ___
 72
65
 73
2
 40
38.1000000000000014
 49
25.3999999999999986
 74
0
 49
-12.6999999999999993
 74
0
  0
LTYPE
  5
37
100
AcDbSymbolTableRecord
100
AcDbLinetypeTableRecord
  2
DASHDOT
 70
0
  3
Dash dot __ . __ . __ . __ . __ . __ . __ . __
 72
65
 73
4
 40
25.3999999999999986
 49
12.6999999999999993
 74
0
 49
-6.3499999999999996
 74
0
 49
0.0
 74
0
 49
-6.3499999999999996
 74
0
  0
LTYPE
  5
38
100
AcDbSymbolTableRecord
100
AcDbLinetypeTableRecord
  2
DASHDOT2
 70
0
  3
Dash dot (.5x) _._._._._._._._._._._._._._._.
 72
65
 73
4
 40
12.6999999999999993
 49
6.3499999999999996
 74
0
 49
-3.1749999999999998
 74
0
 49
0.0
 74
0
 49
-3.1749999999999998
 74
0
  0
LTYPE
  5
39
100
AcDbSymbolTableRecord
100
AcDbLinetypeTableRecord
  2
DASHDOTX2
 70
0
  3
Dash dot (2x) ____  .  ____  .  ____  .  ___
 72
65
 73
4
 40
50.7999999999999972
 49
25.3999999999999986
 74
0
 49
-12.6999999999999993
 74
0
 49
0.0
 74
0
 49
-12.6999999999999993
 74
0
  0
LTYPE
  5
3A
100
AcDbSymbolTableRecord
100
AcDbLinetypeTableRecord
  2
DIVIDE
 70
0
  3
Divide ____ . . ____ . . ____ . . ____ . . ____
 72
65
 73
6
 40
31.75
 49
12.6999999999999993
 74
0
 49
-6.3499999999999996
 74
0
 49
0.0
 74
0
 49
-6.3499999999999996
 74
0
 49
0.0
 74
0
 49
-6.3499999999999996
 74
0
  0
LTYPE
  5
3B
100
AcDbSymbolTableRecord
100
AcDbLinetypeTableRecord
  2
DIVIDE2
 70
0
  3
Divide (.5x) __..__..__..__..__..__..__..__.._
 72
65
 73
6
 40
15.875
 49
6.3499999999999996
 74
0
 49
-3.1749999999999998
 74
0
 49
0.0
 74
0
 49
-3.1749999999999998
 74
0
 49
0.0
 74
0
 49
-3.1749999999999998
 74
0
  0
LTYPE
  5
3C
100
AcDbSymbolTableRecord
100
AcDbLinetypeTableRecord
  2
DIVIDEX2
 70
0
  3
Divide (2x) ________  .  .  ________  .  .  _
 72
65
 73
6
 40
63.5
 49
25.3999999999999986
 74
0
 49
-12.6999999999999993
 74
0
 49
0.0
 74
0
 49
-12.6999999999999993
 74
0
 49
0.0
 74
0
 49
-12.6999999999999993
 74
0
  0
LTYPE
  5
3D
100
AcDbSymbolTableRecord
100
AcDbLinetypeTableRecord
  2
CENTER
 70
0
  3
Center ____ _ ____ _ ____ _ ____ _ ____ _ ____
 72
65
 73
4
 40
50.7999999999999972
 49
31.75
 74
0
 49
-6.3499999999999996
 74
0
 49
6.3499999999999996
 74
0
 49
-6.3499999999999996
 74
0
  0
LTYPE
  5
3E
100
AcDbSymbolTableRecord
100
AcDbLinetypeTableRecord
  2
CENTER2
 70
0
  3
Center (.5x) ___ _ ___ _ ___ _ ___ _ ___ _ ___
 72
65
 73
4
 40
28.5749999999999993
 49
19.0500000000000007
 74
0
 49
-3.1749999999999998
 74
0
 49
3.1749999999999998
 74
0
 49
-3.1749999999999998
 74
0
  0
LTYPE
  5
3F
100
AcDbSymbolTableRecord
100
AcDbLinetypeTableRecord
  2
CENTERX2
 70
0
  3
Center (2x) ________  __  ________  __  _____
 72
65
 73
4
 40
101.5999999999999943
 49
63.5
 74
0
 49
-12.6999999999999993
 74
0
 49
12.6999999999999993
 74
0
 49
-12.6999999999999993
 74
0
  0
LTYPE
  5
40
100
AcDbSymbolTableRecord
100
AcDbLinetypeTableRecord
  2
BORDER
 70
0
  3
Border __ __ . __ __ . __ __ . __ __ . __ __ .
 72
65
 73
6
 40
44.4500000000000028
 49
12.6999999999999993
 74
0
 49
-6.3499999999999996
 74
0
 49
12.6999999999999993
 74
0
 49
-6.3499999999999996
 74
0
 49
0.0
 74
0
 49
-6.3499999999999996
 74
0
  0
LTYPE
  5
41
100
AcDbSymbolTableRecord
100
AcDbLinetypeTableRecord
  2
BORDER2
 70
0
  3
Border (.5x) __.__.__.__.__.__.__.__.__.__.__.
 72
65
 73
6
 40
22.2250000000000014
 49
6.3499999999999996
 74
0
 49
-3.1749999999999998
 74
0
 49
6.3499999999999996
 74
0
 49
-3.1749999999999998
 74
0
 49
0.0
 74
0
 49
-3.1749999999999998
 74
0
  0
LTYPE
  5
42
100
AcDbSymbolTableRecord
100
AcDbLinetypeTableRecord
  2
BORDERX2
 70
0
  3
Border (2x) ____  ____  .  ____  ____  .  ___
 72
65
 73
6
 40
88.9000000000000057
 49
25.3999999999999986
 74
0
 49
-12.6999999999999993
 74
0
 49
25.3999999999999986
 74
0
 49
-12.6999999999999993
 74
0
 49
0.0
 74
0
 49
-12.6999999999999993
 74
0
  0
ENDTAB
  0
TABLE
  2
LAYER
  5
2
100
AcDbSymbolTable
 70
8
  0
LAYER
  5
10
100
AcDbSymbolTableRecord
100
AcDbLayerTableRecord
  2
0
 70
4
 62
7
  6
CONTINUOUS
370
0
390
F
  0
LAYER
  5
43
100
AcDbSymbolTableRecord
100
AcDbLayerTableRecord
  2
External Wall
 70
4
 62
7
  6
CONTINUOUS
370
0
390
F
  0
LAYER
  5
44
100
AcDbSymbolTableRecord
100
AcDbLayerTableRecord
  2
Internal wall
 70
4
 62
7
  6
CONTINUOUS
370
0
390
F
  0
LAYER
  5
45
100
AcDbSymbolTableRecord
100
AcDbLayerTableRecord
  2
Proposed Wall
 70
4
 62
171
  6
CONTINUOUS
370
0
390
F
  0
LAYER
  5
46
100
AcDbSymbolTableRecord
100
AcDbLayerTableRecord
  2
Proposed ventilation
 70
4
 62
1
  6
CONTINUOUS
370
0
390
F
  0
LAYER
  5
47
100
AcDbSymbolTableRecord
100
AcDbLayerTableRecord
  2
Frame
 70
0
 62
7
  6
CONTINUOUS
370
0
390
F
  0
LAYER
  5
48
100
AcDbSymbolTableRecord
100
AcDbLayerTableRecord
  2
Text
 70
4
 62
7
  6
CONTINUOUS
370
0
390
F
  0
LAYER
  5
49
100
AcDbSymbolTableRecord
100
AcDbLayerTableRecord
  2
Proposed Text
 70
4
 62
7
  6
CONTINUOUS
370
0
390
F
  0
ENDTAB
  0
TABLE
  2
STYLE
  5
3
100
AcDbSymbolTable
 70
1
  0
STYLE
  5
11
100
AcDbSymbolTableRecord
100
AcDbTextStyleTableRecord
  2
Standard
 70
0
 40
0.0
 41
0.75
 50
0.0
 71
0
 42
2.5
  3
txt
  4

  0
ENDTAB
  0
TABLE
  2
VIEW
  5
6
100
AcDbSymbolTable
 70
0
  0
ENDTAB
  0
TABLE
  2
UCS
  5
7
100
AcDbSymbolTable
 70
0
  0
ENDTAB
  0
TABLE
  2
APPID
  5
9
100
AcDbSymbolTable
 70
1
  0
APPID
  5
12
100
AcDbSymbolTableRecord
100
AcDbRegAppTableRecord
  2
ACAD
 70
0
  0
ENDTAB
  0
TABLE
  2
DIMSTYLE
  5
A
100
AcDbSymbolTable
 70
1
100
AcDbDimStyleTable
 71
0
  0
DIMSTYLE
105
27
100
AcDbSymbolTableRecord
100
AcDbDimStyleTableRecord
  2
Standard
 41
2.5
 42
0.625
 43
3.75
 44
1.25
 70
0
 73
0
 74
0
 77
1
 78
8
140
2.5
141
2.5
143
0.03937007874016
147
0.625
171
3
172
1
271
2
272
2
274
3
278
44
283
0
284
8
340
11
  0
ENDTAB
  0
TABLE
  2
BLOCK_RECORD
  5
1
100
AcDbSymbolTable
 70
1
  0
BLOCK_RECORD
  5
1F
100
AcDbSymbolTableRecord
100
AcDbBlockTableRecord
  2
*Model_Space
340
22
  0
BLOCK_RECORD
  5
1B
100
AcDbSymbolTableRecord
100
AcDbBlockTableRecord
  2
*Paper_Space
340
1E
  0
BLOCK_RECORD
  5
23
100
AcDbSymbolTableRecord
100
AcDbBlockTableRecord
  2
*Paper_Space0
340
26
  0
BLOCK_RECORD
  5
4A
100
AcDbSymbolTableRecord
100
AcDbBlockTableRecord
  2
Pillar
340
0
  0
ENDTAB
  0
ENDSEC
  0
SECTION
  2
BLOCKS
  0
BLOCK
  5
20
100
AcDbEntity
  8
0
100
AcDbBlockBegin
  2
*Model_Space
 70
0
 10
0.0
 20
0.0
 30
0.0
  3
*Model_Space
  1

  0
ENDBLK
  5
21
100
AcDbEntity
  8
0
100
AcDbBlockEnd
  0
BLOCK
  5
1C
100
AcDbEntity
 67
1
  8
0
100
AcDbBlockBegin
  2
*Paper_Space
 70
0
 10
0.0
 20
0.0
 30
0.0
  3
*Paper_Space
  1

  0
ENDBLK
  5
1D
100
AcDbEntity
 67
1
  8
0
100
AcDbBlockEnd
  0
BLOCK
  5
24
100
AcDbEntity
  8
0
100
AcDbBlockBegin
  2
*Paper_Space0
 70
0
 10
0.0
 20
0.0
 30
0.0
  3
*Paper_Space0
  1

  0
ENDBLK
  5
25
100
AcDbEntity
  8
0
100
AcDbBlockEnd
  0
BLOCK
  5
4B
100
AcDbEntity
  8
0
100
AcDbBlockBegin
  2
Pillar
 70
0
 10
0.0
 20
0.0
 30
0.0
  3
Pillar
  1

  0
LINE
  5
4C
100
AcDbEntity
100
AcDbLine
  8
External Wall
 62
256
370
-1
  6
ByLayer
 10
0.0
 20
0.0
 30
0.0
 11
300.0
 21
0.0
 31
0.0
  0
LINE
  5
4D
100
AcDbEntity
100
AcDbLine
  8
External Wall
 62
256
370
-1
  6
ByLayer
 10
300.0
 20
0.0
 30
0.0
 11
300.0
 21
300.0
 31
0.0
  0
LINE
  5
4E
100
AcDbEntity
100
AcDbLine
  8
External Wall
 62
256
370
-1
  6
ByLayer
 10
300.0
 20
300.0
 30
0.0
 11
0.0
 21
300.0
 31
0.0
  0
LINE
  5
4F
100
AcDbEntity
100
AcDbLine
  8
External Wall
 62
256
370
-1
  6
ByLayer
 10
0.0
 20
300.0
 30
0.0
 11
0.0
 21
0.0
 31
0.0
  0
ENDBLK
  5
50
100
AcDbEntity
  8
0
100
AcDbBlockEnd
  0
ENDSEC
  0
SECTION
  2
ENTITIES
  0
LINE
  5
51
100
AcDbEntity
100
AcDbLine
  8
External Wall
 62
256
370
-1
  6
ByLayer
 10
3760.0
 20
0.0
 30
0.0
 11
23510.0
 21
0.0
 31
0.0
  0
LINE
  5
52
100
AcDbEntity
100
AcDbLine
  8
External Wall
 62
256
370
-1
  6
ByLayer
 10
23510.0
 20
0.0
 30
0.0
 11
27270.0
 21
0.0
 31
0.0
  0
LINE
  5
53
100
AcDbEntity
100
AcDbLine
  8
External Wall
 62
256
370
-1
  6
ByLayer
 10
27270.0
 20
0.0
 30
0.0
 11
27270.0
 21
1000.0
 31
0.0
  0
LINE
  5
54
100
AcDbEntity
100
AcDbLine
  8
External Wall
 62
256
370
-1
  6
ByLayer
 10
27270.0
 20
1000.0
 30
0.0
 11
29000.0
 21
1000.0
 31
0.0
  0
LINE
  5
55
100
AcDbEntity
100
AcDbLine
  8
External Wall
 62
256
370
-1
  6
ByLayer
 10
29000.0
 20
11300.0
 30
0.0
 11
26000.0
 21
11300.0
 31
0.0
  0
LINE
  5
56
100
AcDbEntity
100
AcDbLine
  8
External Wall
 62
256
370
-1
  6
ByLayer
 10
26000.0
 20
11300.0
 30
0.0
 11
26000.0
 21
12000.0
 31
0.0
  0
LINE
  5
57
100
AcDbEntity
100
AcDbLine
  8
External Wall
 62
256
370
-1
  6
ByLayer
 10
29000.0
 20
1000.0
 30
0.0
 11
29000.0
 21
11300.0
 31
0.0
  0
LINE
  5
58
100
AcDbEntity
100
AcDbLine
  8
Internal wall
 62
256
370
-1
  6
ByLayer
 10
27990.0
 20
4820.0
 30
0.0
 11
29000.0
 21
4820.0
 31
0.0
  0
LINE
  5
59
100
AcDbEntity
100
AcDbLine
  8
Internal wall
 62
256
370
-1
  6
ByLayer
 10
25730.0
 20
6950.0
 30
0.0
 11
25730.0
 21
12000.0
 31
0.0
  0
LINE
  5
5A
100
AcDbEntity
100
AcDbLine
  8
Internal wall
 62
256
370
-1
  6
ByLayer
 10
25730.0
 20
6950.0
 30
0.0
 11
25730.0
 21
6950.0
 31
0.0
  0
LINE
  5
5B
100
AcDbEntity
100
AcDbLine
  8
Internal wall
 62
256
370
-1
  6
ByLayer
 10
25630.0
 20
6850.0
 30
0.0
 11
25630.0
 21
12000.0
 31
0.0
  0
LINE
  5
5C
100
AcDbEntity
100
AcDbLine
  8
Internal wall
 62
256
370
-1
  6
ByLayer
 10
28090.0
 20
8226.7526124726027774
 30
0.0
 11
29000.0
 21
8637.5351315839216113
 31
0.0
  0
LINE
  5
5D
100
AcDbEntity
100
AcDbLine
  8
Internal wall
 62
256
370
-1
  6
ByLayer
 10
28090.0
 20
4920.0
 30
0.0
 11
29000.0
 21
4920.0
 31
0.0
  0
LINE
  5
5E
100
AcDbEntity
100
AcDbLine
  8
Internal wall
 62
256
370
-1
  6
ByLayer
 10
29000.0
 20
5516.0853662529489156
 30
0.0
 11
29000.0
 21
5516.0853662529489156
 31
0.0
  0
LINE
  5
5F
100
AcDbEntity
100
AcDbLine
  8
Internal wall
 62
256
370
-1
  6
ByLayer
 10
29000.0
 20
6016.0853662529489156
 30
0.0
 11
28090.0
 21
6016.0853662529489156
 31
0.0
  0
LINE
  5
60
100
AcDbEntity
100
AcDbLine
  8
Internal wall
 62
256
370
-1
  6
ByLayer
 10
29000.0
 20
6266.0853662529489156
 30
0.0
 11
28090.0
 21
6266.0853662529489156
 31
0.0
  0
LINE
  5
61
100
AcDbEntity
100
AcDbLine
  8
Internal wall
 62
256
370
-1
  6
ByLayer
 10
29000.0
 20
6516.0853662529489156
 30
0.0
 11
28090.0
 21
6516.0853662529489156
 31
0.0
  0
LINE
  5
62
100
AcDbEntity
100
AcDbLine
  8
Internal wall
 62
256
370
-1
  6
ByLayer
 10
29000.0
 20
6766.0853662529489156
 30
0.0
 11
28090.0
 21
6766.0853662529489156
 31
0.0
  0
LINE
  5
63
100
AcDbEntity
100
AcDbLine
  8
Internal wall
 62
256
370
-1
  6
ByLayer
 10
29000.0
 20
7016.0853662529489156
 30
0.0
 11
28090.0
 21
7016.0853662529489156
 31
0.0
  0
LINE
  5
64
100
AcDbEntity
100
AcDbLine
  8
Internal wall
 62
256
370
-1
  6
ByLayer
 10
29000.0
 20
7266.0853662529489156
 30
0.0
 11
28090.0
 21
7266.0853662529489156
 31
0.0
  0
LINE
  5
65
100
AcDbEntity
100
AcDbLine
  8
Internal wall
 62
256
370
-1
  6
ByLayer
 10
29000.0
 20
7516.0853662529489156
 30
0.0
 11
28090.0
 21
7516.0853662529489156
 31
0.0
  0
LINE
  5
66
100
AcDbEntity
100
AcDbLine
  8
Internal wall
 62
256
370
-1
  6
ByLayer
 10
29000.0
 20
7766.0853662529489156
 30
0.0
 11
28090.0
 21
7766.0853662529489156
 31
0.0
  0
LINE
  5
67
100
AcDbEntity
100
AcDbLine
  8
Internal wall
 62
256
370
-1
  6
ByLayer
 10
29000.0
 20
8016.0853662529489156
 30
0.0
 11
28090.0
 21
8016.0853662529489156
 31
0.0
  0
LINE
  5
68
100
AcDbEntity
100
AcDbLine
  8
Internal wall
 62
256
370
-1
  6
ByLayer
 10
29000.0
 20
8266.0853662529480061
 30
0.0
 11
28177.1332256726709602
 21
8266.0853662529480061
 31
0.0
  0
LINE
  5
69
100
AcDbEntity
100
AcDbLine
  8
Internal wall
 62
256
370
-1
  6
ByLayer
 10
27990.0
 20
8250.0
 30
0.0
 11
27990.0
 21
5818.5473471881905425
 31
0.0
  0
LINE
  5
6A
100
AcDbEntity
100
AcDbLine
  8
Internal wall
 62
256
370
-1
  6
ByLayer
 10
28090.0
 20
8250.0
 30
0.0
 11
28090.0
 21
5818.5473471881905425
 31
0.0
  0
LINE
  5
6B
100
AcDbEntity
100
AcDbLine
  8
Internal wall
 62
256
370
-1
  6
ByLayer
 10
27990.0
 20
4918.5473471881905425
 30
0.0
 11
27990.0
 21
4820.0
 31
0.0
  0
LINE
  5
6C
100
AcDbEntity
100
AcDbLine
  8
Internal wall
 62
256
370
-1
  6
ByLayer
 10
25730.0
 20
6950.0
 30
0.0
 11
26307.1060180678723555
 21
6950.0
 31
0.0
  0
LINE
  5
6D
100
AcDbEntity
100
AcDbLine
  8
Internal wall
 62
256
370
-1
  6
ByLayer
 10
25630.0
 20
6850.0
 30
0.0
 11
26307.1342487833680934
 21
6850.0
 31
0.0
  0
LINE
  5
6E
100
AcDbEntity
100
AcDbLine
  8
Internal wall
 62
256
370
-1
  6
ByLayer
 10
27207.1342487833680934
 20
6850.0
 30
0.0
 11
27990.0
 21
6850.0
 31
0.0
  0
LINE
  5
6F
100
AcDbEntity
100
AcDbLine
  8
Internal wall
 62
256
370
-1
  6
ByLayer
 10
27207.1342487833680934
 20
6950.0
 30
0.0
 11
27990.0
 21
6950.0
 31
0.0
  0
LINE
  5
70
100
AcDbEntity
100
AcDbLine
  8
External Wall
 62
256
370
-1
  6
ByLayer
 10
3760.0
 20
-200.0
 30
0.0
 11
23510.0
 21
-200.0
 31
0.0
  0
LINE
  5
71
100
AcDbEntity
100
AcDbLine
  8
External Wall
 62
256
370
-1
  6
ByLayer
 10
26200.0
 20
11500.0
 30
0.0
 11
26200.0
 21
12210.0
 31
0.0
  0
LINE
  5
72
100
AcDbEntity
100
AcDbLine
  8
External Wall
 62
256
370
-1
  6
ByLayer
 10
29200.0
 20
11500.0
 30
0.0
 11
26200.0
 21
11500.0
 31
0.0
  0
LINE
  5
73
100
AcDbEntity
100
AcDbLine
  8
External Wall
 62
256
370
-1
  6
ByLayer
 10
29200.0
 20
800.0
 30
0.0
 11
29200.0
 21
11500.0
 31
0.0
  0
LINE
  5
74
100
AcDbEntity
100
AcDbLine
  8
External Wall
 62
256
370
-1
  6
ByLayer
 10
27470.0
 20
800.0
 30
0.0
 11
29200.0
 21
800.0
 31
0.0
  0
LINE
  5
75
100
AcDbEntity
100
AcDbLine
  8
External Wall
 62
256
370
-1
  6
ByLayer
 10
23510.0
 20
-200.0
 30
0.0
 11
27470.0
 21
-200.0
 31
0.0
  0
LINE
  5
76
100
AcDbEntity
100
AcDbLine
  8
External Wall
 62
256
370
-1
  6
ByLayer
 10
27470.0
 20
-200.0
 30
0.0
 11
27470.0
 21
800.0
 31
0.0
  0
LINE
  5
77
100
AcDbEntity
100
AcDbLine
  8
External Wall
 62
256
370
-1
  6
ByLayer
 10
3760.0
 20
0.0
 30
0.0
 11
3760.0
 21
1000.0
 31
0.0
  0
LINE
  5
78
100
AcDbEntity
100
AcDbLine
  8
External Wall
 62
256
370
-1
  6
ByLayer
 10
3760.0
 20
1000.0
 30
0.0
 11
0.0
 21
1000.0
 31
0.0
  0
LINE
  5
79
100
AcDbEntity
100
AcDbLine
  8
External Wall
 62
256
370
-1
  6
ByLayer
 10
3560.0
 20
-200.0
 30
0.0
 11
3760.0
 21
-200.0
 31
0.0
  0
LINE
  5
7A
100
AcDbEntity
100
AcDbLine
  8
External Wall
 62
256
370
-1
  6
ByLayer
 10
3560.0
 20
-200.0
 30
0.0
 11
3560.0
 21
800.0
 31
0.0
  0
LINE
  5
7B
100
AcDbEntity
100
AcDbLine
  8
External Wall
 62
256
370
-1
  6
ByLayer
 10
3560.0
 20
800.0
 30
0.0
 11
-200.0
 21
800.0
 31
0.0
  0
LINE
  5
7C
100
AcDbEntity
100
AcDbLine
  8
Internal wall
 62
256
370
-1
  6
ByLayer
 10
3760.0
 20
1000.0
 30
0.0
 11
3760.0
 21
5050.0
 31
0.0
  0
LINE
  5
7D
100
AcDbEntity
100
AcDbLine
  8
Internal wall
 62
256
370
-1
  6
ByLayer
 10
3760.0
 20
5050.0
 30
0.0
 11
0.0
 21
5050.0
 31
0.0
  0
LINE
  5
7E
100
AcDbEntity
100
AcDbLine
  8
Internal wall
 62
256
370
-1
  6
ByLayer
 10
3660.0
 20
1000.0
 30
0.0
 11
3660.0
 21
4950.0
 31
0.0
  0
LINE
  5
7F
100
AcDbEntity
100
AcDbLine
  8
Internal wall
 62
256
370
-1
  6
ByLayer
 10
3660.0
 20
4950.0
 30
0.0
 11
-0.0000000000000184
 21
4950.0
 31
0.0
  0
LINE
  5
80
100
AcDbEntity
100
AcDbLine
  8
Internal wall
 62
256
370
-1
  6
ByLayer
 10
22050.0
 20
7889.2904501657103538
 30
0.0
 11
19640.0
 21
7889.2904501657103538
 31
0.0
  0
LINE
  5
81
100
AcDbEntity
100
AcDbLine
  8
Internal wall
 62
256
370
-1
  6
ByLayer
 10
19640.0
 20
7889.2904501657103538
 30
0.0
 11
19640.0
 21
9489.2904501657103538
 31
0.0
  0
LINE
  5
82
100
AcDbEntity
100
AcDbLine
  8
Internal wall
 62
256
370
-1
  6
ByLayer
 10
19640.0
 20
9489.2904501657103538
 30
0.0
 11
17160.0
 21
9489.2904501657103538
 31
0.0
  0
LINE
  5
83
100
AcDbEntity
100
AcDbLine
  8
Internal wall
 62
256
370
-1
  6
ByLayer
 10
17160.0
 20
9489.2904501657103538
 30
0.0
 11
17160.0
 21
12010.0
 31
0.0
  0
LINE
  5
84
100
AcDbEntity
100
AcDbLine
  8
Internal wall
 62
256
370
-1
  6
ByLayer
 10
17260.0
 20
9589.2904501657103538
 30
0.0
 11
17260.0
 21
12010.0
 31
0.0
  0
LINE
  5
85
100
AcDbEntity
100
AcDbLine
  8
Internal wall
 62
256
370
-1
  6
ByLayer
 10
19740.0
 20
9589.2904501657103538
 30
0.0
 11
17260.0
 21
9589.2904501657103538
 31
0.0
  0
LINE
  5
86
100
AcDbEntity
100
AcDbLine
  8
Internal wall
 62
256
370
-1
  6
ByLayer
 10
19740.0
 20
7989.2904501657103538
 30
0.0
 11
19740.0
 21
9589.2904501657103538
 31
0.0
  0
LINE
  5
87
100
AcDbEntity
100
AcDbLine
  8
Internal wall
 62
256
370
-1
  6
ByLayer
 10
21950.0
 20
7989.2904501657103538
 30
0.0
 11
19740.0
 21
7989.2904501657103538
 31
0.0
  0
LINE
  5
88
100
AcDbEntity
100
AcDbLine
  8
Internal wall
 62
256
370
-1
  6
ByLayer
 10
21950.0
 20
11816.1551654507420608
 30
0.0
 11
22050.0
 21
11816.1551654507420608
 31
0.0
  0
LINE
  5
89
100
AcDbEntity
100
AcDbLine
  8
Internal wall
 62
256
370
-1
  6
ByLayer
 10
21950.0
 20
10916.1551654507420608
 30
0.0
 11
22050.0
 21
10916.1551654507420608
 31
0.0
  0
LINE
  5
8A
100
AcDbEntity
100
AcDbLine
  8
Internal wall
 62
256
370
-1
  6
ByLayer
 10
21950.0
 20
11999.2904501657103538
 30
0.0
 11
21950.0
 21
11816.1551654507420608
 31
0.0
  0
LINE
  5
8B
100
AcDbEntity
100
AcDbLine
  8
Internal wall
 62
256
370
-1
  6
ByLayer
 10
22050.0
 20
11999.2904501657103538
 30
0.0
 11
22050.0
 21
11816.1551654507420608
 31
0.0
  0
LINE
  5
8C
100
AcDbEntity
100
AcDbLine
  8
Internal wall
 62
256
370
-1
  6
ByLayer
 10
21950.0
 20
10916.1551654507420608
 30
0.0
 11
21950.0
 21
7989.2904501657103538
 31
0.0
  0
LINE
  5
8D
100
AcDbEntity
100
AcDbLine
  8
Internal wall
 62
256
370
-1
  6
ByLayer
 10
22050.0
 20
10916.1551654507420608
 30
0.0
 11
22050.0
 21
7889.2904501657103538
 31
0.0
  0
LINE
  5
8E
100
AcDbEntity
100
AcDbLine
  8
Internal wall
 62
256
370
-1
  6
ByLayer
 10
19740.0
 20
9589.2904501657103538
 30
0.0
 11
19740.0
 21
10900.0
 31
0.0
  0
LINE
  5
8F
100
AcDbEntity
100
AcDbLine
  8
Internal wall
 62
256
370
-1
  6
ByLayer
 10
19740.0
 20
10900.0
 30
0.0
 11
21950.0
 21
10900.0
 31
0.0
  0
INSERT
  5
90
100
AcDbEntity
100
AcDbBlockReference
  8
External Wall
 62
256
370
-1
  6
ByLayer
  2
Pillar
 10
3523.6570605829633678
 20
6315.4776547371575361
 30
0.0
 44
1.0
 45
1.0
  0
INSERT
  5
91
100
AcDbEntity
100
AcDbBlockReference
  8
External Wall
 62
256
370
-1
  6
ByLayer
  2
Pillar
 10
21711.1485040534898872
 20
6315.4776547371575361
 30
0.0
 44
1.0
 45
1.0
  0
INSERT
  5
92
100
AcDbEntity
100
AcDbBlockReference
  8
External Wall
 62
256
370
-1
  6
ByLayer
  2
Pillar
 10
12874.9007982839048054
 20
6315.4776547371575361
 30
0.0
 44
1.0
 45
1.0
  0
INSERT
  5
93
100
AcDbEntity
100
AcDbBlockReference
  8
External Wall
 62
256
370
-1
  6
ByLayer
  2
Pillar
 10
8212.8314565895234409
 20
6342.5827090493339711
 30
0.0
 44
1.0
 45
1.0
  0
INSERT
  5
94
100
AcDbEntity
100
AcDbBlockReference
  8
External Wall
 62
256
370
-1
  6
ByLayer
  2
Pillar
 10
16886.4488364860480942
 20
6342.5827090493339711
 30
0.0
 44
1.0
 45
1.0
  0
LINE
  5
95
100
AcDbEntity
100
AcDbLine
  8
External Wall
 62
256
370
-1
  6
ByLayer
 10
1452.8309111326689163
 20
10900.0
 30
0.0
 11
1452.8309111326689163
 21
12034.6441146064353234
 31
0.0
  0
LINE
  5
96
100
AcDbEntity
100
AcDbLine
  8
External Wall
 62
256
370
-1
  6
ByLayer
 10
1452.8309111326689163
 20
12010.0
 30
0.0
 11
26000.9765625362961146
 21
12010.0
 31
0.0
  0
LINE
  5
97
100
AcDbEntity
100
AcDbLine
  8
External Wall
 62
256
370
-1
  6
ByLayer
 10
0.0
 20
10900.0
 30
0.0
 11
1452.8309111326689163
 21
10900.0
 31
0.0
  0
LINE
  5
98
100
AcDbEntity
100
AcDbLine
  8
External Wall
 62
256
370
-1
  6
ByLayer
 10
0.0
 20
1000.0
 30
0.0
 11
0.0
 21
10900.0
 31
0.0
  0
LINE
  5
99
100
AcDbEntity
100
AcDbLine
  8
External Wall
 62
256
370
-1
  6
ByLayer
 10
-200.0
 20
800.0
 30
0.0
 11
-200.0
 21
11100.0
 31
0.0
  0
LINE
  5
9A
100
AcDbEntity
100
AcDbLine
  8
External Wall
 62
256
370
-1
  6
ByLayer
 10
-200.0
 20
11100.0
 30
0.0
 11
1252.8309111326689163
 21
11100.0
 31
0.0
  0
LINE
  5
9B
100
AcDbEntity
100
AcDbLine
  8
External Wall
 62
256
370
-1
  6
ByLayer
 10
1252.8309111326689163
 20
12210.0
 30
0.0
 11
26200.0
 21
12210.0
 31
0.0
  0
LINE
  5
9C
100
AcDbEntity
100
AcDbLine
  8
External Wall
 62
256
370
-1
  6
ByLayer
 10
1252.8309111326689163
 20
11100.0
 30
0.0
 11
1252.8309111326689163
 21
12210.0
 31
0.0
  0
LINE
  5
9D
100
AcDbEntity
100
AcDbLine
  8
Internal wall
 62
256
370
-1
  6
ByLayer
 10
0.0
 20
10899.72556657577843
 30
0.0
 11
3400.0
 21
10900.0
 31
0.0
  0
LINE
  5
9E
100
AcDbEntity
100
AcDbLine
  8
Internal wall
 62
256
370
-1
  6
ByLayer
 10
0.0
 20
10000.0
 30
0.0
 11
3400.0
 21
10000.0
 31
0.0
  0
LINE
  5
9F
100
AcDbEntity
100
AcDbLine
  8
Internal wall
 62
256
370
-1
  6
ByLayer
 10
0.0
 20
10000.0
 30
0.0
 11
2000.0
 21
10000.0
 31
0.0
  0
LINE
  5
A0
100
AcDbEntity
100
AcDbLine
  8
Internal wall
 62
256
370
-1
  6
ByLayer
 10
2100.0
 20
10000.0
 30
0.0
 11
2100.0
 21
6600.0
 31
0.0
  0
LINE
  5
A1
100
AcDbEntity
100
AcDbLine
  8
Internal wall
 62
256
370
-1
  6
ByLayer
 10
2000.0
 20
9900.0
 30
0.0
 11
2000.0
 21
6600.0
 31
0.0
  0
LINE
  5
A2
100
AcDbEntity
100
AcDbLine
  8
Internal wall
 62
256
370
-1
  6
ByLayer
 10
-0.0000000000000184
 20
9900.0
 30
0.0
 11
2000.0
 21
9900.0
 31
0.0
  0
LINE
  5
A3
100
AcDbEntity
100
AcDbLine
  8
Internal wall
 62
256
370
-1
  6
ByLayer
 10
3400.0
 20
10900.0
 30
0.0
 11
3400.0
 21
10000.0
 31
0.0
  0
LINE
  5
A4
100
AcDbEntity
100
AcDbLine
  8
Internal wall
 62
256
370
-1
  6
ByLayer
 10
3200.0
 20
10900.0
 30
0.0
 11
3200.0
 21
10000.0
 31
0.0
  0
LINE
  5
A5
100
AcDbEntity
100
AcDbLine
  8
Internal wall
 62
256
370
-1
  6
ByLayer
 10
3000.0
 20
10900.0
 30
0.0
 11
3000.0
 21
10000.0
 31
0.0
  0
LINE
  5
A6
100
AcDbEntity
100
AcDbLine
  8
Internal wall
 62
256
370
-1
  6
ByLayer
 10
2800.0
 20
10900.0
 30
0.0
 11
2800.0
 21
10000.0
 31
0.0
  0
LINE
  5
A7
100
AcDbEntity
100
AcDbLine
  8
Internal wall
 62
256
370
-1
  6
ByLayer
 10
2600.0
 20
10900.0
 30
0.0
 11
2600.0
 21
10000.0
 31
0.0
  0
LINE
  5
A8
100
AcDbEntity
100
AcDbLine
  8
Internal wall
 62
256
370
-1
  6
ByLayer
 10
2400.0
 20
10900.0
 30
0.0
 11
2400.0
 21
10000.0
 31
0.0
  0
LINE
  5
A9
100
AcDbEntity
100
AcDbLine
  8
Internal wall
 62
256
370
-1
  6
ByLayer
 10
2200.0
 20
10900.0
 30
0.0
 11
2200.0
 21
10000.0
 31
0.0
  0
LINE
  5
AA
100
AcDbEntity
100
AcDbLine
  8
Internal wall
 62
256
370
-1
  6
ByLayer
 10
2000.0
 20
10900.0
 30
0.0
 11
2000.0
 21
10000.0
 31
0.0
  0
LINE
  5
AB
100
AcDbEntity
100
AcDbLine
  8
Internal wall
 62
256
370
-1
  6
ByLayer
 10
1800.0
 20
10900.0
 30
0.0
 11
1800.0
 21
10000.0
 31
0.0
  0
LINE
  5
AC
100
AcDbEntity
100
AcDbLine
  8
Proposed Wall
 62
256
370
-1
  6
ByLayer
 10
19640.0
 20
7889.2904501657103538
 30
0.0
 11
19640.0
 21
6640.0
 31
0.0
  0
LINE
  5
AD
100
AcDbEntity
100
AcDbLine
  8
Proposed Wall
 62
256
370
-1
  6
ByLayer
 10
19640.0
 20
6640.0
 30
0.0
 11
15000.0
 21
6640.0
 31
0.0
  0
LINE
  5
AE
100
AcDbEntity
100
AcDbLine
  8
Proposed Wall
 62
256
370
-1
  6
ByLayer
 10
8212.8314565895234409
 20
6640.0
 30
0.0
 11
8212.8314565895234409
 21
12010.0
 31
0.0
  0
LINE
  5
AF
100
AcDbEntity
100
AcDbLine
  8
Proposed Wall
 62
256
370
-1
  6
ByLayer
 10
13166.551182683213483
 20
12010.0
 30
0.0
 11
13166.551182683213483
 21
6740.0
 31
0.0
  0
LINE
  5
B0
100
AcDbEntity
100
AcDbLine
  8
Proposed Wall
 62
256
370
-1
  6
ByLayer
 10
13266.551182683213483
 20
12010.0
 30
0.0
 11
13266.551182683213483
 21
6740.0
 31
0.0
  0
LINE
  5
B1
100
AcDbEntity
100
AcDbLine
  8
Proposed Wall
 62
256
370
-1
  6
ByLayer
 10
8312.8314565895234409
 20
6740.0
 30
0.0
 11
8312.8314565895234409
 21
12010.0
 31
0.0
  0
LINE
  5
B2
100
AcDbEntity
100
AcDbLine
  8
Proposed Wall
 62
256
370
-1
  6
ByLayer
 10
19540.0
 20
7889.2904501657103538
 30
0.0
 11
19540.0
 21
6740.0
 31
0.0
  0
LINE
  5
B3
100
AcDbEntity
100
AcDbLine
  8
Proposed Wall
 62
256
370
-1
  6
ByLayer
 10
19540.0
 20
6740.0
 30
0.0
 11
15000.0
 21
6740.0
 31
0.0
  0
CIRCLE
  5
B4
100
AcDbEntity
100
AcDbCircle
  8
Proposed ventilation
 62
256
370
-1
  6
ByLayer
 10
17500.0
 20
11800.0
 30
0.0
 40
141.4213562373095101
  0
LINE
  5
B5
100
AcDbEntity
100
AcDbLine
  8
Proposed ventilation
 62
256
370
-1
  6
ByLayer
 10
17360.0
 20
11800.0
 30
0.0
 11
17360.0
 21
6243.894290501211799
 31
0.0
  0
LINE
  5
B6
100
AcDbEntity
100
AcDbLine
  8
Proposed ventilation
 62
256
370
-1
  6
ByLayer
 10
17360.0
 20
6243.894290501211799
 30
0.0
 11
6368.2392692594148684
 21
6243.894290501211799
 31
0.0
  0
LINE
  5
B7
100
AcDbEntity
100
AcDbLine
  8
Proposed ventilation
 62
256
370
-1
  6
ByLayer
 10
17364.5819945537950844
 20
6243.894290501211799
 30
0.0
 11
26350.4496001270890702
 21
6243.894290501211799
 31
0.0
  0
LINE
  5
B8
100
AcDbEntity
100
AcDbLine
  8
Proposed ventilation
 62
256
370
-1
  6
ByLayer
 10
26350.4496001270890702
 20
6243.894290501211799
 30
0.0
 11
26350.4496001270890702
 21
8170.547571862975019
 31
0.0
  0
LINE
  5
B9
100
AcDbEntity
100
AcDbLine
  8
Proposed ventilation
 62
256
370
-1
  6
ByLayer
 10
17360.0
 20
8187.8948066227694653
 30
0.0
 11
14484.9410244279915787
 21
8187.8948066227694653
 31
0.0
  0
LINE
  5
BA
100
AcDbEntity
100
AcDbLine
  8
Proposed ventilation
 62
256
370
-1
  6
ByLayer
 10
9957.3127521217575122
 20
6243.894290501211799
 30
0.0
 11
9957.3127521217575122
 21
8968.5203708134995395
 31
0.0
  0
LINE
  5
BB
100
AcDbEntity
100
AcDbLine
  8
Proposed ventilation
 62
256
370
-1
  6
ByLayer
 10
10257.3127521217575122
 20
6243.894290501211799
 30
0.0
 11
10257.3127521217575122
 21
8968.5203708134995395
 31
0.0
  0
LINE
  5
BC
100
AcDbEntity
100
AcDbLine
  8
Proposed ventilation
 62
256
370
-1
  6
ByLayer
 10
17360.0
 20
5943.894290501211799
 30
0.0
 11
6368.2392692594148684
 21
5943.894290501211799
 31
0.0
  0
LINE
  5
BD
100
AcDbEntity
100
AcDbLine
  8
Proposed ventilation
 62
256
370
-1
  6
ByLayer
 10
17660.0
 20
11800.0
 30
0.0
 11
17660.0
 21
6243.894290501211799
 31
0.0
  0
LINE
  5
BE
100
AcDbEntity
100
AcDbLine
  8
Proposed ventilation
 62
256
370
-1
  6
ByLayer
 10
17360.0
 20
7887.8948066227694653
 30
0.0
 11
14484.9410244279915787
 21
7887.8948066227694653
 31
0.0
  0
LINE
  5
BF
100
AcDbEntity
100
AcDbLine
  8
Proposed ventilation
 62
256
370
-1
  6
ByLayer
 10
14484.9410244279915787
 20
8187.8948066227694653
 30
0.0
 11
14484.9410244279915787
 21
7887.8948066227694653
 31
0.0
  0
LINE
  5
C0
100
AcDbEntity
100
AcDbLine
  8
Proposed ventilation
 62
256
370
-1
  6
ByLayer
 10
10257.3127521217575122
 20
8968.5203708134995395
 30
0.0
 11
9957.3127521217575122
 21
8968.5203708134995395
 31
0.0
  0
LINE
  5
C1
100
AcDbEntity
100
AcDbLine
  8
Proposed ventilation
 62
256
370
-1
  6
ByLayer
 10
6368.2392692594148684
 20
6243.894290501211799
 30
0.0
 11
6368.2392692594148684
 21
5943.894290501211799
 31
0.0
  0
LINE
  5
C2
100
AcDbEntity
100
AcDbLine
  8
Proposed ventilation
 62
256
370
-1
  6
ByLayer
 10
26350.4496001270890702
 20
8170.547571862975019
 30
0.0
 11
26650.4496001270890702
 21
8170.547571862975019
 31
0.0
  0
LINE
  5
C3
100
AcDbEntity
100
AcDbLine
  8
Proposed ventilation
 62
256
370
-1
  6
ByLayer
 10
26650.4496001270890702
 20
5943.894290501211799
 30
0.0
 11
26650.4496001270890702
 21
8170.547571862975019
 31
0.0
  0
LINE
  5
C4
100
AcDbEntity
100
AcDbLine
  8
Proposed ventilation
 62
256
370
-1
  6
ByLayer
 10
17364.5819945537950844
 20
5943.894290501211799
 30
0.0
 11
26650.4496001270890702
 21
5943.894290501211799
 31
0.0
  0
LINE
  5
C5
100
AcDbEntity
100
AcDbLine
  8
Proposed Wall
 62
256
370
-1
  6
ByLayer
 10
13926.6376209188074426
 20
6740.0
 30
0.0
 11
13926.6376209188074426
 21
6640.0
 31
0.0
  0
LINE
  5
C6
100
AcDbEntity
100
AcDbLine
  8
Proposed Wall
 62
256
370
-1
  6
ByLayer
 10
14826.6376209188074426
 20
6740.0
 30
0.0
 11
14826.6376209188074426
 21
6640.0
 31
0.0
  0
LINE
  5
C7
100
AcDbEntity
100
AcDbLine
  8
Proposed Wall
 62
256
370
-1
  6
ByLayer
 10
13926.6376209188074426
 20
6740.0
 30
0.0
 11
13266.551182683213483
 21
6740.0
 31
0.0
  0
LINE
  5
C8
100
AcDbEntity
100
AcDbLine
  8
Proposed Wall
 62
256
370
-1
  6
ByLayer
 10
15000.0
 20
6740.0
 30
0.0
 11
14826.6376209188074426
 21
6740.0
 31
0.0
  0
LINE
  5
C9
100
AcDbEntity
100
AcDbLine
  8
Proposed Wall
 62
256
370
-1
  6
ByLayer
 10
15000.0
 20
6640.0
 30
0.0
 11
14826.6376209188074426
 21
6640.0
 31
0.0
  0
LINE
  5
CA
100
AcDbEntity
100
AcDbLine
  8
Proposed Wall
 62
256
370
-1
  6
ByLayer
 10
11197.6987682451690489
 20
6640.0
 30
0.0
 11
11197.6987682451690489
 21
6740.0
 31
0.0
  0
LINE
  5
CB
100
AcDbEntity
100
AcDbLine
  8
Proposed Wall
 62
256
370
-1
  6
ByLayer
 10
11197.6987682451690489
 20
6740.0
 30
0.0
 11
8312.8314565895234409
 21
6740.0
 31
0.0
  0
LINE
  5
CC
100
AcDbEntity
100
AcDbLine
  8
Proposed Wall
 62
256
370
-1
  6
ByLayer
 10
13166.551182683213483
 20
6740.0
 30
0.0
 11
12097.6987682451690489
 21
6740.0
 31
0.0
  0
LINE
  5
CD
100
AcDbEntity
100
AcDbLine
  8
Proposed Wall
 62
256
370
-1
  6
ByLayer
 10
11197.6987682451690489
 20
6640.0
 30
0.0
 11
8212.8314565895234409
 21
6640.0
 31
0.0
  0
LINE
  5
CE
100
AcDbEntity
100
AcDbLine
  8
Proposed Wall
 62
256
370
-1
  6
ByLayer
 10
12097.6987682451690489
 20
6640.0
 30
0.0
 11
12097.6987682451690489
 21
6740.0
 31
0.0
  0
LINE
  5
CF
100
AcDbEntity
100
AcDbLine
  8
Proposed Wall
 62
256
370
-1
  6
ByLayer
 10
13926.6376209188074426
 20
6640.0
 30
0.0
 11
12097.6987682451690489
 21
6640.0
 31
0.0
  0
MTEXT
  5
D0
100
AcDbEntity
100
AcDbMText
  8
Text
 62
256
370
-1
  6
ByLayer
 10
542.1010862435729223
 20
3404.3948216096378019
 30
0.0
 40
250.0
 41
100.0
 71
1
 72
0
  1
Boiler/Electrical
  7
iso
 50
0.0
 73
1
 44
1.0
  0
MTEXT
  5
D1
100
AcDbEntity
100
AcDbMText
  8
Text
 62
256
370
-1
  6
ByLayer
 10
18257.9645846835483098
 20
11622.647289062211712
 30
0.0
 40
250.0
 41
100.0
 71
1
 72
0
  1
Lift Motor Room
  7
iso
 50
0.0
 73
1
 44
1.0
  0
MTEXT
  5
D2
100
AcDbEntity
100
AcDbMText
  8
Text
 62
256
370
-1
  6
ByLayer
 10
14116.3122857826492691
 20
9822.8716827335483686
 30
0.0
 40
250.0
 41
100.0
 71
1
 72
0
  1
Workshop
  7
iso
 50
0.0
 73
1
 44
1.0
  0
MTEXT
  5
D3
100
AcDbEntity
100
AcDbMText
  8
Text
 62
256
370
-1
  6
ByLayer
 10
9649.3993351356039057
 20
10018.0280737812336156
 30
0.0
 40
250.0
 41
100.0
 71
1
 72
0
  1
Workshop
  7
iso
 50
0.0
 73
1
 44
1.0
  0
MTEXT
  5
D4
100
AcDbEntity
100
AcDbMText
  8
Proposed Text
 62
256
370
-1
  6
ByLayer
 10
5041.5401020652325315
 20
-758.9415207410028188
 30
0.0
 40
150.0
 41
100.0
 71
1
 72
0
  1
Blue lines represent new ceiling-height dry-lined studwork walls.\P\PRed lines represent new extract ventilation ducting.
  7
iso
 50
0.0
 73
1
 44
1.0
  0
LINE
  5
D5
100
AcDbEntity
100
AcDbLine
  8
Frame
 62
256
370
-1
  6
ByLayer
 10
-1000.0
 20
13000.0
 30
0.0
 11
-1000.0
 21
-2000.0
 31
0.0
  0
LINE
  5
D6
100
AcDbEntity
100
AcDbLine
  8
Frame
 62
256
370
-1
  6
ByLayer
 10
-1000.0
 20
-2000.0
 30
0.0
 11
32000.0
 21
-2000.0
 31
0.0
  0
LINE
  5
D7
100
AcDbEntity
100
AcDbLine
  8
Frame
 62
256
370
-1
  6
ByLayer
 10
32000.0
 20
-2000.0
 30
0.0
 11
32000.0
 21
13000.0
 31
0.0
  0
LINE
  5
D8
100
AcDbEntity
100
AcDbLine
  8
Frame
 62
256
370
-1
  6
ByLayer
 10
32000.0
 20
13000.0
 30
0.0
 11
-1000.0
 21
13000.0
 31
0.0
  0
MTEXT
  5
D9
100
AcDbEntity
100
AcDbMText
  8
Frame
 62
256
370
-1
  6
ByLayer
 10
28800.0
 20
-1700.0
 30
0.0
 40
150.0
 41
100.0
 71
1
 72
0
  1
14/03/2013
  7
iso
 50
0.0
 73
1
 44
1.0
  0
MTEXT
  5
DA
100
AcDbEntity
100
AcDbMText
  8
Frame
 62
256
370
-1
  6
ByLayer
 10
28800.0
 20
-900.0
 30
0.0
 40
150.0
 41
100.0
 71
1
 72
0
  1
Basement, 447 Hackney Road
  7
iso
 50
0.0
 73
1
 44
1.0
  0
MTEXT
  5
DB
100
AcDbEntity
100
AcDbMText
  8
Frame
 62
256
370
-1
  6
ByLayer
 10
28800.0
 20
-1300.0
 30
0.0
 40
150.0
 41
100.0
 71
1
 72
0
  1
Proposed Alterations
  7
iso
 50
0.0
 73
1
 44
1.0
  0
LINE
  5
DC
100
AcDbEntity
100
AcDbLine
  8
Frame
 62
256
370
-1
  6
ByLayer
 10
28600.0
 20
-600.0
 30
0.0
 11
28600.0
 21
-2000.0
 31
0.0
  0
LINE
  5
DD
100
AcDbEntity
100
AcDbLine
  8
Frame
 62
256
370
-1
  6
ByLayer
 10
28600.0
 20
-600.0
 30
0.0
 11
32000.0
 21
-600.0
 31
0.0
  0
ENDSEC
  0
SECTION
  2
OBJECTS
  0
DICTIONARY
  5
C
100
AcDbDictionary
280
0
281
1
  3
ACAD_GROUP
350
D
  3
ACAD_LAYOUT
350
1A
  3
ACAD_MLINESTYLE
350
17
  3
ACAD_PLOTSETTINGS
350
19
  3
ACAD_PLOTSTYLENAME
350
E
  3
AcDbVariableDictionary
350
DE
  0
DICTIONARY
  5
D
100
AcDbDictionary
280
0
281
1
  0
ACDBDICTIONARYWDFLT
  5
E
100
AcDbDictionary
281
1
  3
Normal
350
F
100
AcDbDictionaryWithDefault
340
F
  0
ACDBPLACEHOLDER
  5
F
  0
DICTIONARY
  5
17
100
AcDbDictionary
280
0
281
1
  3
Standard
350
18
  0
MLINESTYLE
  5
18
100
AcDbMlineStyle
  2
STANDARD
 70
0
  3

 62
256
 51
90.0
 52
90.0
 71
2
 49
0.5
 62
256
  6
BYLAYER
 49
-0.5
 62
256
  6
BYLAYER
  0
DICTIONARY
  5
19
100
AcDbDictionary
280
0
281
1
  0
DICTIONARY
  5
1A
100
AcDbDictionary
281
1
  3
Layout1
350
1E
  3
Layout2
350
26
  3
Model
350
22
  0
LAYOUT
  5
1E
100
AcDbPlotSettings
  1

  2
C:\Program Files\AutoCAD 2002\plotters\DWF ePlot (optimized for plotting).pc3
  4

  6

 40
0.0
 41
0.0
 42
0.0
 43
0.0
 44
0.0
 45
0.0
 46
0.0
 47
0.0
 48
0.0
 49
0.0
140
0.0
141
0.0
142
1.0
143
1.0
 70
688
 72
0
 73
0
 74
5
  7

 75
16
147
1.0
148
0.0
149
0.0
100
AcDbLayout
  1
Layout1
 70
1
 71
1
 10
0.0
 20
0.0
 11
420.0
 21
297.0
 12
0.0
 22
0.0
 32
0.0
 14
100000000000000000000.0
 24
100000000000000000000.0
 34
100000000000000000000.0
 15
-100000000000000000000.0
 25
-100000000000000000000.0
 35
-100000000000000000000.0
146
0.0
 13
0.0
 23
0.0
 33
0.0
 16
1.0
 26
0.0
 36
0.0
 17
0.0
 27
1.0
 37
0.0
 76
0
330
1B
  0
LAYOUT
  5
22
100
AcDbPlotSettings
  1

  2
C:\Program Files\AutoCAD 2002\plotters\DWF ePlot (optimized for plotting).pc3
  4

  6

 40
0.0
 41
0.0
 42
0.0
 43
0.0
 44
0.0
 45
0.0
 46
0.0
 47
0.0
 48
0.0
 49
0.0
140
0.0
141
0.0
142
1.0
143
1.0
 70
1712
 72
0
 73
0
 74
0
  7

 75
0
147
1.0
148
0.0
149
0.0
100
AcDbLayout
  1
Model
 70
1
 71
0
 10
0.0
 20
0.0
 11
12.0
 21
9.0
 12
0.0
 22
0.0
 32
0.0
 14
0.0
 24
0.0
 34
0.0
 15
0.0
 25
0.0
 35
0.0
146
0.0
 13
0.0
 23
0.0
 33
0.0
 16
1.0
 26
0.0
 36
0.0
 17
0.0
 27
1.0
 37
0.0
 76
0
330
1F
  0
LAYOUT
  5
26
100
AcDbPlotSettings
  1

  2
C:\Program Files\AutoCAD 2002\plotters\DWF ePlot (optimized for plotting).pc3
  4

  6

 40
0.0
 41
0.0
 42
0.0
 43
0.0
 44
0.0
 45
0.0
 46
0.0
 47
0.0
 48
0.0
 49
0.0
140
0.0
141
0.0
142
1.0
143
1.0
 70
688
 72
0
 73
0
 74
5
  7

 75
16
147
1.0
148
0.0
149
0.0
100
AcDbLayout
  1
Layout2
 70
1
 71
2
 10
0.0
 20
0.0
 11
12.0
 21
9.0
 12
0.0
 22
0.0
 32
0.0
 14
0.0
 24
0.0
 34
0.0
 15
0.0
 25
0.0
 35
0.0
146
0.0
 13
0.0
 23
0.0
 33
0.0
 16
1.0
 26
0.0
 36
0.0
 17
0.0
 27
1.0
 37
0.0
 76
0
330
23
  0
DICTIONARY
  5
DE
100
AcDbDictionary
281
1
  3
DIMASSOC
350
E0
  3
HIDETEXT
350
DF
  0
DICTIONARYVAR
  5
DF
100
DictionaryVariables
280
0
  1
2
  0
DICTIONARYVAR
  5
E0
100
DictionaryVariables
280
0
  1
1
  0
ENDSEC
  0
EOF
