999
dxflib 2.2.0.0
  0
SECTION
  2
HEADER
  9
$ACADVER
  1
AC1015
  9
$HANDSEED
  5
FFFF
  9
$DIMASZ
 40
2.5
  9
$GRIDMODE
 70
1
  9
$PLIMMIN
 10
0.0
 20
0.0
  9
$DIMEXE
 40
1.25
  9
$DIMGAP
 40
0.625
  9
$PLIMMAX
 10
210.0
 20
297.0
  9
$INSUNITS
 70
4
  9
$DIMSTYLE
  2
Standard
  9
$DIMEXO
 40
0.625
  9
$DIMTXT
 40
2.5
  0
ENDSEC
  0
SECTION
  2
TABLES
  0
TABLE
  2
VPORT
  5
8
100
AcDbSymbolTable
 70
1
  0
VPORT
  5
30
100
AcDbSymbolTableRecord
100
AcDbViewportTableRecord
  2
*Active
 70
0
 10
0.0
 20
0.0
 11
1.0
 21
1.0
 12
286.3055555555554861
 22
148.5
 13
0.0
 23
0.0
 14
10.0
 24
10.0
 15
10.0
 25
10.0
 16
0.0
 26
0.0
 36
1.0
 17
0.0
 27
0.0
 37
0.0
 40
297.0
 41
1.92798353909465
 42
50.0
 43
0.0
 44
0.0
 50
0.0
 51
0.0
 71
0
 72
100
 73
1
 74
3
 75
1
 76
1
 77
0
 78
0
281
0
 65
1
110
0.0
120
0.0
130
0.0
111
1.0
121
0.0
131
0.0
112
0.0
122
1.0
132
0.0
 79
0
146
0.0
  0
ENDTAB
  0
TABLE
  2
LTYPE
  5
5
100
AcDbSymbolTable
 70
21
  0
LTYPE
  5
14
100
AcDbSymbolTableRecord
100
AcDbLinetypeTableRecord
  2
ByBlock
 70
0
  3

 72
65
 73
0
 40
0.0
  0
LTYPE
  5
15
100
AcDbSymbolTableRecord
100
AcDbLinetypeTableRecord
  2
ByLayer
 70
0
  3

 72
65
 73
0
 40
0.0
  0
LTYPE
  5
16
100
AcDbSymbolTableRecord
100
AcDbLinetypeTableRecord
  2
CONTINUOUS
 70
0
  3
Solid line
 72
65
 73
0
 40
0.0
  0
LTYPE
  5
31
100
AcDbSymbolTableRecord
100
AcDbLinetypeTableRecord
  2
DOT
 70
0
  3
Dot . . . . . . . . . . . . . . . . . . . . . .
 72
65
 73
2
 40
6.3499999999999996
 49
0.0
 74
0
 49
-6.3499999999999996
 74
0
  0
LTYPE
  5
32
100
AcDbSymbolTableRecord
100
AcDbLinetypeTableRecord
  2
DOT2
 70
0
  3
Dot (.5x) .....................................
 72
65
 73
2
 40
3.1749999999999998
 49
0.0
 74
0
 49
-3.1749999999999998
 74
0
  0
LTYPE
  5
33
100
AcDbSymbolTableRecord
100
AcDbLinetypeTableRecord
  2
DOTX2
 70
0
  3
Dot (2x) .  .  .  .  .  .  .  .  .  .  .  .  .
 72
65
 73
2
 40
12.6999999999999993
 49
0.0
 74
0
 49
-12.6999999999999993
 74
0
  0
LTYPE
  5
34
100
AcDbSymbolTableRecord
100
AcDbLinetypeTableRecord
  2
DASHED
 70
0
  3
Dashed __ __ __ __ __ __ __ __ __ __ __ __ __ _
 72
65
 73
2
 40
19.0500000000000007
 49
12.6999999999999993
 74
0
 49
-6.3499999999999996
 74
0
  0
LTYPE
  5
35
100
AcDbSymbolTableRecord
100
AcDbLinetypeTableRecord
  2
DASHED2
 70
0
  3
Dashed (.5x) _ _ _ _ _ _ _ _ _ _ _ _ _ _ _ _ _
 72
65
 73
2
 40
9.5250000000000004
 49
6.3499999999999996
 74
0
 49
-3.1749999999999998
 74
0
  0
LTYPE
  5
36
100
AcDbSymbolTableRecord
100
AcDbLinetypeTableRecord
  2
DASHEDX2
 70
0
  3
Dashed (2x) ____  ____  ____  ____  ____  ___
 72
65
 73
2
 40
38.1000000000000014
 49
25.3999999999999986
 74
0
 49
-12.6999999999999993
 74
0
  0
LTYPE
  5
37
100
AcDbSymbolTableRecord
100
AcDbLinetypeTableRecord
  2
DASHDOT
 70
0
  3
Dash dot __ . __ . __ . __ . __ . __ . __ . __
 72
65
 73
4
 40
25.3999999999999986
 49
12.6999999999999993
 74
0
 49
-6.3499999999999996
 74
0
 49
0.0
 74
0
 49
-6.3499999999999996
 74
0
  0
LTYPE
  5
38
100
AcDbSymbolTableRecord
100
AcDbLinetypeTableRecord
  2
DASHDOT2
 70
0
  3
Dash dot (.5x) _._._._._._._._._._._._._._._.
 72
65
 73
4
 40
12.6999999999999993
 49
6.3499999999999996
 74
0
 49
-3.1749999999999998
 74
0
 49
0.0
 74
0
 49
-3.1749999999999998
 74
0
  0
LTYPE
  5
39
100
AcDbSymbolTableRecord
100
AcDbLinetypeTableRecord
  2
DASHDOTX2
 70
0
  3
Dash dot (2x) ____  .  ____  .  ____  .  ___
 72
65
 73
4
 40
50.7999999999999972
 49
25.3999999999999986
 74
0
 49
-12.6999999999999993
 74
0
 49
0.0
 74
0
 49
-12.6999999999999993
 74
0
  0
LTYPE
  5
3A
100
AcDbSymbolTableRecord
100
AcDbLinetypeTableRecord
  2
DIVIDE
 70
0
  3
Divide ____ . . ____ . . ____ . . ____ . . ____
 72
65
 73
6
 40
31.75
 49
12.6999999999999993
 74
0
 49
-6.3499999999999996
 74
0
 49
0.0
 74
0
 49
-6.3499999999999996
 74
0
 49
0.0
 74
0
 49
-6.3499999999999996
 74
0
  0
LTYPE
  5
3B
100
AcDbSymbolTableRecord
100
AcDbLinetypeTableRecord
  2
DIVIDE2
 70
0
  3
Divide (.5x) __..__..__..__..__..__..__..__.._
 72
65
 73
6
 40
15.875
 49
6.3499999999999996
 74
0
 49
-3.1749999999999998
 74
0
 49
0.0
 74
0
 49
-3.1749999999999998
 74
0
 49
0.0
 74
0
 49
-3.1749999999999998
 74
0
  0
LTYPE
  5
3C
100
AcDbSymbolTableRecord
100
AcDbLinetypeTableRecord
  2
DIVIDEX2
 70
0
  3
Divide (2x) ________  .  .  ________  .  .  _
 72
65
 73
6
 40
63.5
 49
25.3999999999999986
 74
0
 49
-12.6999999999999993
 74
0
 49
0.0
 74
0
 49
-12.6999999999999993
 74
0
 49
0.0
 74
0
 49
-12.6999999999999993
 74
0
  0
LTYPE
  5
3D
100
AcDbSymbolTableRecord
100
AcDbLinetypeTableRecord
  2
CENTER
 70
0
  3
Center ____ _ ____ _ ____ _ ____ _ ____ _ ____
 72
65
 73
4
 40
50.7999999999999972
 49
31.75
 74
0
 49
-6.3499999999999996
 74
0
 49
6.3499999999999996
 74
0
 49
-6.3499999999999996
 74
0
  0
LTYPE
  5
3E
100
AcDbSymbolTableRecord
100
AcDbLinetypeTableRecord
  2
CENTER2
 70
0
  3
Center (.5x) ___ _ ___ _ ___ _ ___ _ ___ _ ___
 72
65
 73
4
 40
28.5749999999999993
 49
19.0500000000000007
 74
0
 49
-3.1749999999999998
 74
0
 49
3.1749999999999998
 74
0
 49
-3.1749999999999998
 74
0
  0
LTYPE
  5
3F
100
AcDbSymbolTableRecord
100
AcDbLinetypeTableRecord
  2
CENTERX2
 70
0
  3
Center (2x) ________  __  ________  __  _____
 72
65
 73
4
 40
101.5999999999999943
 49
63.5
 74
0
 49
-12.6999999999999993
 74
0
 49
12.6999999999999993
 74
0
 49
-12.6999999999999993
 74
0
  0
LTYPE
  5
40
100
AcDbSymbolTableRecord
100
AcDbLinetypeTableRecord
  2
BORDER
 70
0
  3
Border __ __ . __ __ . __ __ . __ __ . __ __ .
 72
65
 73
6
 40
44.4500000000000028
 49
12.6999999999999993
 74
0
 49
-6.3499999999999996
 74
0
 49
12.6999999999999993
 74
0
 49
-6.3499999999999996
 74
0
 49
0.0
 74
0
 49
-6.3499999999999996
 74
0
  0
LTYPE
  5
41
100
AcDbSymbolTableRecord
100
AcDbLinetypeTableRecord
  2
BORDER2
 70
0
  3
Border (.5x) __.__.__.__.__.__.__.__.__.__.__.
 72
65
 73
6
 40
22.2250000000000014
 49
6.3499999999999996
 74
0
 49
-3.1749999999999998
 74
0
 49
6.3499999999999996
 74
0
 49
-3.1749999999999998
 74
0
 49
0.0
 74
0
 49
-3.1749999999999998
 74
0
  0
LTYPE
  5
42
100
AcDbSymbolTableRecord
100
AcDbLinetypeTableRecord
  2
BORDERX2
 70
0
  3
Border (2x) ____  ____  .  ____  ____  .  ___
 72
65
 73
6
 40
88.9000000000000057
 49
25.3999999999999986
 74
0
 49
-12.6999999999999993
 74
0
 49
25.3999999999999986
 74
0
 49
-12.6999999999999993
 74
0
 49
0.0
 74
0
 49
-12.6999999999999993
 74
0
  0
ENDTAB
  0
TABLE
  2
LAYER
  5
2
100
AcDbSymbolTable
 70
9
  0
LAYER
  5
10
100
AcDbSymbolTableRecord
100
AcDbLayerTableRecord
  2
0
 70
4
 62
7
  6
CONTINUOUS
370
70
390
F
  0
LAYER
  5
43
100
AcDbSymbolTableRecord
100
AcDbLayerTableRecord
  2
Text
 70
0
 62
7
  6
CONTINUOUS
370
0
390
F
  0
LAYER
  5
44
100
AcDbSymbolTableRecord
100
AcDbLayerTableRecord
  2
Old walls
 70
4
 62
9
  6
DIVIDE
370
0
390
F
  0
LAYER
  5
45
100
AcDbSymbolTableRecord
100
AcDbLayerTableRecord
  2
New Walls
 70
4
 62
181
  6
CONTINUOUS
370
0
390
F
  0
LAYER
  5
46
100
AcDbSymbolTableRecord
100
AcDbLayerTableRecord
  2
New Annotations
 70
4
 62
7
  6
CONTINUOUS
370
0
390
F
  0
LAYER
  5
47
100
AcDbSymbolTableRecord
100
AcDbLayerTableRecord
  2
Annotation callouts
 70
4
 62
8
  6
CONTINUOUS
370
0
390
F
  0
LAYER
  5
48
100
AcDbSymbolTableRecord
100
AcDbLayerTableRecord
  2
New Text
 70
4
 62
7
  6
CONTINUOUS
370
0
390
F
  0
LAYER
  5
49
100
AcDbSymbolTableRecord
100
AcDbLayerTableRecord
  2
Frame
 70
4
 62
7
  6
CONTINUOUS
370
0
390
F
  0
LAYER
  5
4A
100
AcDbSymbolTableRecord
100
AcDbLayerTableRecord
  2
image
 70
1
 62
7
  6
CONTINUOUS
370
0
390
F
  0
ENDTAB
  0
TABLE
  2
STYLE
  5
3
100
AcDbSymbolTable
 70
1
  0
STYLE
  5
11
100
AcDbSymbolTableRecord
100
AcDbTextStyleTableRecord
  2
Standard
 70
0
 40
0.0
 41
0.75
 50
0.0
 71
0
 42
2.5
  3
txt
  4

  0
ENDTAB
  0
TABLE
  2
VIEW
  5
6
100
AcDbSymbolTable
 70
0
  0
ENDTAB
  0
TABLE
  2
UCS
  5
7
100
AcDbSymbolTable
 70
0
  0
ENDTAB
  0
TABLE
  2
APPID
  5
9
100
AcDbSymbolTable
 70
1
  0
APPID
  5
12
100
AcDbSymbolTableRecord
100
AcDbRegAppTableRecord
  2
ACAD
 70
0
  0
ENDTAB
  0
TABLE
  2
DIMSTYLE
  5
A
100
AcDbSymbolTable
 70
1
100
AcDbDimStyleTable
 71
0
  0
DIMSTYLE
105
27
100
AcDbSymbolTableRecord
100
AcDbDimStyleTableRecord
  2
Standard
 41
2.5
 42
0.625
 43
3.75
 44
1.25
 70
0
 73
0
 74
0
 77
1
 78
8
140
2.5
141
2.5
143
0.03937007874016
147
0.625
171
3
172
1
271
2
272
2
274
3
278
44
283
0
284
8
340
11
  0
ENDTAB
  0
TABLE
  2
BLOCK_RECORD
  5
1
100
AcDbSymbolTable
 70
1
  0
BLOCK_RECORD
  5
1F
100
AcDbSymbolTableRecord
100
AcDbBlockTableRecord
  2
*Model_Space
340
22
  0
BLOCK_RECORD
  5
1B
100
AcDbSymbolTableRecord
100
AcDbBlockTableRecord
  2
*Paper_Space
340
1E
  0
BLOCK_RECORD
  5
23
100
AcDbSymbolTableRecord
100
AcDbBlockTableRecord
  2
*Paper_Space0
340
26
  0
BLOCK_RECORD
  5
4B
100
AcDbSymbolTableRecord
100
AcDbBlockTableRecord
  2
Pillar
340
0
  0
ENDTAB
  0
ENDSEC
  0
SECTION
  2
BLOCKS
  0
BLOCK
  5
20
100
AcDbEntity
  8
0
100
AcDbBlockBegin
  2
*Model_Space
 70
0
 10
0.0
 20
0.0
 30
0.0
  3
*Model_Space
  1

  0
ENDBLK
  5
21
100
AcDbEntity
  8
0
100
AcDbBlockEnd
  0
BLOCK
  5
1C
100
AcDbEntity
 67
1
  8
0
100
AcDbBlockBegin
  2
*Paper_Space
 70
0
 10
0.0
 20
0.0
 30
0.0
  3
*Paper_Space
  1

  0
ENDBLK
  5
1D
100
AcDbEntity
 67
1
  8
0
100
AcDbBlockEnd
  0
BLOCK
  5
24
100
AcDbEntity
  8
0
100
AcDbBlockBegin
  2
*Paper_Space0
 70
0
 10
0.0
 20
0.0
 30
0.0
  3
*Paper_Space0
  1

  0
ENDBLK
  5
25
100
AcDbEntity
  8
0
100
AcDbBlockEnd
  0
BLOCK
  5
4C
100
AcDbEntity
  8
0
100
AcDbBlockBegin
  2
Pillar
 70
0
 10
0.0
 20
0.0
 30
0.0
  3
Pillar
  1

  0
LINE
  5
4D
100
AcDbEntity
100
AcDbLine
  8
0
 62
256
370
-1
  6
ByLayer
 10
0.0
 20
0.0
 30
0.0
 11
300.0
 21
0.0
 31
0.0
  0
LINE
  5
4E
100
AcDbEntity
100
AcDbLine
  8
0
 62
256
370
-1
  6
ByLayer
 10
300.0
 20
0.0
 30
0.0
 11
300.0
 21
300.0
 31
0.0
  0
LINE
  5
4F
100
AcDbEntity
100
AcDbLine
  8
0
 62
256
370
-1
  6
ByLayer
 10
300.0
 20
300.0
 30
0.0
 11
0.0
 21
300.0
 31
0.0
  0
LINE
  5
50
100
AcDbEntity
100
AcDbLine
  8
0
 62
256
370
-1
  6
ByLayer
 10
0.0
 20
300.0
 30
0.0
 11
0.0
 21
0.0
 31
0.0
  0
ENDBLK
  5
51
100
AcDbEntity
  8
0
100
AcDbBlockEnd
  0
ENDSEC
  0
SECTION
  2
ENTITIES
  0
IMAGE
  5
52
  8
image
 62
256
370
-1
  6
ByLayer
100
AcDbEntity
100
AcDbRasterImage
 90
0
 10
-9274.0011504435278766
 20
-13091.5874079460663779
 30
0.0
 11
12.724794000000001
 21
0.0
 31
0.0
 12
0.0000000000000008
 22
12.724794000000001
 32
0.0
 13
3306.0
 23
4678.0
340
53
 70
15
280
0
281
50
282
50
283
0
  0
LINE
  5
54
100
AcDbEntity
100
AcDbLine
  8
0
 62
256
370
-1
  6
ByLayer
 10
21410.0
 20
0.0
 30
0.0
 11
21490.0
 21
0.0
 31
0.0
  0
LINE
  5
55
100
AcDbEntity
100
AcDbLine
  8
0
 62
256
370
-1
  6
ByLayer
 10
0.0
 20
12230.0
 30
0.0
 11
0.0
 21
1000.0
 31
0.0
  0
LINE
  5
56
100
AcDbEntity
100
AcDbLine
  8
0
 62
256
370
-1
  6
ByLayer
 10
21490.0
 20
6670.0
 30
0.0
 11
23760.0
 21
6670.0
 31
0.0
  0
LINE
  5
57
100
AcDbEntity
100
AcDbLine
  8
0
 62
256
370
-1
  6
ByLayer
 10
22800.0
 20
6670.0
 30
0.0
 11
22800.0
 21
10830.0
 31
0.0
  0
LINE
  5
58
100
AcDbEntity
100
AcDbLine
  8
0
 62
256
370
-1
  6
ByLayer
 10
22800.0
 20
10830.0
 30
0.0
 11
23760.0
 21
10830.0
 31
0.0
  0
LINE
  5
59
100
AcDbEntity
100
AcDbLine
  8
0
 62
256
370
-1
  6
ByLayer
 10
22800.0
 20
10630.0
 30
0.0
 11
23760.0
 21
10630.0
 31
0.0
  0
LINE
  5
5A
100
AcDbEntity
100
AcDbLine
  8
0
 62
256
370
-1
  6
ByLayer
 10
22800.0
 20
10430.0
 30
0.0
 11
23760.0
 21
10430.0
 31
0.0
  0
LINE
  5
5B
100
AcDbEntity
100
AcDbLine
  8
0
 62
256
370
-1
  6
ByLayer
 10
22800.0
 20
10230.0
 30
0.0
 11
23760.0
 21
10230.0
 31
0.0
  0
LINE
  5
5C
100
AcDbEntity
100
AcDbLine
  8
0
 62
256
370
-1
  6
ByLayer
 10
22800.0
 20
10030.0
 30
0.0
 11
23760.0
 21
10030.0
 31
0.0
  0
LINE
  5
5D
100
AcDbEntity
100
AcDbLine
  8
0
 62
256
370
-1
  6
ByLayer
 10
22800.0
 20
8634.5153249568156753
 30
0.0
 11
23760.0
 21
9828.2271210337949015
 31
0.0
  0
LINE
  5
5E
100
AcDbEntity
100
AcDbLine
  8
0
 62
256
370
-1
  6
ByLayer
 10
22800.0
 20
8830.0
 30
0.0
 11
22957.2115553002004162
 21
8830.0
 31
0.0
  0
LINE
  5
5F
100
AcDbEntity
100
AcDbLine
  8
0
 62
256
370
-1
  6
ByLayer
 10
22800.0
 20
9030.0
 30
0.0
 11
23118.0543991348604322
 21
9030.0
 31
0.0
  0
LINE
  5
60
100
AcDbEntity
100
AcDbLine
  8
0
 62
256
370
-1
  6
ByLayer
 10
22800.0
 20
9230.0
 30
0.0
 11
23278.8972429695168103
 21
9230.0
 31
0.0
  0
LINE
  5
61
100
AcDbEntity
100
AcDbLine
  8
0
 62
256
370
-1
  6
ByLayer
 10
22800.0
 20
9430.0
 30
0.0
 11
23439.7400868041768263
 21
9430.0
 31
0.0
  0
LINE
  5
62
100
AcDbEntity
100
AcDbLine
  8
0
 62
256
370
-1
  6
ByLayer
 10
22800.0
 20
9630.0
 30
0.0
 11
23600.5829306388368423
 21
9630.0
 31
0.0
  0
LINE
  5
63
100
AcDbEntity
100
AcDbLine
  8
0
 62
256
370
-1
  6
ByLayer
 10
22800.0
 20
9830.0
 30
0.0
 11
23761.4257744734968583
 21
9830.0
 31
0.0
  0
LINE
  5
64
100
AcDbEntity
100
AcDbLine
  8
0
 62
256
370
-1
  6
ByLayer
 10
0.0
 20
0.0
 30
0.0
 11
0.0
 21
2500.0
 31
0.0
  0
LINE
  5
65
100
AcDbEntity
100
AcDbLine
  8
0
 62
256
370
-1
  6
ByLayer
 10
0.0
 20
2500.0
 30
0.0
 11
4690.0
 21
2500.0
 31
0.0
  0
LINE
  5
66
100
AcDbEntity
100
AcDbLine
  8
0
 62
7
370
-1
  6
ByLayer
 10
-0.0000000000000004
 20
6860.0
 30
0.0
 11
2000.0
 21
6860.0
 31
0.0
  0
LINE
  5
67
100
AcDbEntity
100
AcDbLine
  8
0
 62
7
370
-1
  6
ByLayer
 10
2000.0
 20
6860.0
 30
0.0
 11
2000.0
 21
7960.0
 31
0.0
  0
LINE
  5
68
100
AcDbEntity
100
AcDbLine
  8
0
 62
7
370
-1
  6
ByLayer
 10
1800.0
 20
6860.0
 30
0.0
 11
1800.0
 21
7960.0
 31
0.0
  0
LINE
  5
69
100
AcDbEntity
100
AcDbLine
  8
0
 62
7
370
-1
  6
ByLayer
 10
1600.0
 20
6860.0
 30
0.0
 11
1600.0
 21
7960.0
 31
0.0
  0
LINE
  5
6A
100
AcDbEntity
100
AcDbLine
  8
0
 62
7
370
-1
  6
ByLayer
 10
1400.0
 20
6860.0
 30
0.0
 11
1400.0
 21
7960.0
 31
0.0
  0
LINE
  5
6B
100
AcDbEntity
100
AcDbLine
  8
0
 62
7
370
-1
  6
ByLayer
 10
1200.0
 20
6860.0
 30
0.0
 11
1200.0
 21
7960.0
 31
0.0
  0
LINE
  5
6C
100
AcDbEntity
100
AcDbLine
  8
0
 62
7
370
-1
  6
ByLayer
 10
18452.7948476907040458
 20
7960.0
 30
0.0
 11
19035.7241081084466714
 21
7960.0
 31
0.0
  0
LINE
  5
6D
100
AcDbEntity
100
AcDbLine
  8
0
 62
7
370
-1
  6
ByLayer
 10
19735.7241081084466714
 20
7960.0
 30
0.0
 11
19839.6854500522604212
 21
7960.0
 31
0.0
  0
LINE
  5
6E
100
AcDbEntity
100
AcDbLine
  8
0
 62
256
370
-1
  6
ByLayer
 10
17075.7630257875207462
 20
7960.0
 30
0.0
 11
17905.1529241618191008
 21
7960.0
 31
0.0
  0
LINE
  5
6F
100
AcDbEntity
100
AcDbLine
  8
0
 62
256
370
-1
  6
ByLayer
 10
21490.0
 20
12230.0
 30
0.0
 11
21490.0
 21
11959.8553283147175534
 31
0.0
  0
LINE
  5
70
100
AcDbEntity
100
AcDbLine
  8
0
 62
7
370
-1
  6
ByLayer
 10
19840.6269191776773368
 20
7960.0
 30
0.0
 11
20213.5197469045997423
 21
7960.0
 31
0.0
  0
LINE
  5
71
100
AcDbEntity
100
AcDbLine
  8
0
 62
256
370
-1
  6
ByLayer
 10
21490.0
 20
11259.8553283147175534
 30
0.0
 11
21490.0
 21
7698.872650508341394
 31
0.0
  0
LINE
  5
72
100
AcDbEntity
100
AcDbLine
  8
0
 62
256
370
-1
  6
ByLayer
 10
21490.0
 20
6998.872650508341394
 30
0.0
 11
21490.0
 21
0.0
 31
0.0
  0
LINE
  5
73
100
AcDbEntity
100
AcDbLine
  8
0
 62
256
370
-1
  6
ByLayer
 10
3386.1802251069561862
 20
7960.0
 30
0.0
 11
3543.8318946035205954
 21
7960.0
 31
0.0
  0
LINE
  5
74
100
AcDbEntity
100
AcDbLine
  8
0
 62
256
370
-1
  6
ByLayer
 10
-0.0000000000000004
 20
7960.0
 30
0.0
 11
2686.1802251069561862
 21
7960.0
 31
0.0
  0
LINE
  5
75
100
AcDbEntity
100
AcDbLine
  8
0
 62
7
370
-1
  6
ByLayer
 10
4690.0
 20
2500.0
 30
0.0
 11
4690.0
 21
1980.6378759314152376
 31
0.0
  0
LINE
  5
76
100
AcDbEntity
100
AcDbLine
  8
0
 62
256
370
-1
  6
ByLayer
 10
23760.0
 20
6670.0
 30
0.0
 11
23760.0
 21
12230.0
 31
0.0
  0
LINE
  5
77
100
AcDbEntity
100
AcDbLine
  8
0
 62
256
370
-1
  6
ByLayer
 10
23760.0
 20
12230.0
 30
0.0
 11
23248.1410906375676859
 21
12230.0
 31
0.0
  0
MTEXT
  5
78
100
AcDbEntity
100
AcDbMText
  8
Text
 62
7
370
-1
  6
ByLayer
 10
1151.9648082659375632
 20
1389.1340334971600896
 30
0.0
 40
250.0
 41
100.0
 71
1
 72
2
  1
Entrance Lobby
  7
iso
 50
0.0
 73
1
 44
1.0
  0
MTEXT
  5
79
100
AcDbEntity
100
AcDbMText
  8
Text
 62
7
370
-1
  6
ByLayer
 10
16219.6645003844150779
 20
9783.840404509957807
 30
0.0
 40
250.0
 41
100.0
 71
1
 72
2
  1
Lift
  7
iso
 50
0.0
 73
1
 44
1.0
  0
MTEXT
  5
7A
100
AcDbEntity
100
AcDbMText
  8
Text
 62
7
370
-1
  6
ByLayer
 10
17989.0824458808965574
 20
9246.0761269571048615
 30
0.0
 40
250.0
 41
100.0
 71
1
 72
2
  1
Toilet
  7
iso
 50
90.0
 73
1
 44
1.0
  0
MTEXT
  5
7B
100
AcDbEntity
100
AcDbMText
  8
Text
 62
7
370
-1
  6
ByLayer
 10
19081.9582357463732478
 20
9228.7288921973358811
 30
0.0
 40
250.0
 41
100.0
 71
1
 72
2
  1
Toilet
  7
iso
 50
90.0
 73
1
 44
1.0
  0
MTEXT
  5
7C
100
AcDbEntity
100
AcDbMText
  8
Text
 62
7
370
-1
  6
ByLayer
 10
20400.348077488848503
 20
8916.4786665214869572
 30
0.0
 40
250.0
 41
100.0
 71
1
 72
2
  1
Kitchen
  7
iso
 50
90.0
 73
1
 44
1.0
  0
LINE
  5
7D
100
AcDbEntity
100
AcDbLine
  8
0
 62
256
370
-1
  6
ByLayer
 10
4690.0
 20
0.0
 30
0.0
 11
21410.0
 21
0.0
 31
0.0
  0
LINE
  5
7E
100
AcDbEntity
100
AcDbLine
  8
0
 62
256
370
-1
  6
ByLayer
 10
-200.0
 20
1000.0000000000001137
 30
0.0
 11
-200.0
 21
-200.0
 31
0.0
  0
LINE
  5
7F
100
AcDbEntity
100
AcDbLine
  8
0
 62
256
370
-1
  6
ByLayer
 10
-200.0
 20
-200.0
 30
0.0
 11
4690.0
 21
-200.0
 31
0.0
  0
LINE
  5
80
100
AcDbEntity
100
AcDbLine
  8
0
 62
256
370
-1
  6
ByLayer
 10
0.0
 20
1000.0
 30
0.0
 11
0.0
 21
-200.0
 31
0.0
  0
LINE
  5
81
100
AcDbEntity
100
AcDbLine
  8
0
 62
7
370
-1
  6
ByLayer
 10
4690.0
 20
980.6378759314152376
 30
0.0
 11
4690.0
 21
-200.0
 31
0.0
  0
LINE
  5
82
100
AcDbEntity
100
AcDbLine
  8
0
 62
256
370
-1
  6
ByLayer
 10
4690.0
 20
-200.0
 30
0.0
 11
21690.0
 21
-200.0
 31
0.0
  0
LINE
  5
83
100
AcDbEntity
100
AcDbLine
  8
0
 62
256
370
-1
  6
ByLayer
 10
21690.0
 20
6470.0
 30
0.0
 11
21690.0
 21
-200.0
 31
0.0
  0
LINE
  5
84
100
AcDbEntity
100
AcDbLine
  8
0
 62
256
370
-1
  6
ByLayer
 10
21690.0
 20
6470.0
 30
0.0
 11
23960.0
 21
6470.0
 31
0.0
  0
LINE
  5
85
100
AcDbEntity
100
AcDbLine
  8
0
 62
256
370
-1
  6
ByLayer
 10
23960.0
 20
6470.0
 30
0.0
 11
23960.0
 21
12430.0
 31
0.0
  0
LINE
  5
86
100
AcDbEntity
100
AcDbLine
  8
0
 62
256
370
-1
  6
ByLayer
 10
23960.0
 20
12430.0
 30
0.0
 11
23248.1410906375676859
 21
12430.0
 31
0.0
  0
LINE
  5
87
100
AcDbEntity
100
AcDbLine
  8
0
 62
256
370
-1
  6
ByLayer
 10
0.0000000000000057
 20
8060.0
 30
0.0
 11
2686.1802251069561862
 21
8060.0
 31
0.0
  0
LINE
  5
88
100
AcDbEntity
100
AcDbLine
  8
0
 62
256
370
-1
  6
ByLayer
 10
3440.0
 20
12230.0
 30
0.0
 11
3440.0
 21
8060.0
 31
0.0
  0
LINE
  5
89
100
AcDbEntity
100
AcDbLine
  8
0
 62
256
370
-1
  6
ByLayer
 10
3386.1802251069561862
 20
8060.0
 30
0.0
 11
3440.0
 21
8060.0
 31
0.0
  0
LINE
  5
8A
100
AcDbEntity
100
AcDbLine
  8
0
 62
256
370
-1
  6
ByLayer
 10
19735.7241081084466714
 20
8060.0
 30
0.0
 11
19839.6854500522604212
 21
8060.0
 31
0.0
  0
LINE
  5
8B
100
AcDbEntity
100
AcDbLine
  8
0
 62
256
370
-1
  6
ByLayer
 10
19939.6854500522604212
 20
8060.0
 30
0.0
 11
20213.5197469045997423
 21
8060.0
 31
0.0
  0
LINE
  5
8C
100
AcDbEntity
100
AcDbLine
  8
0
 62
256
370
-1
  6
ByLayer
 10
18737.8690258954629826
 20
8060.0
 30
0.0
 11
19035.7241081084466714
 21
8060.0
 31
0.0
  0
LINE
  5
8D
100
AcDbEntity
100
AcDbLine
  8
0
 62
256
370
-1
  6
ByLayer
 10
18452.7948476907040458
 20
8060.0
 30
0.0
 11
18637.8690258954629826
 21
8060.0
 31
0.0
  0
LINE
  5
8E
100
AcDbEntity
100
AcDbLine
  8
0
 62
256
370
-1
  6
ByLayer
 10
17776.668818842703331
 20
8060.0
 30
0.0
 11
17905.1529241618191008
 21
8060.0
 31
0.0
  0
LINE
  5
8F
100
AcDbEntity
100
AcDbLine
  8
0
 62
7
370
-1
  6
ByLayer
 10
17676.668818842703331
 20
11130.0
 30
0.0
 11
17676.668818842703331
 21
8060.0
 31
0.0
  0
LINE
  5
90
100
AcDbEntity
100
AcDbLine
  8
0
 62
256
370
-1
  6
ByLayer
 10
17075.7630257875207462
 20
8060.0
 30
0.0
 11
17676.668818842703331
 21
8060.0
 31
0.0
  0
LINE
  5
91
100
AcDbEntity
100
AcDbLine
  8
0
 62
256
370
-1
  6
ByLayer
 10
15276.668818842703331
 20
8060.0
 30
0.0
 11
15933.2103066852250777
 21
8060.0
 31
0.0
  0
LINE
  5
92
100
AcDbEntity
100
AcDbLine
  8
0
 62
7
370
-1
  6
ByLayer
 10
15276.668818842703331
 20
11130.0
 30
0.0
 11
15276.668818842703331
 21
8060.0
 31
0.0
  0
LINE
  5
93
100
AcDbEntity
100
AcDbLine
  8
0
 62
256
370
-1
  6
ByLayer
 10
15176.668818842703331
 20
11130.0
 30
0.0
 11
15176.668818842703331
 21
8060.0
 31
0.0
  0
LINE
  5
94
100
AcDbEntity
100
AcDbLine
  8
0
 62
256
370
-1
  6
ByLayer
 10
14300.0
 20
8060.0
 30
0.0
 11
14300.0
 21
9295.3467724848942453
 31
0.0
  0
LINE
  5
95
100
AcDbEntity
100
AcDbLine
  8
0
 62
256
370
-1
  6
ByLayer
 10
14300.0
 20
9995.3467724848942453
 30
0.0
 11
14300.0
 21
11130.0
 31
0.0
  0
LINE
  5
96
100
AcDbEntity
100
AcDbLine
  8
0
 62
7
370
-1
  6
ByLayer
 10
15944.5789904574048705
 20
11130.0
 30
0.0
 11
15276.668818842703331
 21
11130.0
 31
0.0
  0
LINE
  5
97
100
AcDbEntity
100
AcDbLine
  8
0
 62
256
370
-1
  6
ByLayer
 10
21390.0
 20
12230.0
 30
0.0
 11
21390.0
 21
11959.8553283147175534
 31
0.0
  0
LINE
  5
98
100
AcDbEntity
100
AcDbLine
  8
0
 62
256
370
-1
  6
ByLayer
 10
20913.5197469045997423
 20
8060.0
 30
0.0
 11
21390.0
 21
8060.0
 31
0.0
  0
LINE
  5
99
100
AcDbEntity
100
AcDbLine
  8
0
 62
7
370
-1
  6
ByLayer
 10
20913.5197469045997423
 20
7960.0
 30
0.0
 11
21390.0
 21
7960.0
 31
0.0
  0
LINE
  5
9A
100
AcDbEntity
100
AcDbLine
  8
0
 62
256
370
-1
  6
ByLayer
 10
21390.0
 20
7960.0
 30
0.0
 11
21390.0
 21
7698.872650508341394
 31
0.0
  0
INSERT
  5
9B
100
AcDbEntity
100
AcDbBlockReference
  8
0
 62
256
370
-1
  6
ByLayer
  2
Pillar
 10
4833.3608858839943423
 20
6509.4457092147349613
 30
0.0
 44
1.0
 45
1.0
  0
INSERT
  5
9C
100
AcDbEntity
100
AcDbBlockReference
  8
0
 62
256
370
-1
  6
ByLayer
  2
Pillar
 10
8809.1900016917970788
 20
6509.4457092147349613
 30
0.0
 44
1.0
 45
1.0
  0
INSERT
  5
9D
100
AcDbEntity
100
AcDbBlockReference
  8
0
 62
256
370
-1
  6
ByLayer
  2
Pillar
 10
12882.4659095537117537
 20
6489.956350803911846
 30
0.0
 44
1.0
 45
1.0
  0
INSERT
  5
9E
100
AcDbEntity
100
AcDbBlockReference
  8
0
 62
256
370
-1
  6
ByLayer
  2
Pillar
 10
17306.5502688104315894
 20
6489.956350803911846
 30
0.0
 44
1.0
 45
1.0
  0
LINE
  5
9F
100
AcDbEntity
100
AcDbLine
  8
0
 62
7
370
-1
  6
ByLayer
 10
18637.8690258954629826
 20
8060.0
 30
0.0
 11
18637.8690258954629826
 21
12230.0
 31
0.0
  0
LINE
  5
A0
100
AcDbEntity
100
AcDbLine
  8
0
 62
256
370
-1
  6
ByLayer
 10
18737.8690258954629826
 20
8060.0
 30
0.0
 11
18737.8690258954629826
 21
12230.0
 31
0.0
  0
LINE
  5
A1
100
AcDbEntity
100
AcDbLine
  8
0
 62
7
370
-1
  6
ByLayer
 10
19839.6854500522604212
 20
8060.0
 30
0.0
 11
19839.6854500522604212
 21
12230.0
 31
0.0
  0
LINE
  5
A2
100
AcDbEntity
100
AcDbLine
  8
0
 62
256
370
-1
  6
ByLayer
 10
19939.6854500522604212
 20
8060.0
 30
0.0
 11
19939.6854500522604212
 21
12230.0
 31
0.0
  0
LINE
  5
A3
100
AcDbEntity
100
AcDbLine
  8
0
 62
256
370
-1
  6
ByLayer
 10
17776.668818842703331
 20
12230.0
 30
0.0
 11
17776.668818842703331
 21
8060.0
 31
0.0
  0
LINE
  5
A4
100
AcDbEntity
100
AcDbLine
  8
0
 62
256
370
-1
  6
ByLayer
 10
17676.668818842703331
 20
11230.0
 30
0.0
 11
17074.3419403160187358
 21
11230.0
 31
0.0
  0
LINE
  5
A5
100
AcDbEntity
100
AcDbLine
  8
0
 62
7
370
-1
  6
ByLayer
 10
17676.668818842703331
 20
11130.0
 30
0.0
 11
17074.3419403160187358
 21
11130.0
 31
0.0
  0
LINE
  5
A6
100
AcDbEntity
100
AcDbLine
  8
0
 62
256
370
-1
  6
ByLayer
 10
21390.0
 20
11261.093933167272553
 30
0.0
 11
21390.0
 21
8060.0
 31
0.0
  0
LINE
  5
A7
100
AcDbEntity
100
AcDbLine
  8
Old walls
 62
7
370
-1
  6
ByLayer
 10
21391.5
 20
10289.8999999999996362
 30
0.0
 11
19941.0999999999985448
 21
10289.8999999999996362
 31
0.0
  0
LINE
  5
A8
100
AcDbEntity
100
AcDbLine
  8
Old walls
 62
256
370
-1
  6
ByLayer
 10
21391.5
 20
10389.8999999999996362
 30
0.0
 11
19941.0999999999985448
 21
10389.8999999999996362
 31
0.0
  0
INSERT
  5
A9
100
AcDbEntity
100
AcDbBlockReference
  8
0
 62
256
370
-1
  6
ByLayer
  2
Pillar
 10
4819.6403775629205484
 20
12123.9400802048621699
 30
0.0
 44
1.0
 45
1.0
  0
INSERT
  5
AA
100
AcDbEntity
100
AcDbBlockReference
  8
0
 62
256
370
-1
  6
ByLayer
  2
Pillar
 10
8801.0824285931594204
 20
12133.9186317112034885
 30
0.0
 44
1.0
 45
1.0
  0
INSERT
  5
AB
100
AcDbEntity
100
AcDbBlockReference
  8
0
 62
256
370
-1
  6
ByLayer
  2
Pillar
 10
12872.3314431804719788
 20
12133.9186317112034885
 30
0.0
 44
1.0
 45
1.0
  0
LINE
  5
AC
100
AcDbEntity
100
AcDbLine
  8
0
 62
256
370
-1
  6
ByLayer
 10
4819.6403775629205484
 20
12230.0
 30
0.0
 11
0.0
 21
12230.0
 31
0.0
  0
LINE
  5
AD
100
AcDbEntity
100
AcDbLine
  8
0
 62
256
370
-1
  6
ByLayer
 10
12872.3314431804719788
 20
12230.0
 30
0.0
 11
9101.0824285931594204
 21
12230.0
 31
0.0
  0
LINE
  5
AE
100
AcDbEntity
100
AcDbLine
  8
0
 62
256
370
-1
  6
ByLayer
 10
8801.0824285931594204
 20
12133.9186317112034885
 30
0.0
 11
8801.0824285931594204
 21
12143.9186317112034885
 31
0.0
  0
LINE
  5
AF
100
AcDbEntity
100
AcDbLine
  8
0
 62
256
370
-1
  6
ByLayer
 10
8801.0824285931594204
 20
12230.0
 30
0.0
 11
5119.6403775629205484
 21
12230.0
 31
0.0
  0
LINE
  5
B0
100
AcDbEntity
100
AcDbLine
  8
New Walls
 62
256
370
-1
  6
ByLayer
 10
8809.1900016917970788
 20
7960.0
 30
0.0
 11
8809.1900016917970788
 21
12133.9186317112034885
 31
0.0
  0
LINE
  5
B1
100
AcDbEntity
100
AcDbLine
  8
New Walls
 62
256
370
-1
  6
ByLayer
 10
8709.1900016917970788
 20
8060.0
 30
0.0
 11
8709.1900016917970788
 21
12230.0
 31
0.0
  0
LINE
  5
B2
100
AcDbEntity
100
AcDbLine
  8
0
 62
256
370
-1
  6
ByLayer
 10
3540.0
 20
12230.0
 30
0.0
 11
3540.0
 21
8060.0
 31
0.0
  0
LINE
  5
B3
100
AcDbEntity
100
AcDbLine
  8
Old walls
 62
256
370
-1
  6
ByLayer
 10
3540.0
 20
8060.0
 30
0.0
 11
3540.0
 21
7960.0
 31
0.0
  0
LINE
  5
B4
100
AcDbEntity
100
AcDbLine
  8
New Walls
 62
256
370
-1
  6
ByLayer
 10
3860.0
 20
8060.0
 30
0.0
 11
3860.0
 21
7960.0
 31
0.0
  0
LINE
  5
B5
100
AcDbEntity
100
AcDbLine
  8
New Walls
 62
256
370
-1
  6
ByLayer
 10
4760.0
 20
8060.0
 30
0.0
 11
4760.0
 21
7960.0
 31
0.0
  0
LINE
  5
B6
100
AcDbEntity
100
AcDbLine
  8
New Walls
 62
256
370
-1
  6
ByLayer
 10
3540.0
 20
8060.0
 30
0.0
 11
3860.0
 21
8060.0
 31
0.0
  0
LINE
  5
B7
100
AcDbEntity
100
AcDbLine
  8
New Walls
 62
256
370
-1
  6
ByLayer
 10
3540.0
 20
7960.0
 30
0.0
 11
3860.0
 21
7960.0
 31
0.0
  0
LINE
  5
B8
100
AcDbEntity
100
AcDbLine
  8
New Walls
 62
256
370
-1
  6
ByLayer
 10
4760.0
 20
7960.0
 30
0.0
 11
8809.1900016917970788
 21
7960.0
 31
0.0
  0
LINE
  5
B9
100
AcDbEntity
100
AcDbLine
  8
New Walls
 62
256
370
-1
  6
ByLayer
 10
4760.0
 20
8060.0
 30
0.0
 11
8709.1900016917970788
 21
8060.0
 31
0.0
  0
LINE
  5
BA
100
AcDbEntity
100
AcDbLine
  8
0
 62
256
370
-1
  6
ByLayer
 10
1370.0
 20
590.0
 30
0.0
 11
1370.0
 21
450.0
 31
0.0
  0
LINE
  5
BB
100
AcDbEntity
100
AcDbLine
  8
0
 62
256
370
-1
  6
ByLayer
 10
0.0
 20
588.7345388740947101
 30
0.0
 11
1370.0
 21
588.7345388740947101
 31
0.0
  0
LINE
  5
BC
100
AcDbEntity
100
AcDbLine
  8
0
 62
256
370
-1
  6
ByLayer
 10
2570.0
 20
589.9999999999996589
 30
0.0
 11
2570.0
 21
588.7345388740947101
 31
0.0
  0
LINE
  5
BD
100
AcDbEntity
100
AcDbLine
  8
0
 62
256
370
-1
  6
ByLayer
 10
2570.0
 20
588.7345388740947101
 30
0.0
 11
2570.0
 21
449.9999999999997158
 31
0.0
  0
LINE
  5
BE
100
AcDbEntity
100
AcDbLine
  8
0
 62
256
370
-1
  6
ByLayer
 10
2570.0
 20
588.7345388740947101
 30
0.0
 11
4690.0
 21
588.7345388740947101
 31
0.0
  0
LINE
  5
BF
100
AcDbEntity
100
AcDbLine
  8
0
 62
256
370
-1
  6
ByLayer
 10
2570.3090313674524623
 20
449.0348177853264815
 30
0.0
 11
4690.0
 21
449.0348177853264815
 31
0.0
  0
LINE
  5
C0
100
AcDbEntity
100
AcDbLine
  8
0
 62
256
370
-1
  6
ByLayer
 10
0.0
 20
449.0348177853264815
 30
0.0
 11
1369.2987985790236962
 21
449.0348177853264815
 31
0.0
  0
LINE
  5
C1
100
AcDbEntity
100
AcDbLine
  8
New Walls
 62
256
370
-1
  6
ByLayer
 10
13182.4659095537117537
 20
6489.956350803911846
 30
0.0
 11
13182.4659095537117537
 21
0.0
 31
0.0
  0
LINE
  5
C2
100
AcDbEntity
100
AcDbLine
  8
New Walls
 62
256
370
-1
  6
ByLayer
 10
13082.4659095537117537
 20
6489.956350803911846
 30
0.0
 11
13082.4659095537117537
 21
0.0000000000000367
 31
0.0
  0
LINE
  5
C3
100
AcDbEntity
100
AcDbLine
  8
New Walls
 62
256
370
-1
  6
ByLayer
 10
17302.7009495868005615
 20
6589.956350804172871
 30
0.0
 11
13182.4659095537062967
 21
6589.956350803911846
 31
0.0
  0
LINE
  5
C4
100
AcDbEntity
100
AcDbLine
  8
New Walls
 62
256
370
-1
  6
ByLayer
 10
18117.5280111704159935
 20
6589.9563508042247122
 30
0.0
 11
18117.5280111704050796
 21
6489.9563508042238027
 31
0.0
  0
LINE
  5
C5
100
AcDbEntity
100
AcDbLine
  8
New Walls
 62
256
370
-1
  6
ByLayer
 10
19017.5280111704159935
 20
6589.9563508041264868
 30
0.0
 11
19017.5280111704050796
 21
6489.9563508041255773
 31
0.0
  0
LINE
  5
C6
100
AcDbEntity
100
AcDbLine
  8
New Walls
 62
256
370
-1
  6
ByLayer
 10
18117.5280111704159935
 20
6589.9563508042247122
 30
0.0
 11
17606.5502688104315894
 21
6589.9563508041919704
 31
0.0
  0
LINE
  5
C7
100
AcDbEntity
100
AcDbLine
  8
New Walls
 62
256
370
-1
  6
ByLayer
 10
18117.5280111704050796
 20
6489.9563508042238027
 30
0.0
 11
13182.4659095537117537
 21
6489.956350803911846
 31
0.0
  0
LINE
  5
C8
100
AcDbEntity
100
AcDbLine
  8
New Walls
 62
256
370
-1
  6
ByLayer
 10
21490.0
 20
6489.956350804437534
 30
0.0
 11
19017.5280111704050796
 21
6489.9563508042811009
 31
0.0
  0
LINE
  5
C9
100
AcDbEntity
100
AcDbLine
  8
New Walls
 62
256
370
-1
  6
ByLayer
 10
21489.999999999992724
 20
6589.956350804437534
 30
0.0
 11
19017.5280111704159935
 21
6589.9563508042811009
 31
0.0
  0
MTEXT
  5
CA
100
AcDbEntity
100
AcDbMText
  8
New Annotations
 62
256
370
-1
  6
ByLayer
 10
20273.4860472012660466
 20
14341.0958124652606784
 30
0.0
 40
150.0
 41
100.0
 71
1
 72
2
  1
Remove existing partition wall to \Penlarge kitchen
  7
iso
 50
0.0
 73
1
 44
1.0
  0
MTEXT
  5
CB
100
AcDbEntity
100
AcDbMText
  8
New Annotations
 62
256
370
-1
  6
ByLayer
 10
-1544.2799592481953823
 20
-952.8535918765460337
 30
0.0
 40
150.0
 41
100.0
 71
1
 72
2
  1
Replace glass lobby front wall with secure\Pbrickwork.\PReplace glass door with wood/metal.
  7
iso
 50
0.0
 73
1
 44
1.0
  0
MTEXT
  5
CC
100
AcDbEntity
100
AcDbMText
  8
New Annotations
 62
256
370
-1
  6
ByLayer
 10
22316.4882621569813637
 20
4363.4123103864067161
 30
0.0
 40
150.0
 41
100.0
 71
1
 72
2
  1
Remove existing counter/office.
  7
iso
 50
0.0
 73
1
 44
1.0
  0
ARC
  5
CD
100
AcDbEntity
  8
Annotation callouts
 62
256
370
-1
  6
ByLayer
100
AcDbCircle
 10
22467.5999999999985448
 20
11646.8999999999996362
 30
0.0
 40
2237.8899999999998727
100
AcDbArc
 50
108.6650000000000063
 51
201.7659999999999911
  0
ARC
  5
CE
100
AcDbEntity
  8
Annotation callouts
 62
256
370
-1
  6
ByLayer
100
AcDbCircle
 10
-3969.1365549332181217
 20
7597.9265105462354768
 30
0.0
 40
9304.2551388603460509
100
AcDbArc
 50
294.4478504925918969
 51
309.9281883262981978
  0
ARC
  5
CF
100
AcDbEntity
  8
Annotation callouts
 62
256
370
-1
  6
ByLayer
100
AcDbCircle
 10
20994.5845469423547911
 20
3517.877070665890642
 30
0.0
 40
1292.9348773000185702
100
AcDbArc
 50
27.182823351761833
 51
158.3248880405789123
  0
MTEXT
  5
D0
100
AcDbEntity
100
AcDbMText
  8
Text
 62
256
370
-1
  6
ByLayer
 10
967.3106808567542885
 20
10514.2465310516781756
 30
0.0
 40
250.0
 41
100.0
 71
1
 72
2
  1
Office
  7
iso
 50
0.0
 73
1
 44
1.0
  0
MTEXT
  5
D1
100
AcDbEntity
100
AcDbMText
  8
New Text
 62
256
370
-1
  6
ByLayer
 10
5341.2372377742522076
 20
10367.0470796169538517
 30
0.0
 40
250.0
 41
100.0
 71
1
 72
2
  1
Office
  7
iso
 50
0.0
 73
1
 44
1.0
  0
MTEXT
  5
D2
100
AcDbEntity
100
AcDbMText
  8
New Text
 62
256
370
-1
  6
ByLayer
 10
16654.5665051858559309
 20
3385.587382998639896
 30
0.0
 40
250.0
 41
100.0
 71
1
 72
2
  1
Office
  7
iso
 50
0.0
 73
1
 44
1.0
  0
LINE
  5
D3
100
AcDbEntity
100
AcDbLine
  8
Frame
 62
256
370
-1
  6
ByLayer
 10
22000.0
 20
-2000.0
 30
0.0
 11
22000.0
 21
-2000.0
 31
0.0
  0
MTEXT
  5
D4
100
AcDbEntity
100
AcDbMText
  8
Frame
 62
256
370
-1
  6
ByLayer
 10
20600.0
 20
-2500.0
 30
0.0
 40
250.0
 41
100.0
 71
1
 72
2
  1
2013/03/14
  7
iso
 50
0.0
 73
1
 44
1.0
  0
MTEXT
  5
D5
100
AcDbEntity
100
AcDbMText
  8
Frame
 62
256
370
-1
  6
ByLayer
 10
20600.0
 20
-1900.0
 30
0.0
 40
250.0
 41
100.0
 71
1
 72
2
  1
Proposed Alterations
  7
iso
 50
0.0
 73
1
 44
1.0
  0
MTEXT
  5
D6
100
AcDbEntity
100
AcDbMText
  8
Frame
 62
256
370
-1
  6
ByLayer
 10
20600.0
 20
-1200.0
 30
0.0
 40
250.0
 41
100.0
 71
1
 72
2
  1
Ground Floor, 447 Hackney Rd
  7
iso
 50
0.0
 73
1
 44
1.0
  0
MTEXT
  5
D7
100
AcDbEntity
100
AcDbMText
  8
New Annotations
 62
256
370
-1
  6
ByLayer
 10
10000.0
 20
-2000.0
 30
0.0
 40
150.0
 41
100.0
 71
1
 72
2
  1
Blue lines indicate new ceiling-height dry-lined\Pstudwork partition walls.
  7
iso
 50
0.0
 73
1
 44
1.0
  0
LINE
  5
D8
100
AcDbEntity
100
AcDbLine
  8
0
 62
256
370
-1
  6
ByLayer
 10
15944.5789904574048705
 20
11230.0
 30
0.0
 11
13172.3314431804719788
 21
11230.0
 31
0.0
  0
LINE
  5
D9
100
AcDbEntity
100
AcDbLine
  8
0
 62
7
370
-1
  6
ByLayer
 10
15176.668818842703331
 20
11130.0
 30
0.0
 11
13172.3314431804719788
 21
11130.0
 31
0.0
  0
LINE
  5
DA
100
AcDbEntity
100
AcDbLine
  8
0
 62
256
370
-1
  6
ByLayer
 10
14200.0
 20
9995.3467724848942453
 30
0.0
 11
14200.0
 21
11130.0
 31
0.0
  0
LINE
  5
DB
100
AcDbEntity
100
AcDbLine
  8
0
 62
256
370
-1
  6
ByLayer
 10
22048.1410906375676859
 20
12230.0
 30
0.0
 11
17676.668818842703331
 21
12230.0
 31
0.0
  0
LINE
  5
DC
100
AcDbEntity
100
AcDbLine
  8
0
 62
256
370
-1
  6
ByLayer
 10
22048.1410906375676859
 20
12430.0
 30
0.0
 11
17676.668818842703331
 21
12430.0
 31
0.0
  0
LINE
  5
DD
100
AcDbEntity
100
AcDbLine
  8
0
 62
7
370
-1
  6
ByLayer
 10
17676.668818842703331
 20
12430.0
 30
0.0
 11
17676.668818842703331
 21
8060.0
 31
0.0
  0
LINE
  5
DE
100
AcDbEntity
100
AcDbLine
  8
0
 62
256
370
-1
  6
ByLayer
 10
8801.0824285931594204
 20
12430.0
 30
0.0
 11
5119.6403775629205484
 21
12430.0
 31
0.0
  0
LINE
  5
DF
100
AcDbEntity
100
AcDbLine
  8
0
 62
256
370
-1
  6
ByLayer
 10
12872.3314431804719788
 20
12430.0
 30
0.0
 11
9101.0824285931594204
 21
12430.0
 31
0.0
  0
LINE
  5
E0
100
AcDbEntity
100
AcDbLine
  8
0
 62
256
370
-1
  6
ByLayer
 10
-200.0
 20
12430.0
 30
0.0
 11
-200.0
 21
1000.0000000000001137
 31
0.0
  0
LINE
  5
E1
100
AcDbEntity
100
AcDbLine
  8
0
 62
256
370
-1
  6
ByLayer
 10
4819.6403775629205484
 20
12430.0
 30
0.0
 11
-200.0
 21
12430.0
 31
0.0
  0
LINE
  5
E2
100
AcDbEntity
100
AcDbLine
  8
0
 62
256
370
-1
  6
ByLayer
 10
13072.3314431804719788
 20
7960.0
 30
0.0
 11
15933.2103066852250777
 21
7960.0
 31
0.0
  0
LINE
  5
E3
100
AcDbEntity
100
AcDbLine
  8
0
 62
256
370
-1
  6
ByLayer
 10
14300.0
 20
8060.0
 30
0.0
 11
15176.668818842703331
 21
8060.0
 31
0.0
  0
LINE
  5
E4
100
AcDbEntity
100
AcDbLine
  8
0
 62
256
370
-1
  6
ByLayer
 10
14200.0
 20
8060.0
 30
0.0
 11
14200.0
 21
9295.3467724848942453
 31
0.0
  0
LINE
  5
E5
100
AcDbEntity
100
AcDbLine
  8
0
 62
256
370
-1
  6
ByLayer
 10
13172.3314431804719788
 20
8060.0
 30
0.0
 11
14200.0
 21
8060.0
 31
0.0
  0
LINE
  5
E6
100
AcDbEntity
100
AcDbLine
  8
0
 62
256
370
-1
  6
ByLayer
 10
13172.3314431804719788
 20
12133.9186317112034885
 30
0.0
 11
13172.3314431804719788
 21
10004.6716557124800602
 31
0.0
  0
LINE
  5
E7
100
AcDbEntity
100
AcDbLine
  8
0
 62
256
370
-1
  6
ByLayer
 10
13072.3314431804719788
 20
12133.9186317112034885
 30
0.0
 11
13072.3314431804719788
 21
10004.6716557124800602
 31
0.0
  0
LINE
  5
E8
100
AcDbEntity
100
AcDbLine
  8
0
 62
256
370
-1
  6
ByLayer
 10
13072.3314431804719788
 20
9300.1626227217930136
 30
0.0
 11
13072.3314431804719788
 21
7960.0
 31
0.0
  0
LINE
  5
E9
100
AcDbEntity
100
AcDbLine
  8
0
 62
256
370
-1
  6
ByLayer
 10
13172.3314431804719788
 20
9300.1626227217930136
 30
0.0
 11
13172.3314431804719788
 21
8060.0
 31
0.0
  0
MTEXT
  5
EA
100
AcDbEntity
100
AcDbMText
  8
Text
 62
7
370
-1
  6
ByLayer
 10
14493.6283322741419397
 20
12040.6600468417418597
 30
0.0
 40
250.0
 41
100.0
 71
1
 72
2
  1
Loading Dock
  7
iso
 50
0.0
 73
1
 44
1.0
  0
MTEXT
  5
EB
100
AcDbEntity
100
AcDbMText
  8
Text
 62
7
370
-1
  6
ByLayer
 10
13800.0
 20
9800.0
 30
0.0
 40
250.0
 41
100.0
 71
1
 72
2
  1
Toilet
  7
iso
 50
0.0
 73
1
 44
1.0
  0
LINE
  5
EC
100
AcDbEntity
100
AcDbLine
  8
Frame
 62
256
370
70
  6
ByLayer
 10
-3000.0
 20
15000.0
 30
0.0
 11
-3000.0
 21
-3000.0
 31
0.0
  0
LINE
  5
ED
100
AcDbEntity
100
AcDbLine
  8
Frame
 62
256
370
70
  6
ByLayer
 10
-3000.0
 20
-3000.0
 30
0.0
 11
26000.0
 21
-3000.0
 31
0.0
  0
LINE
  5
EE
100
AcDbEntity
100
AcDbLine
  8
Frame
 62
256
370
70
  6
ByLayer
 10
26000.0
 20
15000.0
 30
0.0
 11
26000.0
 21
-3000.0
 31
0.0
  0
LINE
  5
EF
100
AcDbEntity
100
AcDbLine
  8
Frame
 62
256
370
70
  6
ByLayer
 10
26000.0
 20
15000.0
 30
0.0
 11
-3000.0
 21
15000.0
 31
0.0
  0
LINE
  5
F0
100
AcDbEntity
100
AcDbLine
  8
Frame
 62
256
370
70
  6
ByLayer
 10
20400.0
 20
-1000.0
 30
0.0
 11
26000.0
 21
-1000.0
 31
0.0
  0
LINE
  5
F1
100
AcDbEntity
100
AcDbLine
  8
Frame
 62
256
370
70
  6
ByLayer
 10
20400.0
 20
-1000.0
 30
0.0
 11
20400.0
 21
-3000.0
 31
0.0
  0
LINE
  5
F2
100
AcDbEntity
100
AcDbLine
  8
image
 62
256
370
-1
  6
ByLayer
 10
14689.1504660465561756
 20
5853.5712383493801099
 30
0.0
 11
19131.4833555276381958
 21
5853.5712383493801099
 31
0.0
  0
ENDSEC
  0
SECTION
  2
OBJECTS
  0
DICTIONARY
  5
C
100
AcDbDictionary
280
0
281
1
  3
ACAD_GROUP
350
D
  3
ACAD_LAYOUT
350
1A
  3
ACAD_MLINESTYLE
350
17
  3
ACAD_PLOTSETTINGS
350
19
  3
ACAD_PLOTSTYLENAME
350
E
  3
AcDbVariableDictionary
350
F3
  0
DICTIONARY
  5
D
100
AcDbDictionary
280
0
281
1
  0
ACDBDICTIONARYWDFLT
  5
E
100
AcDbDictionary
281
1
  3
Normal
350
F
100
AcDbDictionaryWithDefault
340
F
  0
ACDBPLACEHOLDER
  5
F
  0
DICTIONARY
  5
17
100
AcDbDictionary
280
0
281
1
  3
Standard
350
18
  0
MLINESTYLE
  5
18
100
AcDbMlineStyle
  2
STANDARD
 70
0
  3

 62
256
 51
90.0
 52
90.0
 71
2
 49
0.5
 62
256
  6
BYLAYER
 49
-0.5
 62
256
  6
BYLAYER
  0
DICTIONARY
  5
19
100
AcDbDictionary
280
0
281
1
  0
DICTIONARY
  5
1A
100
AcDbDictionary
281
1
  3
Layout1
350
1E
  3
Layout2
350
26
  3
Model
350
22
  0
LAYOUT
  5
1E
100
AcDbPlotSettings
  1

  2
C:\Program Files\AutoCAD 2002\plotters\DWF ePlot (optimized for plotting).pc3
  4

  6

 40
0.0
 41
0.0
 42
0.0
 43
0.0
 44
0.0
 45
0.0
 46
0.0
 47
0.0
 48
0.0
 49
0.0
140
0.0
141
0.0
142
1.0
143
1.0
 70
688
 72
0
 73
0
 74
5
  7

 75
16
147
1.0
148
0.0
149
0.0
100
AcDbLayout
  1
Layout1
 70
1
 71
1
 10
0.0
 20
0.0
 11
420.0
 21
297.0
 12
0.0
 22
0.0
 32
0.0
 14
100000000000000000000.0
 24
100000000000000000000.0
 34
100000000000000000000.0
 15
-100000000000000000000.0
 25
-100000000000000000000.0
 35
-100000000000000000000.0
146
0.0
 13
0.0
 23
0.0
 33
0.0
 16
1.0
 26
0.0
 36
0.0
 17
0.0
 27
1.0
 37
0.0
 76
0
330
1B
  0
LAYOUT
  5
22
100
AcDbPlotSettings
  1

  2
C:\Program Files\AutoCAD 2002\plotters\DWF ePlot (optimized for plotting).pc3
  4

  6

 40
0.0
 41
0.0
 42
0.0
 43
0.0
 44
0.0
 45
0.0
 46
0.0
 47
0.0
 48
0.0
 49
0.0
140
0.0
141
0.0
142
1.0
143
1.0
 70
1712
 72
0
 73
0
 74
0
  7

 75
0
147
1.0
148
0.0
149
0.0
100
AcDbLayout
  1
Model
 70
1
 71
0
 10
0.0
 20
0.0
 11
12.0
 21
9.0
 12
0.0
 22
0.0
 32
0.0
 14
0.0
 24
0.0
 34
0.0
 15
0.0
 25
0.0
 35
0.0
146
0.0
 13
0.0
 23
0.0
 33
0.0
 16
1.0
 26
0.0
 36
0.0
 17
0.0
 27
1.0
 37
0.0
 76
0
330
1F
  0
LAYOUT
  5
26
100
AcDbPlotSettings
  1

  2
C:\Program Files\AutoCAD 2002\plotters\DWF ePlot (optimized for plotting).pc3
  4

  6

 40
0.0
 41
0.0
 42
0.0
 43
0.0
 44
0.0
 45
0.0
 46
0.0
 47
0.0
 48
0.0
 49
0.0
140
0.0
141
0.0
142
1.0
143
1.0
 70
688
 72
0
 73
0
 74
5
  7

 75
16
147
1.0
148
0.0
149
0.0
100
AcDbLayout
  1
Layout2
 70
1
 71
2
 10
0.0
 20
0.0
 11
12.0
 21
9.0
 12
0.0
 22
0.0
 32
0.0
 14
0.0
 24
0.0
 34
0.0
 15
0.0
 25
0.0
 35
0.0
146
0.0
 13
0.0
 23
0.0
 33
0.0
 16
1.0
 26
0.0
 36
0.0
 17
0.0
 27
1.0
 37
0.0
 76
0
330
23
  0
DICTIONARY
  5
F3
100
AcDbDictionary
281
1
  3
DIMASSOC
350
F5
  3
HIDETEXT
350
F4
  0
DICTIONARYVAR
  5
F4
100
DictionaryVariables
280
0
  1
2
  0
DICTIONARYVAR
  5
F5
100
DictionaryVariables
280
0
  1
1
  0
IMAGEDEF
  5
53
100
AcDbRasterImageDef
 90
0
  1
/home/russ/Documents/hackspace/hackneyroad/a-0.png
 10
3306.0
 20
4678.0
 11
1.0
 21
1.0
280
1
281
0
  0
ENDSEC
  0
EOF
